<svg width="40" height="40" viewBox="0 0 40 40" fill="none" xmlns="http://www.w3.org/2000/svg">
<path d="M5.46154 11.6406C4.94872 11.3802 4.61538 11.0938 4.46154 10.7812C4.35897 10.4688 4.37179 10.2604 4.5 10.1562C4.62821 10.0521 4.92308 10 5.38462 10H20.0769H34.7692C35.2308 10 35.5256 10.0521 35.6538 10.1562C35.7821 10.2604 35.7949 10.4688 35.6923 10.7812C35.5385 11.0938 35.2051 11.3802 34.6923 11.6406C26.2308 16.3281 21.8974 18.724 21.6923 18.8281C21.2821 19.0365 20.7436 19.1406 20.0769 19.1406C19.4103 19.1406 18.8718 19.0365 18.4615 18.8281C18.2564 18.724 13.9231 16.3281 5.46154 11.6406ZM35.3846 11.9531C35.7436 11.901 35.9359 11.888 35.9615 11.9141C35.9872 11.9401 36 12.0833 36 12.3438V28.3594C36 28.724 35.8077 29.0885 35.4231 29.4531C35.0385 29.8177 34.6667 30 34.3077 30H20.0769H5.84615C5.4359 30 5.02564 29.8177 4.61538 29.4531C4.20513 29.0885 4 28.724 4 28.3594V12.3438C4 11.875 4.23077 11.7448 4.69231 11.9531C4.84615 12.0573 5.48718 12.487 6.61538 13.2422C7.74359 13.9974 9.14103 14.9479 10.8077 16.0938C12.4744 17.2396 13.8205 18.151 14.8462 18.8281L8.46154 26.0938C8.30769 26.25 8.28205 26.3802 8.38462 26.4844C8.4359 26.5365 8.51282 26.5495 8.61538 26.5234C8.71795 26.4974 8.79487 26.4583 8.84615 26.4062L16.3846 19.9219C17.4615 20.651 18.1538 21.0938 18.4615 21.25C18.8718 21.4583 19.4103 21.5625 20.0769 21.5625C20.7436 21.5625 21.2821 21.4583 21.6923 21.25C22 21.0938 22.6923 20.651 23.7692 19.9219L31.3077 26.4062C31.359 26.4583 31.4359 26.4974 31.5385 26.5234C31.641 26.5495 31.7179 26.5365 31.7692 26.4844C31.8205 26.4323 31.7692 26.3021 31.6154 26.0938L25.3077 18.8281C26.3333 18.151 27.6667 17.2396 29.3077 16.0938C30.9487 14.9479 32.3333 13.9974 33.4615 13.2422C34.5897 12.487 35.2308 12.0573 35.3846 11.9531Z" fill="#BBBBBB"/>
</svg>