<svg width="25" height="25" viewBox="0 0 25 25" fill="none" xmlns="http://www.w3.org/2000/svg">
<path d="M12.5 2.5C6.97833 2.5 2.5 6.97833 2.5 12.5C2.5 18.0217 6.97833 22.5 12.5 22.5C18.0217 22.5 22.5 18.0217 22.5 12.5C22.5 6.97833 18.0242 2.5 12.5 2.5ZM7.43333 12.8358L7.47583 12.7683L10.0783 8.69833C10.087 8.68496 10.0992 8.67416 10.1135 8.66708C10.1278 8.66 10.1438 8.6569 10.1597 8.65809C10.1756 8.65928 10.1909 8.66473 10.204 8.67386C10.2171 8.68299 10.2275 8.69547 10.2342 8.71C10.6675 9.68417 11.0442 10.8958 10.8675 11.65C10.7942 11.96 10.5883 12.38 10.3558 12.7683C10.326 12.8251 10.2935 12.8805 10.2583 12.9342C10.2499 12.9461 10.2387 12.9558 10.2256 12.9624C10.2125 12.9689 10.198 12.9721 10.1833 12.9717H7.51083C7.49488 12.9719 7.47916 12.9678 7.46534 12.9599C7.45152 12.9519 7.44012 12.9403 7.43234 12.9264C7.42456 12.9125 7.4207 12.8967 7.42117 12.8808C7.42164 12.8648 7.42642 12.8493 7.435 12.8358H7.43333ZM19.0283 14.2358C19.0285 14.2536 19.0235 14.2711 19.0139 14.2861C19.0043 14.301 18.9904 14.3128 18.9742 14.32C18.7717 14.4058 18.0825 14.7242 17.7958 15.1217C17.0642 16.14 16.5058 17.5967 15.2558 17.5967H10.0442C9.60414 17.596 9.16855 17.5087 8.7623 17.3396C8.35605 17.1705 7.98709 16.923 7.67653 16.6113C7.36596 16.2996 7.11986 15.9297 6.95231 15.5228C6.78475 15.1159 6.69901 14.68 6.7 14.24V14.18C6.7 14.1317 6.74 14.0917 6.79 14.0917H9.69417C9.7525 14.0917 9.79417 14.1442 9.79 14.2017C9.76833 14.39 9.80417 14.5842 9.89417 14.76C10.0658 15.11 10.4242 15.3283 10.81 15.3283H12.2483V14.2058H10.825C10.8083 14.2057 10.792 14.2009 10.7778 14.1922C10.7636 14.1834 10.7521 14.1709 10.7445 14.1561C10.7368 14.1413 10.7334 14.1246 10.7345 14.108C10.7356 14.0914 10.7413 14.0753 10.7508 14.0617L10.8033 13.9867C10.9367 13.7942 11.1292 13.4983 11.3208 13.16C11.4508 12.9317 11.5775 12.6883 11.6792 12.4433C11.6992 12.4 11.715 12.3542 11.7333 12.31C11.7608 12.2317 11.7892 12.1583 11.8092 12.0858C11.8288 12.0244 11.8469 11.9624 11.8633 11.9C11.9108 11.6917 11.9308 11.4717 11.9308 11.2442C11.9308 11.1542 11.9275 11.06 11.9192 10.9717C11.915 10.8742 11.9025 10.7758 11.8908 10.6783C11.8815 10.5911 11.8682 10.5043 11.8508 10.4183C11.8284 10.2874 11.8012 10.1573 11.7692 10.0283L11.7575 9.97833C11.7325 9.88833 11.7108 9.80333 11.6825 9.71417C11.6032 9.44034 11.512 9.17009 11.4092 8.90417C11.3734 8.80414 11.3339 8.70546 11.2908 8.60833C11.2308 8.46 11.1692 8.32583 11.1133 8.2C11.0856 8.14609 11.0594 8.09134 11.035 8.03583C11.0079 7.97595 10.9793 7.91676 10.9492 7.85833C10.9292 7.81417 10.905 7.77167 10.8892 7.73167L10.7133 7.40833C10.6892 7.36417 10.7292 7.31 10.7775 7.32417L11.8775 7.62167H11.8858L12.03 7.66333L12.19 7.70833L12.2483 7.72417V7.07167C12.2483 6.75583 12.5 6.5 12.8142 6.5C12.8884 6.4998 12.9618 6.51461 13.0301 6.54354C13.0984 6.57247 13.1602 6.61492 13.2117 6.66833C13.3181 6.77565 13.3779 6.92054 13.3783 7.07167V8.04167L13.4958 8.07417C13.5042 8.07833 13.5142 8.0825 13.5217 8.08833C13.55 8.10833 13.5917 8.14 13.6442 8.18C13.6858 8.21167 13.73 8.25167 13.7817 8.29417C13.9462 8.42823 14.1058 8.56833 14.26 8.71417C14.4383 8.88 14.6383 9.07417 14.83 9.29C14.8842 9.35167 14.9358 9.41167 14.99 9.47833C15.0417 9.54417 15.1 9.60833 15.1483 9.67167C15.2142 9.75833 15.2817 9.84833 15.3442 9.94167C15.3717 9.98583 15.4058 10.0317 15.4317 10.0758C15.5117 10.1942 15.58 10.3158 15.6458 10.4383C15.6742 10.4942 15.7017 10.5558 15.7258 10.6158C15.8 10.78 15.8583 10.9458 15.8942 11.1142C15.906 11.1499 15.9141 11.1868 15.9183 11.2242V11.2325C15.93 11.28 15.9342 11.3325 15.9383 11.3858C15.9618 11.6321 15.9317 11.8806 15.85 12.1142C15.8242 12.1842 15.8 12.2558 15.7683 12.3258C15.7058 12.4675 15.6342 12.6117 15.5483 12.7442C15.52 12.7942 15.4858 12.8458 15.4542 12.8958C15.4183 12.9483 15.38 12.9983 15.3483 13.0458C15.3025 13.1089 15.2544 13.1704 15.2042 13.23C15.16 13.29 15.1158 13.35 15.0658 13.4042C14.9983 13.4858 14.9325 13.5625 14.8617 13.6358C14.8217 13.6842 14.7783 13.7342 14.7317 13.7775C14.6883 13.8275 14.6417 13.8717 14.6017 13.9117C14.5317 13.9817 14.4767 14.0342 14.4283 14.08L14.3142 14.1817C14.2983 14.1976 14.2767 14.2066 14.2542 14.2067H13.3783V15.3283H14.48C14.7258 15.3283 14.96 15.2417 15.15 15.08C15.2142 15.0242 15.4958 14.78 15.83 14.4117C15.8409 14.3991 15.8555 14.3904 15.8717 14.3867L18.9133 13.5058C18.9267 13.502 18.9408 13.5013 18.9544 13.5037C18.9681 13.5062 18.981 13.5119 18.9922 13.5202C19.0033 13.5285 19.0124 13.5393 19.0186 13.5517C19.0249 13.5641 19.0282 13.5778 19.0283 13.5917V14.2358Z" fill="#000D83"/>
</svg>