<svg width="55" height="55" viewBox="0 0 55 55" fill="none" xmlns="http://www.w3.org/2000/svg">
<g clip-path="url(#clip0_206_22)">
<path d="M48.7158 2.25586C48.8232 2.18424 48.8949 2.07682 48.9307 1.93359C48.9665 1.79036 48.9844 1.64714 48.9844 1.50391C48.9486 1.36068 48.8859 1.23535 48.7964 1.12793C48.7069 1.02051 48.6084 0.948893 48.501 0.913086C46.5316 -0.0179037 44.4727 -0.29541 42.3242 0.0805664C40.1758 0.456543 38.3317 1.41439 36.792 2.9541C35.3597 4.4222 34.4019 6.20361 33.9185 8.29834C33.4351 10.3931 33.5335 12.4072 34.2139 14.3408L14.3945 34.1602C13.8574 33.9811 13.3024 33.8468 12.7295 33.7573C12.1566 33.6678 11.5658 33.623 10.957 33.623C9.48893 33.623 8.07454 33.9006 6.71387 34.4556C5.35319 35.0106 4.15365 35.7894 3.11523 36.792C1.61133 38.3317 0.653483 40.1579 0.241699 42.2705C-0.170085 44.3831 0.0537109 46.4242 0.913086 48.3936C0.984701 48.5368 1.07422 48.6532 1.18164 48.7427C1.28906 48.8322 1.41439 48.8949 1.55762 48.9307C1.70085 48.9307 1.84408 48.9128 1.9873 48.877C2.13053 48.8411 2.23796 48.7695 2.30957 48.6621L8.3252 42.6465C8.54004 42.4316 8.78174 42.3153 9.05029 42.2974C9.31885 42.2795 9.52474 42.36 9.66797 42.5391L12.2998 45.2246C12.4788 45.4395 12.5594 45.6722 12.5415 45.9229C12.5236 46.1735 12.4251 46.4062 12.2461 46.6211L6.28418 52.6367C6.17676 52.7083 6.10514 52.8158 6.06934 52.959C6.03353 53.1022 6.01562 53.2454 6.01562 53.3887C6.05143 53.5319 6.1141 53.6572 6.20361 53.7646C6.29313 53.8721 6.3916 53.9437 6.49902 53.9795C7.21517 54.3376 7.94922 54.5972 8.70117 54.7583C9.45312 54.9194 10.2051 55 10.957 55C12.3177 55 13.6157 54.7404 14.8511 54.2212C16.0864 53.702 17.2054 52.9411 18.208 51.9385C19.6403 50.4704 20.5981 48.689 21.0815 46.5942C21.5649 44.4995 21.4665 42.4854 20.7861 40.5518L40.6055 20.7324C41.1426 20.9115 41.6976 21.0457 42.2705 21.1353C42.8434 21.2248 43.4342 21.2695 44.043 21.2695C45.5111 21.2695 46.9255 20.992 48.2861 20.437C49.6468 19.882 50.8464 19.1032 51.8848 18.1006C53.3887 16.5251 54.3465 14.6899 54.7583 12.5952C55.1701 10.5005 54.9463 8.46842 54.0869 6.49902C54.0153 6.35579 53.9258 6.23942 53.8184 6.1499C53.7109 6.06038 53.5856 5.99772 53.4424 5.96191C53.2992 5.96191 53.1559 5.97982 53.0127 6.01562C52.8695 6.05143 52.762 6.12305 52.6904 6.23047L46.6748 12.2461C46.4958 12.4251 46.272 12.5146 46.0034 12.5146C45.7349 12.5146 45.4932 12.4251 45.2783 12.2461L42.7002 9.66797C42.5212 9.45312 42.4316 9.22038 42.4316 8.96973C42.4316 8.71908 42.5212 8.48633 42.7002 8.27148L48.7158 2.25586ZM41.5186 10.8496L44.0967 13.4277C44.598 13.9648 45.2246 14.2334 45.9766 14.2334C46.7285 14.2334 47.373 13.9827 47.9102 13.4814L52.9053 8.37891C53.335 9.88281 53.3439 11.3867 52.9321 12.8906C52.5203 14.3945 51.7594 15.7194 50.6494 16.8652C49.79 17.7246 48.7874 18.387 47.6416 18.8525C46.4958 19.318 45.2962 19.5508 44.043 19.5508C43.4342 19.5508 42.8613 19.4971 42.3242 19.3896C41.7871 19.2822 41.25 19.1211 40.7129 18.9062C40.5697 18.8346 40.4085 18.8167 40.2295 18.8525C40.0505 18.8883 39.9072 18.9779 39.7998 19.1211L19.1748 39.7461C19.0316 39.8535 18.9421 39.9967 18.9062 40.1758C18.8704 40.3548 18.8883 40.516 18.96 40.6592C19.6761 42.3063 19.8462 44.0788 19.4702 45.9766C19.0942 47.8743 18.2617 49.4678 16.9727 50.7568C15.8268 51.9027 14.484 52.6636 12.9443 53.0396C11.4046 53.4155 9.90072 53.3708 8.43262 52.9053L13.4814 47.8027C14.0186 47.2656 14.2871 46.63 14.2871 45.896C14.2871 45.1619 14.0365 44.5443 13.5352 44.043L10.9033 41.3037C10.402 40.8024 9.77539 40.5697 9.02344 40.6055C8.27148 40.6413 7.62695 40.9098 7.08984 41.4111L2.09473 46.5137C1.66504 45.0098 1.65609 43.5059 2.06787 42.002C2.47965 40.498 3.24056 39.1732 4.35059 38.0273C5.20996 37.168 6.21257 36.5055 7.3584 36.04C8.50423 35.5745 9.70378 35.3418 10.957 35.3418C11.5658 35.3418 12.1476 35.3955 12.7026 35.5029C13.2576 35.6104 13.7858 35.7715 14.2871 35.9863C14.4303 36.0579 14.5915 36.0758 14.7705 36.04C14.9495 36.0042 15.0928 35.9147 15.2002 35.7715L35.8252 15.1465C35.9684 15.0391 36.0579 14.8958 36.0938 14.7168C36.1296 14.5378 36.1117 14.3766 36.04 14.2334C35.3239 12.5863 35.1628 10.8138 35.5566 8.91602C35.9505 7.01823 36.7741 5.4248 38.0273 4.13574C39.1732 2.98991 40.516 2.229 42.0557 1.85303C43.5954 1.47705 45.0993 1.52181 46.5674 1.9873L41.5186 7.08984C40.9814 7.62695 40.7129 8.25358 40.7129 8.96973C40.7129 9.68587 40.9814 10.3125 41.5186 10.8496ZM50.2197 52.6367C50.0049 52.8158 49.7632 52.9053 49.4946 52.9053C49.2261 52.9053 48.9844 52.8158 48.7695 52.6367L31.5283 35.4492C31.3851 35.2702 31.1882 35.1807 30.9375 35.1807C30.6868 35.1807 30.4899 35.2702 30.3467 35.4492C30.1676 35.5924 30.0781 35.7894 30.0781 36.04C30.0781 36.2907 30.1676 36.4876 30.3467 36.6309L47.5879 53.8184C47.8385 54.069 48.125 54.266 48.4473 54.4092C48.7695 54.5524 49.1276 54.624 49.5215 54.624C49.8796 54.624 50.2197 54.5524 50.542 54.4092C50.8643 54.266 51.1686 54.069 51.4551 53.8184L53.8721 51.2402C54.4092 50.7031 54.6777 50.0765 54.6777 49.3604C54.6777 48.6442 54.4092 48.0176 53.8721 47.4805L36.6846 30.293C36.5413 30.1139 36.3444 30.0244 36.0938 30.0244C35.8431 30.0244 35.6462 30.1139 35.5029 30.293C35.3239 30.4362 35.2344 30.6331 35.2344 30.8838C35.2344 31.1344 35.3239 31.3314 35.5029 31.4746L52.6904 48.6621C52.8695 48.877 52.959 49.1097 52.959 49.3604C52.959 49.611 52.8516 49.8438 52.6367 50.0586L50.2197 52.6367ZM10.0439 5.37109L4.8877 0.214844C4.74447 0.0358073 4.54753 -0.0537109 4.29688 -0.0537109C4.04622 -0.0537109 3.84928 0.0358073 3.70605 0.214844L0.268555 3.65234C0.0895182 3.79557 0 3.99251 0 4.24316C0 4.49382 0.0895182 4.69076 0.268555 4.83398L5.4248 9.99023C5.49642 10.0977 5.58594 10.1693 5.69336 10.2051C5.80078 10.2409 5.9082 10.2588 6.01562 10.2588C6.12305 10.2588 6.23047 10.2409 6.33789 10.2051C6.44531 10.1693 6.53483 10.0977 6.60645 9.99023L7.73438 8.91602L20.8936 22.0215C20.9652 22.1289 21.0547 22.2005 21.1621 22.2363C21.2695 22.2721 21.377 22.29 21.4844 22.29C21.5918 22.29 21.6992 22.2721 21.8066 22.2363C21.9141 22.2005 22.0036 22.1289 22.0752 22.0215C22.2542 21.8783 22.3438 21.6813 22.3438 21.4307C22.3438 21.18 22.2542 20.9831 22.0752 20.8398L8.96973 7.68066L10.0439 6.55273C10.223 6.40951 10.3125 6.21257 10.3125 5.96191C10.3125 5.71126 10.223 5.51432 10.0439 5.37109ZM6.01562 8.16406L2.09473 4.24316L4.29688 2.04102L8.21777 5.96191L6.01562 8.16406Z" fill="white"/>
</g>
<defs>
<clipPath id="clip0_206_22">
<rect width="55" height="55" fill="white" transform="matrix(1 0 0 -1 0 55)"/>
</clipPath>
</defs>
</svg>