<svg width="55" height="55" viewBox="0 0 55 55" fill="none" xmlns="http://www.w3.org/2000/svg">
<path d="M46.4062 8.59375H8.59375V46.4062H46.4062V8.59375ZM48.125 6.875V48.125H6.875V6.875H48.125ZM20.625 18.0469V16.3281H41.25V18.0469H20.625ZM20.625 28.3594V26.6406H41.25V28.3594H20.625ZM20.625 38.6719V36.9531H41.25V38.6719H20.625ZM15.4688 18.9062C15.4688 18.9062 15.1823 18.9062 14.6094 18.9062C14.0365 18.9062 13.75 18.3333 13.75 17.1875C13.75 16.0417 14.3229 15.4688 15.4688 15.4688C16.6146 15.4688 17.1875 16.0417 17.1875 17.1875C17.1875 18.3333 16.6146 18.9062 15.4688 18.9062ZM15.4688 29.2188C15.4688 29.2188 15.1823 29.2188 14.6094 29.2188C14.0365 29.2188 13.75 28.6458 13.75 27.5C13.75 26.3542 14.3229 25.7812 15.4688 25.7812C16.6146 25.7812 17.1875 26.3542 17.1875 27.5C17.1875 28.6458 16.6146 29.2188 15.4688 29.2188ZM15.4688 39.5312C15.4688 39.5312 15.1823 39.5312 14.6094 39.5312C14.0365 39.5312 13.75 38.9583 13.75 37.8125C13.75 36.6667 14.3229 36.0938 15.4688 36.0938C16.6146 36.0938 17.1875 36.6667 17.1875 37.8125C17.1875 38.9583 16.6146 39.5312 15.4688 39.5312Z" fill="white"/>
</svg>