<svg width="60" height="60" viewBox="0 0 60 60" fill="none" xmlns="http://www.w3.org/2000/svg">
<path d="M51.125 8.875H9.875V50.125H51.125V8.875ZM53 7V52H8V7H53ZM23 19.1875V17.3125H45.5V19.1875H23ZM23 30.4375V28.5625H45.5V30.4375H23ZM23 41.6875V39.8125H45.5V41.6875H23ZM17.375 20.125C17.375 20.125 17.0625 20.125 16.4375 20.125C15.8125 20.125 15.5 19.5 15.5 18.25C15.5 17 16.125 16.375 17.375 16.375C18.625 16.375 19.25 17 19.25 18.25C19.25 19.5 18.625 20.125 17.375 20.125ZM17.375 31.375C17.375 31.375 17.0625 31.375 16.4375 31.375C15.8125 31.375 15.5 30.75 15.5 29.5C15.5 28.25 16.125 27.625 17.375 27.625C18.625 27.625 19.25 28.25 19.25 29.5C19.25 30.75 18.625 31.375 17.375 31.375ZM17.375 42.625C17.375 42.625 17.0625 42.625 16.4375 42.625C15.8125 42.625 15.5 42 15.5 40.75C15.5 39.5 16.125 38.875 17.375 38.875C18.625 38.875 19.25 39.5 19.25 40.75C19.25 42 18.625 42.625 17.375 42.625Z" fill="#106E5B"/>
</svg>
