<svg width="35" height="36" viewBox="0 0 35 36" fill="none" xmlns="http://www.w3.org/2000/svg">
<path d="M20 4.32812V20.5V21.4375L19.0625 21.75L5 25.2656C5.46875 26.2552 6.01562 27.1927 6.64062 28.0781C7.63021 29.4323 8.69792 30.526 9.84375 31.3594C12.5 33.2865 15.4688 34.25 18.75 34.25C20.7812 34.25 22.7344 33.8594 24.6094 33.0781C26.4323 32.2969 28.0208 31.2292 29.375 29.875C30.7292 28.5208 31.7969 26.9323 32.5781 25.1094C33.3594 23.2344 33.75 21.2812 33.75 19.25C33.75 15.0833 32.2917 11.5417 29.375 8.625C26.8229 6.07292 23.6979 4.64062 20 4.32812ZM18.75 3C23.2292 3 27.0573 4.58854 30.2344 7.76562C33.4115 10.9427 35 14.7708 35 19.25C35 23.7292 33.4115 27.5573 30.2344 30.7344C27.0573 33.9115 23.2292 35.5 18.75 35.5C15.2083 35.5 12.0052 34.4583 9.14062 32.375C6.27604 30.2917 4.32292 27.6094 3.28125 24.3281L18.75 20.5V3ZM16.25 1.75C13.75 1.85417 11.5365 2.32292 9.60938 3.15625C7.73438 3.98958 6.14583 5.1875 4.84375 6.75C2.44792 9.5625 1.25 12.8698 1.25 16.6719C1.25 18.651 1.5625 20.474 2.1875 22.1406L16.25 18.5469V1.75ZM17.5 0.5V19.5625L1.48438 23.625C1.06771 22.8958 0.729167 21.9453 0.46875 20.7734C0.208333 19.6016 0.0520833 18.625 0 17.8438V16.6719C0 14.7969 0.3125 12.9479 0.9375 11.125C1.5625 9.30208 2.51302 7.57031 3.78906 5.92969C5.0651 4.28906 6.84896 2.97396 9.14062 1.98438C11.4323 0.994793 14.0625 0.5 17.0312 0.5H17.5Z" fill="#106E5B"/>
</svg>