<svg width="31" height="30" viewBox="0 0 31 30" fill="none" xmlns="http://www.w3.org/2000/svg">
<path d="M10.2656 9.6875C10.2656 9.6875 10.6302 9.32292 11.3594 8.59375C12.0885 7.86458 13.4948 7.5 15.5781 7.5C17.6615 7.5 19.4323 8.22917 20.8906 9.6875C22.349 11.1458 23.0781 12.9167 23.0781 15C23.0781 17.0833 22.349 18.8542 20.8906 20.3125C19.4323 21.7708 17.6615 22.5 15.5781 22.5C13.4948 22.5 11.724 21.7708 10.2656 20.3125C8.80729 18.8542 8.07812 17.0833 8.07812 15C8.07812 12.9167 8.80729 11.1458 10.2656 9.6875ZM11.1641 19.4141C11.1641 19.4141 11.4701 19.7201 12.082 20.332C12.694 20.944 13.8594 21.25 15.5781 21.25C17.2969 21.25 18.7682 20.638 19.9922 19.4141C21.2161 18.1901 21.8281 16.7188 21.8281 15C21.8281 13.2812 21.2161 11.8099 19.9922 10.5859C18.7682 9.36198 17.2969 8.75 15.5781 8.75C13.8594 8.75 12.388 9.36198 11.1641 10.5859C9.9401 11.8099 9.32812 13.2812 9.32812 15C9.32812 16.7188 9.9401 18.1901 11.1641 19.4141ZM11.2812 1.48438C10.5 1.74479 9.71875 2.05729 8.9375 2.42188C9.04167 2.83854 9.04167 3.46354 8.9375 4.29688C8.78125 5.33854 8.3125 6.25 7.53125 7.03125C6.54167 8.02083 5.34375 8.51562 3.9375 8.51562C3.46875 8.51562 3.13021 8.48958 2.92188 8.4375C2.55729 9.21875 2.24479 10 1.98438 10.7812C2.40104 11.0417 2.84375 11.4844 3.3125 12.1094C3.9375 12.9427 4.25 13.9062 4.25 15C4.25 16.0417 3.9375 17.0052 3.3125 17.8906C2.84375 18.5156 2.40104 18.9583 1.98438 19.2188C2.24479 20 2.55729 20.7812 2.92188 21.5625C3.13021 21.5104 3.46875 21.4844 3.9375 21.4844C5.34375 21.4844 6.54167 21.9792 7.53125 22.9688C8.3125 23.75 8.78125 24.6615 8.9375 25.7031C9.04167 26.5365 9.04167 27.1615 8.9375 27.5781C9.71875 27.9427 10.5 28.2552 11.2812 28.5156C11.5417 28.099 11.9844 27.6562 12.6094 27.1875C13.4948 26.5625 14.4583 26.25 15.5 26.25C16.5938 26.25 17.5573 26.5625 18.3906 27.1875C19.0156 27.6562 19.4583 28.099 19.7188 28.5156C20.5 28.2552 21.2812 27.9427 22.0625 27.5781C21.9583 27.1615 21.9583 26.5365 22.0625 25.7031C22.2188 24.6615 22.6875 23.75 23.4688 22.9688C24.4583 21.9792 25.6562 21.4844 27.0625 21.4844C27.5312 21.4844 27.8698 21.5104 28.0781 21.5625C28.4427 20.7812 28.7552 20 29.0156 19.2188C28.599 18.9583 28.1562 18.5156 27.6875 17.8906C27.0625 17.0052 26.75 16.0417 26.75 15C26.75 13.9062 27.0625 12.9427 27.6875 12.1094C28.1562 11.4844 28.599 11.0417 29.0156 10.7812C28.7552 10 28.4427 9.21875 28.0781 8.4375C27.8698 8.48958 27.5312 8.51562 27.0625 8.51562C25.6562 8.51562 24.4583 8.02083 23.4688 7.03125C22.6875 6.25 22.2188 5.33854 22.0625 4.29688C21.9583 3.46354 21.9583 2.83854 22.0625 2.42188C21.2812 2.05729 20.5 1.74479 19.7188 1.48438C19.4583 1.90104 19.0156 2.34375 18.3906 2.8125C17.5573 3.4375 16.5938 3.75 15.5 3.75C14.4583 3.75 13.4948 3.4375 12.6094 2.8125C11.9844 2.34375 11.5417 1.90104 11.2812 1.48438ZM19.0938 0C20.7604 0.416666 22.2448 1.04167 23.5469 1.875C22.8177 3.48958 23.0781 4.92188 24.3281 6.17188C25.0573 6.90104 25.9688 7.26562 27.0625 7.26562C27.6875 7.26562 28.2083 7.16146 28.625 6.95312C29.4583 8.25521 30.0833 9.73958 30.5 11.4062C28.8333 12.0312 28 13.2292 28 15C28 16.7708 28.8333 17.9688 30.5 18.5938C30.0833 20.2604 29.4583 21.7448 28.625 23.0469C28.2083 22.8385 27.6875 22.7344 27.0625 22.7344C25.9688 22.7344 25.0573 23.099 24.3281 23.8281C23.0781 25.0781 22.8177 26.5104 23.5469 28.125C22.2448 28.9583 20.7604 29.5833 19.0938 30C18.4688 28.3333 17.2708 27.5 15.5 27.5C13.7292 27.5 12.5312 28.3333 11.9062 30C10.2396 29.5833 8.75521 28.9583 7.45312 28.125C8.18229 26.5104 7.92188 25.0781 6.67188 23.8281C5.94271 23.099 5.03125 22.7344 3.9375 22.7344C3.3125 22.7344 2.79167 22.8385 2.375 23.0469C1.54167 21.7448 0.916667 20.2604 0.5 18.5938C2.16667 17.9688 3 16.7708 3 15C3 13.2292 2.16667 12.0312 0.5 11.4062C0.916667 9.73958 1.54167 8.25521 2.375 6.95312C2.79167 7.16146 3.3125 7.26562 3.9375 7.26562C5.03125 7.26562 5.94271 6.90104 6.67188 6.17188C7.92188 4.92188 8.18229 3.48958 7.45312 1.875C8.75521 1.04167 10.2396 0.416666 11.9062 0C12.5312 1.66667 13.7292 2.5 15.5 2.5C17.2708 2.5 18.4688 1.66667 19.0938 0Z" fill="#106E5B"/>
</svg>