<svg width="55" height="55" viewBox="0 0 55 55" fill="none" xmlns="http://www.w3.org/2000/svg">
<path d="M30.9375 8.70117V30.9375V32.2266L29.6484 32.6562L10.3125 37.4902C10.957 38.8509 11.709 40.14 12.5684 41.3574C13.929 43.2194 15.3971 44.7233 16.9727 45.8691C20.625 48.5189 24.707 49.8438 29.2188 49.8438C32.0117 49.8438 34.6973 49.3066 37.2754 48.2324C39.7819 47.1582 41.9661 45.6901 43.8281 43.8281C45.6901 41.9661 47.1582 39.7819 48.2324 37.2754C49.3066 34.6973 49.8438 32.0117 49.8438 29.2188C49.8438 23.4896 47.8385 18.6198 43.8281 14.6094C40.319 11.1003 36.0221 9.13086 30.9375 8.70117ZM29.2188 6.875C35.3776 6.875 40.6413 9.05924 45.0098 13.4277C49.3783 17.7962 51.5625 23.0599 51.5625 29.2188C51.5625 35.3776 49.3783 40.6413 45.0098 45.0098C40.6413 49.3783 35.3776 51.5625 29.2188 51.5625C24.349 51.5625 19.9447 50.1302 16.0059 47.2656C12.0671 44.401 9.38151 40.7129 7.94922 36.2012L29.2188 30.9375V6.875ZM25.7812 5.15625C22.3438 5.29948 19.3001 5.94401 16.6504 7.08984C14.0723 8.23568 11.888 9.88281 10.0977 12.0312C6.80339 15.8984 5.15625 20.446 5.15625 25.6738C5.15625 28.3952 5.58594 30.9017 6.44531 33.1934L25.7812 28.252V5.15625ZM27.5 3.4375V29.6484L5.47852 35.2344C4.9056 34.2318 4.4401 32.9248 4.08203 31.3135C3.72396 29.7021 3.50911 28.3594 3.4375 27.2852V25.6738C3.4375 23.0957 3.86719 20.5534 4.72656 18.0469C5.58594 15.5404 6.8929 13.1592 8.64746 10.9033C10.402 8.64746 12.8548 6.83919 16.0059 5.47852C19.1569 4.11784 22.7734 3.4375 26.8555 3.4375H27.5Z" fill="white"/>
</svg>