<svg width="60" height="60" viewBox="0 0 60 60" fill="none" xmlns="http://www.w3.org/2000/svg">
<path d="M23.3698 23.2708C23.3698 23.2708 23.8316 22.809 24.7552 21.8854C25.6788 20.9618 27.4601 20.5 30.099 20.5C32.7378 20.5 34.9809 21.4236 36.8281 23.2708C38.6753 25.1181 39.599 27.3611 39.599 30C39.599 32.6389 38.6753 34.8819 36.8281 36.7292C34.9809 38.5764 32.7378 39.5 30.099 39.5C27.4601 39.5 25.217 38.5764 23.3698 36.7292C21.5226 34.8819 20.599 32.6389 20.599 30C20.599 27.3611 21.5226 25.1181 23.3698 23.2708ZM24.5078 35.5911C24.5078 35.5911 24.8954 35.9787 25.6706 36.7539C26.4457 37.5291 27.9219 37.9167 30.099 37.9167C32.276 37.9167 34.1398 37.1415 35.6901 35.5911C37.2405 34.0408 38.0156 32.1771 38.0156 30C38.0156 27.8229 37.2405 25.9592 35.6901 24.4089C34.1398 22.8585 32.276 22.0833 30.099 22.0833C27.9219 22.0833 26.0582 22.8585 24.5078 24.4089C22.9575 25.9592 22.1823 27.8229 22.1823 30C22.1823 32.1771 22.9575 34.0408 24.5078 35.5911ZM24.6563 12.8802C23.6667 13.2101 22.6771 13.6059 21.6875 14.0677C21.8194 14.5955 21.8194 15.3872 21.6875 16.4427C21.4896 17.7622 20.8958 18.9167 19.9063 19.9062C18.6528 21.1597 17.1354 21.7865 15.3542 21.7865C14.7604 21.7865 14.3316 21.7535 14.0677 21.6875C13.6059 22.6771 13.2101 23.6667 12.8802 24.6562C13.408 24.9861 13.9688 25.5469 14.5625 26.3385C15.3542 27.3941 15.75 28.6146 15.75 30C15.75 31.3194 15.3542 32.5399 14.5625 33.6615C13.9688 34.4531 13.408 35.0139 12.8802 35.3437C13.2101 36.3333 13.6059 37.3229 14.0677 38.3125C14.3316 38.2465 14.7604 38.2135 15.3542 38.2135C17.1354 38.2135 18.6528 38.8403 19.9063 40.0937C20.8958 41.0833 21.4896 42.2378 21.6875 43.5573C21.8194 44.6128 21.8194 45.4045 21.6875 45.9323C22.6771 46.3941 23.6667 46.7899 24.6563 47.1198C24.9861 46.592 25.5469 46.0312 26.3385 45.4375C27.4601 44.6458 28.6806 44.25 30 44.25C31.3854 44.25 32.6059 44.6458 33.6615 45.4375C34.4531 46.0312 35.0139 46.592 35.3438 47.1198C36.3333 46.7899 37.3229 46.3941 38.3125 45.9323C38.1806 45.4045 38.1806 44.6128 38.3125 43.5573C38.5104 42.2378 39.1042 41.0833 40.0938 40.0937C41.3472 38.8403 42.8646 38.2135 44.6458 38.2135C45.2396 38.2135 45.6684 38.2465 45.9323 38.3125C46.3941 37.3229 46.7899 36.3333 47.1198 35.3437C46.592 35.0139 46.0313 34.4531 45.4375 33.6615C44.6458 32.5399 44.25 31.3194 44.25 30C44.25 28.6146 44.6458 27.3941 45.4375 26.3385C46.0313 25.5469 46.592 24.9861 47.1198 24.6562C46.7899 23.6667 46.3941 22.6771 45.9323 21.6875C45.6684 21.7535 45.2396 21.7865 44.6458 21.7865C42.8646 21.7865 41.3472 21.1597 40.0938 19.9062C39.1042 18.9167 38.5104 17.7622 38.3125 16.4427C38.1806 15.3872 38.1806 14.5955 38.3125 14.0677C37.3229 13.6059 36.3333 13.2101 35.3438 12.8802C35.0139 13.408 34.4531 13.9687 33.6615 14.5625C32.6059 15.3542 31.3854 15.75 30 15.75C28.6806 15.75 27.4601 15.3542 26.3385 14.5625C25.5469 13.9687 24.9861 13.408 24.6563 12.8802ZM34.5521 11C36.6632 11.5278 38.5434 12.3194 40.1927 13.375C39.2691 15.4201 39.599 17.2344 41.1823 18.8177C42.1059 19.7413 43.2604 20.2031 44.6458 20.2031C45.4375 20.2031 46.0972 20.0712 46.625 19.8073C47.6806 21.4566 48.4722 23.3368 49 25.4479C46.8889 26.2396 45.8333 27.7569 45.8333 30C45.8333 32.2431 46.8889 33.7604 49 34.5521C48.4722 36.6632 47.6806 38.5434 46.625 40.1927C46.0972 39.9288 45.4375 39.7969 44.6458 39.7969C43.2604 39.7969 42.1059 40.2587 41.1823 41.1823C39.599 42.7656 39.2691 44.5799 40.1927 46.625C38.5434 47.6806 36.6632 48.4722 34.5521 49C33.7604 46.8889 32.2431 45.8333 30 45.8333C27.7569 45.8333 26.2396 46.8889 25.4479 49C23.3368 48.4722 21.4566 47.6806 19.8073 46.625C20.7309 44.5799 20.401 42.7656 18.8177 41.1823C17.8941 40.2587 16.7396 39.7969 15.3542 39.7969C14.5625 39.7969 13.9028 39.9288 13.375 40.1927C12.3194 38.5434 11.5278 36.6632 11 34.5521C13.1111 33.7604 14.1667 32.2431 14.1667 30C14.1667 27.7569 13.1111 26.2396 11 25.4479C11.5278 23.3368 12.3194 21.4566 13.375 19.8073C13.9028 20.0712 14.5625 20.2031 15.3542 20.2031C16.7396 20.2031 17.8941 19.7413 18.8177 18.8177C20.401 17.2344 20.7309 15.4201 19.8073 13.375C21.4566 12.3194 23.3368 11.5278 25.4479 11C26.2396 13.1111 27.7569 14.1667 30 14.1667C32.2431 14.1667 33.7604 13.1111 34.5521 11Z" fill="white"/>
</svg>