<svg width="60" height="60" viewBox="0 0 60 60" fill="none" xmlns="http://www.w3.org/2000/svg">
<path d="M57 21.25C57 21.0156 56.9361 20.7943 56.8082 20.5859C56.6804 20.3776 56.5142 20.2214 56.3097 20.1172H56.233L30.5369 10.1172C30.4602 10.0911 30.3771 10.0651 30.2876 10.0391C30.1982 10.013 30.1023 10 30 10C29.8977 10 29.8018 10.013 29.7124 10.0391C29.6229 10.0651 29.5398 10.0911 29.4631 10.1172L3.76705 20.1172H3.69034C3.4858 20.2214 3.3196 20.3711 3.19176 20.5664C3.06392 20.7617 3 20.9766 3 21.2109C3 21.4714 3.06392 21.6992 3.19176 21.8945C3.3196 22.0898 3.4858 22.2396 3.69034 22.3438H3.76705L6.06818 23.2422L4.53409 35.1953C4.07386 35.3776 3.70313 35.6771 3.42188 36.0938C3.14062 36.5104 3 36.9792 3 37.5C3 38.1771 3.2429 38.763 3.72869 39.2578C4.21449 39.7526 4.78977 40 5.45455 40C6.14489 40 6.72656 39.7526 7.19957 39.2578C7.67259 38.763 7.90909 38.1771 7.90909 37.5C7.90909 37.1094 7.82599 36.7383 7.6598 36.3867C7.49361 36.0352 7.26989 35.7552 6.98864 35.5469V35.5078L8.44602 24.2188L12.5881 25.8203L10.3636 43.5938C10.3636 43.5938 10.3636 43.6003 10.3636 43.6133C10.3636 43.6263 10.3636 43.6458 10.3636 43.6719C10.3636 43.6719 10.3636 43.6849 10.3636 43.7109C10.3636 43.737 10.3636 43.75 10.3636 43.75C10.3636 44.0885 10.4851 44.3815 10.728 44.6289C10.9709 44.8763 11.2585 45 11.5909 45C11.6165 45 11.6357 45 11.6484 45C11.6612 45 11.6804 45 11.706 45C11.7315 45 11.7571 45 11.7827 45C11.8082 45 11.8338 45 11.8594 45L21.0639 42.6562L29.2713 49.7656C29.3736 49.8438 29.4886 49.9023 29.6165 49.9414C29.7443 49.9805 29.8722 50 30 50C30.1278 50 30.2493 49.9805 30.3643 49.9414C30.4794 49.9023 30.5753 49.8438 30.652 49.7656L40.0866 42.5781L49.3679 45C49.3935 45 49.419 45 49.4446 45C49.4702 45 49.483 45 49.483 45C49.5085 45 49.5341 45 49.5597 45C49.5852 45 49.6108 45 49.6364 45C49.9688 45 50.2564 44.8763 50.4993 44.6289C50.7422 44.3815 50.8636 44.0885 50.8636 43.75C50.8636 43.724 50.8636 43.7044 50.8636 43.6914C50.8636 43.6784 50.8636 43.6589 50.8636 43.6328C50.8636 43.6068 50.8636 43.5872 50.8636 43.5742C50.8636 43.5612 50.8636 43.5417 50.8636 43.5156L47.5653 25.7812L56.1563 22.3828H56.233C56.4631 22.3047 56.6484 22.1615 56.7891 21.9531C56.9297 21.7448 57 21.5104 57 21.25ZM48.0639 42.0703L40.0866 40C40.0611 40 40.0355 40 40.0099 40C39.9844 40 39.9716 40 39.9716 40C39.946 40 39.9205 40 39.8949 40C39.8693 40 39.8438 40 39.8182 40C39.6903 40 39.5689 40.0195 39.4538 40.0586C39.3388 40.0977 39.2429 40.1562 39.1662 40.2344L30 47.1484L22.1378 40.2344C22.0355 40.1562 21.9205 40.0977 21.7926 40.0586C21.6648 40.0195 21.5369 40 21.4091 40C21.3835 40 21.3643 40 21.3516 40C21.3388 40 21.3196 40 21.294 40C21.2685 40 21.2429 40 21.2173 40C21.1918 40 21.1662 40 21.1406 40L13.0099 42.1094L14.9276 26.7188L29.4631 32.3828C29.5398 32.4089 29.6229 32.4349 29.7124 32.4609C29.8018 32.487 29.8977 32.5 30 32.5C30.1023 32.5 30.1982 32.487 30.2876 32.4609C30.3771 32.4349 30.4602 32.4089 30.5369 32.3828L45.2642 26.6797L48.0639 42.0703ZM30 29.9219L7.67898 21.25L30 12.5781L52.321 21.25L30 29.9219Z" fill="white"/>
</svg>