<svg width="40" height="32" viewBox="0 0 40 32" fill="none" xmlns="http://www.w3.org/2000/svg">
<path d="M38.2422 16L39.1016 16.8594L35.0391 21L30.8984 16.8594L31.6797 16L35.0391 19.2031L38.2422 16ZM35.9766 16C35.9766 16.7292 35.9505 17.276 35.8984 17.6406L34.6484 17.5625C34.7005 17.1979 34.7266 16.651 34.7266 15.9219C34.6745 11.9115 33.2161 8.47396 30.3516 5.60938C27.487 2.74479 24.0495 1.3125 20.0391 1.3125C17.3828 1.3125 14.9089 1.98958 12.6172 3.34375C10.3255 4.69792 8.52865 6.52083 7.22656 8.8125L6.13281 8.1875C7.53906 5.6875 9.49219 3.70833 11.9922 2.25C14.4922 0.791666 17.1745 0.0625 20.0391 0.0625C24.4141 0.0625 28.151 1.61198 31.25 4.71094C34.349 7.8099 35.9245 11.5208 35.9766 15.8438V16ZM32.8516 23.1875L33.9453 23.8125C32.5391 26.3125 30.5859 28.2917 28.0859 29.75C25.5859 31.2083 22.9036 31.9375 20.0391 31.9375C15.7161 31.9375 12.0052 30.4141 8.90625 27.3672C5.80729 24.3203 4.20573 20.6354 4.10156 16.3125V16.0781V16C4.10156 15.2708 4.1276 14.724 4.17969 14.3594L5.42969 14.4375C5.3776 14.8021 5.35156 15.349 5.35156 16.0781C5.35156 20.0885 6.79688 23.526 9.6875 26.3906C12.5781 29.2552 16.0286 30.6875 20.0391 30.6875C22.6953 30.6875 25.1693 30.0104 27.4609 28.6562C29.7526 27.3021 31.5495 25.4792 32.8516 23.1875ZM5.03906 11L9.10156 15.1406L8.24219 16L5.03906 12.7969L1.75781 16L0.898438 15.1406L5.03906 11Z" fill="#106E5B"/>
</svg>