<svg width="30" height="30" viewBox="0 0 30 30" fill="none" xmlns="http://www.w3.org/2000/svg">
<path d="M28.75 1.25H1.25V28.75H28.75V1.25ZM30 0V30H0V0H30ZM10 8.125V6.875H25V8.125H10ZM10 15.625V14.375H25V15.625H10ZM10 23.125V21.875H25V23.125H10ZM6.25 8.75C6.25 8.75 6.04167 8.75 5.625 8.75C5.20833 8.75 5 8.33333 5 7.5C5 6.66667 5.41667 6.25 6.25 6.25C7.08333 6.25 7.5 6.66667 7.5 7.5C7.5 8.33333 7.08333 8.75 6.25 8.75ZM6.25 16.25C6.25 16.25 6.04167 16.25 5.625 16.25C5.20833 16.25 5 15.8333 5 15C5 14.1667 5.41667 13.75 6.25 13.75C7.08333 13.75 7.5 14.1667 7.5 15C7.5 15.8333 7.08333 16.25 6.25 16.25ZM6.25 23.75C6.25 23.75 6.04167 23.75 5.625 23.75C5.20833 23.75 5 23.3333 5 22.5C5 21.6667 5.41667 21.25 6.25 21.25C7.08333 21.25 7.5 21.6667 7.5 22.5C7.5 23.3333 7.08333 23.75 6.25 23.75Z" fill="#106E5B"/>
</svg>