<svg width="55" height="55" viewBox="0 0 55 55" fill="none" xmlns="http://www.w3.org/2000/svg">
<path d="M52.583 27.5L53.7646 28.6816L48.1787 34.375L42.4854 28.6816L43.5596 27.5L48.1787 31.9043L52.583 27.5ZM49.4678 27.5C49.4678 28.5026 49.432 29.2546 49.3604 29.7559L47.6416 29.6484C47.7132 29.1471 47.749 28.3952 47.749 27.3926C47.6774 21.8783 45.6722 17.1517 41.7334 13.2129C37.7946 9.27409 33.068 7.30469 27.5537 7.30469C23.9014 7.30469 20.4997 8.23568 17.3486 10.0977C14.1976 11.9596 11.7269 14.4661 9.93652 17.6172L8.43262 16.7578C10.3662 13.3203 13.0518 10.599 16.4893 8.59375C19.9268 6.58854 23.6149 5.58594 27.5537 5.58594C33.5693 5.58594 38.7077 7.71647 42.9688 11.9775C47.2298 16.2386 49.3962 21.3411 49.4678 27.2852V27.5ZM45.1709 37.3828L46.6748 38.2422C44.7412 41.6797 42.0557 44.401 38.6182 46.4062C35.1807 48.4115 31.4925 49.4141 27.5537 49.4141C21.6097 49.4141 16.5072 47.3193 12.2461 43.1299C7.98503 38.9404 5.78288 33.8737 5.63965 27.9297V27.6074V27.5C5.63965 26.4974 5.67546 25.7454 5.74707 25.2441L7.46582 25.3516C7.39421 25.8529 7.3584 26.6048 7.3584 27.6074C7.3584 33.1217 9.3457 37.8483 13.3203 41.7871C17.2949 45.7259 22.0394 47.6953 27.5537 47.6953C31.2061 47.6953 34.6077 46.7643 37.7588 44.9023C40.9098 43.0404 43.3805 40.5339 45.1709 37.3828ZM6.92871 20.625L12.5146 26.3184L11.333 27.5L6.92871 23.0957L2.41699 27.5L1.23535 26.3184L6.92871 20.625Z" fill="white"/>
</svg>