<svg width="60" height="60" viewBox="0 0 60 60" fill="none" xmlns="http://www.w3.org/2000/svg">
<path d="M17.5 25.5469H19.7764C20.0958 25.5469 20.3621 25.4427 20.5751 25.2344C20.7881 25.026 20.8946 24.7656 20.8946 24.4531C20.8946 24.1406 20.7881 23.8737 20.5751 23.6523C20.3621 23.431 20.0958 23.3203 19.7764 23.3203H17.5C17.1805 23.3203 16.9076 23.431 16.6813 23.6523C16.455 23.8737 16.3419 24.1406 16.3419 24.4531C16.3419 24.7656 16.455 25.026 16.6813 25.2344C16.9076 25.4427 17.1805 25.5469 17.5 25.5469ZM52.7236 14.4531H39.0655C39.0655 13.2292 38.6262 12.181 37.7476 11.3086C36.869 10.4362 35.804 10 34.5527 10H25.4473C24.196 10 23.1243 10.4362 22.2324 11.3086C21.3405 12.181 20.8946 13.2292 20.8946 14.4531H7.27636C6.63738 14.4531 6.09824 14.668 5.65895 15.0977C5.21965 15.5273 5 16.0547 5 16.6797V47.7734C5 48.3984 5.21965 48.9258 5.65895 49.3555C6.09824 49.7852 6.63738 50 7.27636 50H52.7236C53.336 50 53.8685 49.7852 54.3211 49.3555C54.7737 48.9258 55 48.3984 55 47.7734V16.6797C55 16.0547 54.7737 15.5273 54.3211 15.0977C53.8685 14.668 53.336 14.4531 52.7236 14.4531ZM25.4473 12.2266H34.5527C35.1651 12.2266 35.6909 12.4414 36.1302 12.8711C36.5695 13.3008 36.7891 13.8281 36.7891 14.4531H23.1709C23.1709 13.8281 23.3906 13.3008 23.8299 12.8711C24.2692 12.4414 24.8083 12.2266 25.4473 12.2266ZM11.8291 41.0938C11.5096 41.0938 11.2367 41.2044 11.0104 41.4258C10.7841 41.6471 10.6709 41.9141 10.6709 42.2266C10.6709 42.5391 10.7841 42.7995 11.0104 43.0078C11.2367 43.2161 11.5096 43.3203 11.8291 43.3203V47.7734H7.27636V16.6797H11.8291V41.0938ZM45.8946 41.0938C45.5751 41.0938 45.3088 41.2044 45.0958 41.4258C44.8829 41.6471 44.7764 41.9141 44.7764 42.2266C44.7764 42.5391 44.8829 42.7995 45.0958 43.0078C45.3088 43.2161 45.5751 43.3203 45.8946 43.3203V47.7734H14.1054V43.3203C14.3983 43.3203 14.6579 43.2161 14.8842 43.0078C15.1105 42.7995 15.2236 42.5391 15.2236 42.2266C15.2236 41.9141 15.1105 41.6471 14.8842 41.4258C14.6579 41.2044 14.3983 41.0938 14.1054 41.0938V16.6797H45.8946V41.0938ZM52.7236 47.7734H48.1709V43.3203C48.4904 43.3203 48.7567 43.2161 48.9696 43.0078C49.1826 42.7995 49.2891 42.5391 49.2891 42.2266C49.2891 41.9141 49.1826 41.6471 48.9696 41.4258C48.7567 41.2044 48.4904 41.0938 48.1709 41.0938V16.6797H52.7236V47.7734ZM17.5 21.0938H24.3291C24.6219 21.0938 24.8815 20.9896 25.1078 20.7812C25.3341 20.5729 25.4473 20.3125 25.4473 20C25.4473 19.6875 25.3341 19.4271 25.1078 19.2188C24.8815 19.0104 24.6219 18.9062 24.3291 18.9062H17.5C17.1805 18.9062 16.9076 19.0104 16.6813 19.2188C16.455 19.4271 16.3419 19.6875 16.3419 20C16.3419 20.3125 16.455 20.5729 16.6813 20.7812C16.9076 20.9896 17.1805 21.0938 17.5 21.0938Z" fill="white"/>
</svg>