<svg width="60" height="60" viewBox="0 0 60 60" fill="none" xmlns="http://www.w3.org/2000/svg">
<path d="M33.75 9.49219V33.75V35.1562L32.3438 35.625L11.25 40.8984C11.9531 42.3828 12.7734 43.7891 13.7109 45.1172C15.1953 47.1484 16.7969 48.7891 18.5156 50.0391C22.5 52.9297 26.9531 54.375 31.875 54.375C34.9219 54.375 37.8516 53.7891 40.6641 52.6172C43.3984 51.4453 45.7812 49.8438 47.8125 47.8125C49.8438 45.7812 51.4453 43.3984 52.6172 40.6641C53.7891 37.8516 54.375 34.9219 54.375 31.875C54.375 25.625 52.1875 20.3125 47.8125 15.9375C43.9844 12.1094 39.2969 9.96094 33.75 9.49219ZM31.875 7.5C38.5938 7.5 44.3359 9.88281 49.1016 14.6484C53.8672 19.4141 56.25 25.1562 56.25 31.875C56.25 38.5938 53.8672 44.3359 49.1016 49.1016C44.3359 53.8672 38.5938 56.25 31.875 56.25C26.5625 56.25 21.7578 54.6875 17.4609 51.5625C13.1641 48.4375 10.2344 44.4141 8.67188 39.4922L31.875 33.75V7.5ZM28.125 5.625C24.375 5.78125 21.0547 6.48438 18.1641 7.73438C15.3516 8.98438 12.9688 10.7812 11.0156 13.125C7.42188 17.3438 5.625 22.3047 5.625 28.0078C5.625 30.9766 6.09375 33.7109 7.03125 36.2109L28.125 30.8203V5.625ZM30 3.75V32.3438L5.97656 38.4375C5.35156 37.3438 4.84375 35.918 4.45312 34.1602C4.0625 32.4023 3.82812 30.9375 3.75 29.7656V28.0078C3.75 25.1953 4.21875 22.4219 5.15625 19.6875C6.09375 16.9531 7.51953 14.3555 9.43359 11.8945C11.3477 9.43359 14.0234 7.46094 17.4609 5.97656C20.8984 4.49219 24.8438 3.75 29.2969 3.75H30Z" fill="#106E5B"/>
</svg>