<svg width="55" height="55" viewBox="0 0 55 55" fill="none" xmlns="http://www.w3.org/2000/svg">
<path d="M20.3027 20.1953C20.3027 20.1953 20.804 19.694 21.8066 18.6914C22.8092 17.6888 24.7428 17.1875 27.6074 17.1875C30.472 17.1875 32.9069 18.1901 34.9121 20.1953C36.9173 22.2005 37.9199 24.6354 37.9199 27.5C37.9199 30.3646 36.9173 32.7995 34.9121 34.8047C32.9069 36.8099 30.472 37.8125 27.6074 37.8125C24.7428 37.8125 22.3079 36.8099 20.3027 34.8047C18.2975 32.7995 17.2949 30.3646 17.2949 27.5C17.2949 24.6354 18.2975 22.2005 20.3027 20.1953ZM21.5381 33.5693C21.5381 33.5693 21.9588 33.9901 22.8003 34.8315C23.6418 35.673 25.2441 36.0938 27.6074 36.0938C29.9707 36.0938 31.9938 35.2523 33.6768 33.5693C35.3597 31.8864 36.2012 29.8633 36.2012 27.5C36.2012 25.1367 35.3597 23.1136 33.6768 21.4307C31.9938 19.7477 29.9707 18.9062 27.6074 18.9062C25.2441 18.9062 23.221 19.7477 21.5381 21.4307C19.8551 23.1136 19.0137 25.1367 19.0137 27.5C19.0137 29.8633 19.8551 31.8864 21.5381 33.5693ZM21.6992 8.91602C20.625 9.27409 19.5508 9.70378 18.4766 10.2051C18.6198 10.778 18.6198 11.6374 18.4766 12.7832C18.2617 14.2155 17.6172 15.4688 16.543 16.543C15.1823 17.9036 13.5352 18.584 11.6016 18.584C10.957 18.584 10.4915 18.5482 10.2051 18.4766C9.70378 19.5508 9.27409 20.625 8.91602 21.6992C9.48893 22.0573 10.0977 22.666 10.7422 23.5254C11.6016 24.6712 12.0312 25.9961 12.0312 27.5C12.0312 28.9323 11.6016 30.2572 10.7422 31.4746C10.0977 32.334 9.48893 32.9427 8.91602 33.3008C9.27409 34.375 9.70378 35.4492 10.2051 36.5234C10.4915 36.4518 10.957 36.416 11.6016 36.416C13.5352 36.416 15.1823 37.0964 16.543 38.457C17.6172 39.5312 18.2617 40.7845 18.4766 42.2168C18.6198 43.3626 18.6198 44.222 18.4766 44.7949C19.5508 45.2962 20.625 45.7259 21.6992 46.084C22.0573 45.5111 22.666 44.9023 23.5254 44.2578C24.7428 43.3984 26.0677 42.9688 27.5 42.9688C29.0039 42.9688 30.3288 43.3984 31.4746 44.2578C32.334 44.9023 32.9427 45.5111 33.3008 46.084C34.375 45.7259 35.4492 45.2962 36.5234 44.7949C36.3802 44.222 36.3802 43.3626 36.5234 42.2168C36.7383 40.7845 37.3828 39.5312 38.457 38.457C39.8177 37.0964 41.4648 36.416 43.3984 36.416C44.043 36.416 44.5085 36.4518 44.7949 36.5234C45.2962 35.4492 45.7259 34.375 46.084 33.3008C45.5111 32.9427 44.9023 32.334 44.2578 31.4746C43.3984 30.2572 42.9688 28.9323 42.9688 27.5C42.9688 25.9961 43.3984 24.6712 44.2578 23.5254C44.9023 22.666 45.5111 22.0573 46.084 21.6992C45.7259 20.625 45.2962 19.5508 44.7949 18.4766C44.5085 18.5482 44.043 18.584 43.3984 18.584C41.4648 18.584 39.8177 17.9036 38.457 16.543C37.3828 15.4688 36.7383 14.2155 36.5234 12.7832C36.3802 11.6374 36.3802 10.778 36.5234 10.2051C35.4492 9.70378 34.375 9.27409 33.3008 8.91602C32.9427 9.48893 32.334 10.0977 31.4746 10.7422C30.3288 11.6016 29.0039 12.0312 27.5 12.0312C26.0677 12.0312 24.7428 11.6016 23.5254 10.7422C22.666 10.0977 22.0573 9.48893 21.6992 8.91602ZM32.4414 6.875C34.7331 7.44792 36.7741 8.30729 38.5645 9.45312C37.5618 11.6732 37.9199 13.6426 39.6387 15.3613C40.6413 16.3639 41.8945 16.8652 43.3984 16.8652C44.2578 16.8652 44.974 16.722 45.5469 16.4355C46.6927 18.2259 47.5521 20.2669 48.125 22.5586C45.8333 23.418 44.6875 25.0651 44.6875 27.5C44.6875 29.9349 45.8333 31.582 48.125 32.4414C47.5521 34.7331 46.6927 36.7741 45.5469 38.5645C44.974 38.278 44.2578 38.1348 43.3984 38.1348C41.8945 38.1348 40.6413 38.6361 39.6387 39.6387C37.9199 41.3574 37.5618 43.3268 38.5645 45.5469C36.7741 46.6927 34.7331 47.5521 32.4414 48.125C31.582 45.8333 29.9349 44.6875 27.5 44.6875C25.0651 44.6875 23.418 45.8333 22.5586 48.125C20.2669 47.5521 18.2259 46.6927 16.4355 45.5469C17.4382 43.3268 17.0801 41.3574 15.3613 39.6387C14.3587 38.6361 13.1055 38.1348 11.6016 38.1348C10.7422 38.1348 10.026 38.278 9.45312 38.5645C8.30729 36.7741 7.44792 34.7331 6.875 32.4414C9.16667 31.582 10.3125 29.9349 10.3125 27.5C10.3125 25.0651 9.16667 23.418 6.875 22.5586C7.44792 20.2669 8.30729 18.2259 9.45312 16.4355C10.026 16.722 10.7422 16.8652 11.6016 16.8652C13.1055 16.8652 14.3587 16.3639 15.3613 15.3613C17.0801 13.6426 17.4382 11.6732 16.4355 9.45312C18.2259 8.30729 20.2669 7.44792 22.5586 6.875C23.418 9.16667 25.0651 10.3125 27.5 10.3125C29.9349 10.3125 31.582 9.16667 32.4414 6.875Z" fill="white"/>
</svg>