<svg width="60" height="60" viewBox="0 0 60 60" fill="none" xmlns="http://www.w3.org/2000/svg">
<path d="M57.3633 30L58.6523 31.2891L52.5586 37.5L46.3477 31.2891L47.5195 30L52.5586 34.8047L57.3633 30ZM53.9648 30C53.9648 31.0938 53.9258 31.9141 53.8477 32.4609L51.9727 32.3438C52.0508 31.7969 52.0898 30.9766 52.0898 29.8828C52.0117 23.8672 49.8242 18.7109 45.5273 14.4141C41.2305 10.1172 36.0742 7.96875 30.0586 7.96875C26.0742 7.96875 22.3633 8.98438 18.9258 11.0156C15.4883 13.0469 12.793 15.7812 10.8398 19.2188L9.19922 18.2812C11.3086 14.5312 14.2383 11.5625 17.9883 9.375C21.7383 7.1875 25.7617 6.09375 30.0586 6.09375C36.6211 6.09375 42.2266 8.41797 46.875 13.0664C51.5234 17.7148 53.8867 23.2812 53.9648 29.7656V30ZM49.2773 40.7812L50.918 41.7188C48.8086 45.4688 45.8789 48.4375 42.1289 50.625C38.3789 52.8125 34.3555 53.9062 30.0586 53.9062C23.5742 53.9062 18.0078 51.6211 13.3594 47.0508C8.71094 42.4805 6.30859 36.9531 6.15234 30.4688V30.1172V30C6.15234 28.9062 6.19141 28.0859 6.26953 27.5391L8.14453 27.6562C8.06641 28.2031 8.02734 29.0234 8.02734 30.1172C8.02734 36.1328 10.1953 41.2891 14.5312 45.5859C18.8672 49.8828 24.043 52.0312 30.0586 52.0312C34.043 52.0312 37.7539 51.0156 41.1914 48.9844C44.6289 46.9531 47.3242 44.2188 49.2773 40.7812ZM7.55859 22.5L13.6523 28.7109L12.3633 30L7.55859 25.1953L2.63672 30L1.34766 28.7109L7.55859 22.5Z" fill="#106E5B"/>
</svg>