<svg width="60" height="60" viewBox="0 0 60 60" fill="none" xmlns="http://www.w3.org/2000/svg">
<path d="M22.1484 22.0312C22.1484 22.0312 22.6953 21.4844 23.7891 20.3906C24.8828 19.2969 26.9922 18.75 30.1172 18.75C33.2422 18.75 35.8984 19.8438 38.0859 22.0312C40.2734 24.2188 41.3672 26.875 41.3672 30C41.3672 33.125 40.2734 35.7812 38.0859 37.9688C35.8984 40.1562 33.2422 41.25 30.1172 41.25C26.9922 41.25 24.3359 40.1562 22.1484 37.9688C19.9609 35.7812 18.8672 33.125 18.8672 30C18.8672 26.875 19.9609 24.2188 22.1484 22.0312ZM23.4961 36.6211C23.4961 36.6211 23.9551 37.0801 24.873 37.998C25.791 38.916 27.5391 39.375 30.1172 39.375C32.6953 39.375 34.9023 38.457 36.7383 36.6211C38.5742 34.7852 39.4922 32.5781 39.4922 30C39.4922 27.4219 38.5742 25.2148 36.7383 23.3789C34.9023 21.543 32.6953 20.625 30.1172 20.625C27.5391 20.625 25.332 21.543 23.4961 23.3789C21.6602 25.2148 20.7422 27.4219 20.7422 30C20.7422 32.5781 21.6602 34.7852 23.4961 36.6211ZM23.6719 9.72656C22.5 10.1172 21.3281 10.5859 20.1562 11.1328C20.3125 11.7578 20.3125 12.6953 20.1562 13.9453C19.9219 15.5078 19.2188 16.875 18.0469 18.0469C16.5625 19.5312 14.7656 20.2734 12.6562 20.2734C11.9531 20.2734 11.4453 20.2344 11.1328 20.1562C10.5859 21.3281 10.1172 22.5 9.72656 23.6719C10.3516 24.0625 11.0156 24.7266 11.7188 25.6641C12.6562 26.9141 13.125 28.3594 13.125 30C13.125 31.5625 12.6562 33.0078 11.7188 34.3359C11.0156 35.2734 10.3516 35.9375 9.72656 36.3281C10.1172 37.5 10.5859 38.6719 11.1328 39.8438C11.4453 39.7656 11.9531 39.7266 12.6562 39.7266C14.7656 39.7266 16.5625 40.4688 18.0469 41.9531C19.2188 43.125 19.9219 44.4922 20.1562 46.0547C20.3125 47.3047 20.3125 48.2422 20.1562 48.8672C21.3281 49.4141 22.5 49.8828 23.6719 50.2734C24.0625 49.6484 24.7266 48.9844 25.6641 48.2812C26.9922 47.3438 28.4375 46.875 30 46.875C31.6406 46.875 33.0859 47.3438 34.3359 48.2812C35.2734 48.9844 35.9375 49.6484 36.3281 50.2734C37.5 49.8828 38.6719 49.4141 39.8438 48.8672C39.6875 48.2422 39.6875 47.3047 39.8438 46.0547C40.0781 44.4922 40.7812 43.125 41.9531 41.9531C43.4375 40.4688 45.2344 39.7266 47.3438 39.7266C48.0469 39.7266 48.5547 39.7656 48.8672 39.8438C49.4141 38.6719 49.8828 37.5 50.2734 36.3281C49.6484 35.9375 48.9844 35.2734 48.2812 34.3359C47.3438 33.0078 46.875 31.5625 46.875 30C46.875 28.3594 47.3438 26.9141 48.2812 25.6641C48.9844 24.7266 49.6484 24.0625 50.2734 23.6719C49.8828 22.5 49.4141 21.3281 48.8672 20.1562C48.5547 20.2344 48.0469 20.2734 47.3438 20.2734C45.2344 20.2734 43.4375 19.5312 41.9531 18.0469C40.7812 16.875 40.0781 15.5078 39.8438 13.9453C39.6875 12.6953 39.6875 11.7578 39.8438 11.1328C38.6719 10.5859 37.5 10.1172 36.3281 9.72656C35.9375 10.3516 35.2734 11.0156 34.3359 11.7188C33.0859 12.6562 31.6406 13.125 30 13.125C28.4375 13.125 26.9922 12.6562 25.6641 11.7188C24.7266 11.0156 24.0625 10.3516 23.6719 9.72656ZM35.3906 7.5C37.8906 8.125 40.1172 9.0625 42.0703 10.3125C40.9766 12.7344 41.3672 14.8828 43.2422 16.7578C44.3359 17.8516 45.7031 18.3984 47.3438 18.3984C48.2812 18.3984 49.0625 18.2422 49.6875 17.9297C50.9375 19.8828 51.875 22.1094 52.5 24.6094C50 25.5469 48.75 27.3438 48.75 30C48.75 32.6562 50 34.4531 52.5 35.3906C51.875 37.8906 50.9375 40.1172 49.6875 42.0703C49.0625 41.7578 48.2812 41.6016 47.3438 41.6016C45.7031 41.6016 44.3359 42.1484 43.2422 43.2422C41.3672 45.1172 40.9766 47.2656 42.0703 49.6875C40.1172 50.9375 37.8906 51.875 35.3906 52.5C34.4531 50 32.6562 48.75 30 48.75C27.3438 48.75 25.5469 50 24.6094 52.5C22.1094 51.875 19.8828 50.9375 17.9297 49.6875C19.0234 47.2656 18.6328 45.1172 16.7578 43.2422C15.6641 42.1484 14.2969 41.6016 12.6562 41.6016C11.7188 41.6016 10.9375 41.7578 10.3125 42.0703C9.0625 40.1172 8.125 37.8906 7.5 35.3906C10 34.4531 11.25 32.6562 11.25 30C11.25 27.3438 10 25.5469 7.5 24.6094C8.125 22.1094 9.0625 19.8828 10.3125 17.9297C10.9375 18.2422 11.7188 18.3984 12.6562 18.3984C14.2969 18.3984 15.6641 17.8516 16.7578 16.7578C18.6328 14.8828 19.0234 12.7344 17.9297 10.3125C19.8828 9.0625 22.1094 8.125 24.6094 7.5C25.5469 10 27.3438 11.25 30 11.25C32.6562 11.25 34.4531 10 35.3906 7.5Z" fill="#106E5B"/>
</svg>