<svg width="38" height="60" viewBox="0 0 38 60" fill="none" xmlns="http://www.w3.org/2000/svg">
<path d="M6.74298 2.23415C7.14622 2.55934 6.97711 2.78047 6.35274 2.78047C5.63732 2.78047 5.19505 2.97558 5.05197 3.36581C4.97392 3.56093 4.86986 3.678 4.79181 3.62597C4.62271 3.52191 4.14142 3.96417 4.14142 4.22433C4.14142 4.3414 4.05037 4.69261 3.9333 5.00479C3.63412 5.8503 3.51705 6.91693 3.66014 7.48928C3.72518 7.76244 3.82924 7.98358 3.88127 7.98358C3.92029 7.98358 3.97232 8.06162 3.98533 8.13967C4.07638 9.12826 4.57068 10.4811 5.14302 11.3395C5.29912 11.5737 5.52025 12.068 5.65032 12.4453C5.76739 12.8225 5.96251 13.2127 6.09259 13.3168C6.37876 13.5509 6.92508 14.5525 7.05516 15.0338C7.15923 15.463 8.05676 16.1134 8.36895 15.9964C8.48602 15.9573 8.69414 15.9833 8.83723 16.0484C9.13641 16.2175 9.17543 16.8549 8.90227 17.128C8.77219 17.2581 8.73317 17.4273 8.79821 17.6353C8.88926 17.9735 9.57867 18.9622 10.112 19.5344C10.4112 19.8596 10.4242 19.8596 10.5933 19.6256C10.7624 19.3914 10.7884 19.3914 10.9835 19.5865C11.1526 19.7556 11.2567 19.7686 11.4388 19.6516C11.6339 19.5344 11.738 19.5605 12.0632 19.8726C12.2713 20.0808 12.5704 20.5101 12.7135 20.8483C13.0257 21.5767 13.533 22.084 14.1835 22.2791C14.4826 22.3832 14.9118 22.7084 15.3151 23.1506C15.6663 23.5409 15.9915 23.8531 16.0305 23.8531C16.0696 23.8531 16.2257 23.6189 16.3687 23.3327C16.6679 22.7474 16.8891 22.6563 16.8891 23.1116C16.8891 23.4628 16.2517 24.1002 15.0809 24.9067L14.2484 25.4791L12.8956 25.518C11.816 25.5571 11.4778 25.531 11.2177 25.3619C11.0095 25.2189 10.5022 25.1279 9.76078 25.0758C8.40798 24.9977 7.53645 24.7766 7.38036 24.4774C7.31532 24.3473 7.1202 24.1002 6.9511 23.9051C6.31372 23.2027 6.22267 23.0726 6.22267 22.8905C6.22267 22.6433 5.65032 22.2921 5.24709 22.2921C5.02595 22.2921 4.88287 22.2011 4.80482 21.9929C4.73978 21.8238 4.58369 21.6157 4.46661 21.5117C4.33654 21.4076 4.19345 21.2125 4.14142 21.0563C4.05037 20.8353 4.02435 20.8353 4.02435 21.0174C4.01134 21.1475 3.95931 21.2515 3.88127 21.2515C3.75119 21.2515 3.29592 20.4711 3.33494 20.315C3.34795 20.2629 3.17885 19.7035 2.95772 19.0792C2.0992 16.6728 2.03416 16.2955 2.00815 13.759C1.98213 12.4583 2.02116 10.9883 2.0862 10.5071C2.45041 7.55432 2.61951 6.63077 2.91869 5.64218C3.60811 3.37883 4.73978 2 5.91048 2C6.24868 2 6.56087 2.09106 6.74298 2.23415ZM31.861 2.20813C31.9521 2.31219 32.1862 2.49429 32.3813 2.58535C32.5894 2.70242 32.9406 3.13167 33.2138 3.63897C34.3195 5.61616 34.8268 8.30877 34.9308 12.7574C35.0089 15.8533 34.9048 16.8809 34.3845 18.0646C34.2934 18.2728 34.0853 18.8971 33.9292 19.4304C33.552 20.7052 33.3829 21.0174 32.9276 21.2385C32.5634 21.4206 32.1731 21.8629 32.1731 22.097C32.1731 22.162 31.9521 22.2531 31.6919 22.3051C31.1716 22.3832 30.8073 22.6173 30.8073 22.8645C30.8073 22.9555 30.6643 23.1636 30.4821 23.3327C30.3 23.5018 30.157 23.6839 30.157 23.723C30.157 23.9181 29.2854 24.7116 28.9212 24.8676C28.7131 24.9457 27.9587 25.0498 27.2432 25.0758C26.3456 25.1279 25.9034 25.2058 25.7343 25.3489C25.4352 25.6221 23.1458 25.6221 22.6124 25.3489C21.3117 24.6725 20.0109 23.5148 20.0109 23.0206C20.0109 22.5783 20.5442 22.9815 20.7133 23.5539C20.8304 23.9051 21.1556 23.9442 21.2726 23.6189C21.4157 23.2027 22.4563 22.3311 22.9117 22.2401C23.4709 22.136 23.9263 21.6547 24.3815 20.6922C24.7848 19.8077 25.24 19.4304 25.6043 19.6646C25.7864 19.7816 25.8774 19.7686 25.9944 19.6256C26.2026 19.3784 26.3847 19.3784 26.3847 19.6256C26.3847 19.8987 26.6059 19.8726 26.879 19.5735C27.3343 19.0792 27.9456 18.1686 28.1408 17.7004C28.3229 17.2712 28.3229 17.2191 28.1408 17.2191C27.9977 17.2191 27.9456 17.076 27.9456 16.6467C27.9456 16.0354 28.1408 15.8403 28.622 15.9964C28.7521 16.0354 28.9602 15.9964 29.0773 15.9053C29.1814 15.8142 29.3895 15.6712 29.5456 15.5931C29.6887 15.5281 29.8578 15.2809 29.9099 15.0728C30.0529 14.5655 30.5082 13.72 30.8854 13.3168C31.0415 13.1347 31.2366 12.7574 31.3146 12.4713C31.3927 12.185 31.5878 11.7428 31.7439 11.4956C32.2512 10.6762 32.7325 9.59655 32.8235 9.01119C32.8756 8.69901 33.0056 8.25674 33.1097 8.04861C33.4479 7.38522 33.461 6.20151 33.1617 5.32999C33.0056 4.90073 32.8886 4.45847 32.8886 4.3414C32.8886 4.06823 32.4203 3.62597 32.1342 3.62597C32.004 3.62597 31.9 3.5089 31.874 3.3398C31.8219 3.02761 31.2757 2.78047 30.6122 2.78047C30.3781 2.78047 30.1179 2.70242 30.0399 2.59836C29.9099 2.44226 29.9488 2.36422 30.2481 2.20813C30.7293 1.94797 31.6398 1.93496 31.861 2.20813ZM30.3911 27.2481C30.6773 27.7554 30.4041 31.1244 30.0659 31.2285C29.9879 31.2545 29.8838 31.0594 29.8318 30.7602C29.7017 30.0057 29.5456 30.0968 29.4415 30.9683C29.3245 31.9959 29.1293 32.5683 28.9082 32.5683C28.7781 32.5683 28.7261 32.4122 28.7261 32.0479C28.7261 31.4236 28.531 31.3585 28.4139 31.9439C28.2448 32.8155 28.0627 33.3488 27.9456 33.3488C27.8676 33.3488 27.8156 33.2316 27.8156 33.1016C27.8156 32.9585 27.7635 32.8155 27.6985 32.7764C27.6335 32.7374 27.3993 33.3877 27.1652 34.2332C26.6449 36.1844 26.6709 36.1063 26.5147 36.0153C26.4498 35.9763 26.3847 35.508 26.3847 34.9747C26.3847 34.4414 26.3326 33.9861 26.2677 33.9471C26.2026 33.908 26.0725 34.1813 25.9815 34.5584C25.7213 35.6771 24.3815 38.6819 24.1604 38.6819C24.0824 38.6819 24.0563 38.2397 24.1084 37.5372C24.1994 36.1454 24.0563 36.3796 23.51 38.5388C23.3149 39.3453 23.1197 40.0477 23.0678 40.0868C22.8857 40.2689 22.8726 39.8916 23.0027 38.3567C23.1458 36.5096 23.1718 34.4284 23.0548 34.5584C23.0027 34.5975 22.8596 35.3259 22.7296 36.1714C22.4043 38.2006 21.4678 41.5437 21.2336 41.5437C21.0125 41.5437 21.0125 41.4916 21.2336 39.9046C21.6499 37.056 21.6239 34.5195 21.1686 34.5195C20.9865 34.5195 20.9475 34.6625 20.6613 36.8739C20.5183 37.9925 20.258 39.6315 20.0759 40.503C19.8938 41.3875 19.7507 42.116 19.7507 42.142C19.7507 42.168 19.6987 42.194 19.6337 42.194C19.5556 42.194 19.4906 40.7111 19.4646 38.6429C19.4256 35.9633 19.3735 34.9877 19.2304 34.5975C18.8402 33.5568 18.5931 33.8431 18.1768 35.8332C17.9427 36.9909 17.8646 37.9405 17.8126 40.3729C17.7995 40.7632 17.7736 40.7892 17.6175 40.6331C17.1882 40.1779 16.4988 36.7827 16.4988 35.0917C16.4988 34.4674 16.4467 33.9992 16.3687 33.9992C16.2517 33.9992 15.9264 34.9747 15.7834 35.8202C15.7314 36.0804 15.8484 37.3421 16.0305 38.6429C16.3818 41.1144 16.4598 42.2071 16.2517 41.9859C16.0305 41.7517 14.9509 38.1876 14.6257 36.5747C14.4436 35.6771 14.2875 34.5975 14.2875 34.1813C14.2875 33.1276 14.1314 32.9195 13.7802 33.4788C13.4159 34.0902 13.3249 34.8186 13.442 36.4836C13.494 37.4072 13.481 37.9015 13.4029 37.9015C13.2729 37.9015 13.1818 37.6933 12.4013 35.5211C11.9201 34.1422 11.751 34.3374 11.764 36.2885C11.764 37.095 11.738 37.7714 11.6859 37.7714C11.5038 37.7714 10.7364 35.6121 10.5542 34.5584C10.4372 33.9601 10.3071 33.4788 10.2421 33.4788C10.177 33.4788 10.125 33.895 10.125 34.4023C10.125 35.3259 9.9689 35.5211 9.81281 34.7796C9.77379 34.5584 9.64371 34.0641 9.53964 33.687C9.37054 33.1016 9.2925 32.9976 9.08438 33.0495C8.88926 33.1016 8.81121 32.9976 8.64211 32.4252C8.52504 32.0479 8.43399 31.6577 8.43399 31.5667C8.43399 31.4756 8.38195 31.3976 8.31692 31.3976C8.18684 31.3976 8.04375 32.0219 8.04375 32.5813C8.04375 32.7764 7.99172 32.9715 7.91368 33.0235C7.80962 33.0886 7.70555 32.8155 7.4584 31.7228C7.38036 31.3846 7.35434 31.3715 7.25028 31.5667C6.97711 32.0349 6.782 31.8009 6.59989 30.7732C6.36575 29.4854 6.36575 28.0675 6.59989 27.5213C6.782 27.079 7.09419 26.9619 7.19824 27.3001C7.40637 27.9375 7.36735 27.9245 7.73157 27.6383C8.17383 27.2871 8.43399 27.4692 8.43399 28.1196C8.43399 28.4838 8.47301 28.5489 8.59008 28.4318C8.86324 28.1586 9.09738 28.2627 9.2925 28.7439C9.43558 29.0952 9.52664 29.1863 9.64371 29.0692C9.89086 28.822 10.2421 28.9001 10.3331 29.2513C10.4372 29.6415 10.4502 29.6415 10.7884 29.3033C11.0225 29.0692 11.0876 29.0562 11.2307 29.1993C11.4518 29.4464 11.816 30.5781 11.816 31.0333C11.816 31.5797 12.0111 31.4756 12.2713 30.7732C12.5705 29.9667 12.8176 29.5765 13.0387 29.5765C13.1428 29.5765 13.442 29.9277 13.7151 30.3569C14.0013 30.7862 14.2484 31.1374 14.2875 31.1374C14.3265 31.1374 14.4566 30.9033 14.5736 30.6171C14.6908 30.3179 14.8729 30.0968 14.9899 30.0968C15.25 30.0968 15.6403 30.7212 15.9264 31.5537C16.3037 32.7113 16.6158 32.6464 16.9021 31.3325C16.9931 30.9033 17.1102 30.448 17.1752 30.3179C17.3703 29.9277 17.7346 30.2789 18.0597 31.1634C18.2158 31.6187 18.476 32.113 18.6191 32.2821L18.8922 32.5683L19.2434 32.2301C19.4386 32.0349 19.7247 31.6057 19.8808 31.2545C20.0239 30.9033 20.206 30.6171 20.2711 30.6171C20.4532 30.6171 20.6613 31.0724 20.7653 31.6837C20.8174 31.9829 20.9214 32.2431 20.9995 32.2691C21.0775 32.2951 21.3897 31.9049 21.6889 31.3976C22.2482 30.461 22.4433 30.3439 22.6775 30.8512C22.7426 31.0073 22.8466 31.1374 22.8987 31.1374C22.9506 31.1374 23.1848 30.8122 23.419 30.422C23.9522 29.5375 24.1994 29.4984 24.5116 30.2919C24.6286 30.6171 24.7718 30.8773 24.8107 30.8773C24.8498 30.8773 25.0319 30.526 25.188 30.0968C25.3571 29.6675 25.5782 29.3163 25.6692 29.3163C25.7604 29.3163 25.9425 29.5765 26.0855 29.9017C26.2156 30.2269 26.3587 30.487 26.3977 30.487C26.4368 30.487 26.5408 30.2399 26.6319 29.9407C26.9831 28.77 27.0091 28.731 27.2823 28.9781C27.5164 29.1863 27.5294 29.1732 27.6725 28.6009C27.8286 27.9765 28.0107 27.8725 28.2708 28.2366C28.4139 28.4318 28.4529 28.4187 28.6481 28.0416C28.8952 27.5602 28.9472 27.5472 29.2594 27.8335C29.4675 28.0156 29.4936 27.9895 29.6366 27.5343C29.7277 27.2611 29.8318 26.988 29.8578 26.9359C29.9618 26.7668 30.209 26.9099 30.3911 27.2481ZM27.6335 38.0055C27.8156 38.5128 27.8676 39.1372 27.8936 41.7647C27.9196 44.7045 27.9066 44.9387 27.6725 45.2378C27.4774 45.472 27.4253 45.7582 27.4253 46.4476C27.4253 47.254 27.3863 47.3841 27.1001 47.6313C26.892 47.8134 26.775 48.0475 26.775 48.3077C26.775 48.5288 26.7229 48.802 26.6579 48.932C26.5798 49.0492 26.4888 49.4263 26.4498 49.7645C26.3977 50.1938 26.2807 50.4409 26.0855 50.5841C25.9034 50.7141 25.7994 50.9353 25.7734 51.2475C25.7604 51.5076 25.6043 51.9369 25.4352 52.197C25.2661 52.4572 25.0709 52.8084 25.0189 52.9904C24.8758 53.4718 24.6807 53.6539 24.4206 53.5758C24.1604 53.4848 24.1084 53.6279 23.9782 54.6815C23.8482 55.7221 23.5881 56.1514 23.1588 56.0733C22.9636 56.0473 22.7166 55.9823 22.6124 55.9302C22.4824 55.8782 22.3393 55.9823 22.1962 56.2424C21.923 56.7237 21.7799 56.7237 21.3897 56.3074C20.9865 55.8652 20.7653 55.9042 20.4792 56.4245C20.154 57.0229 19.9329 57.0879 19.5426 56.6977C19.1394 56.2944 18.9573 56.2944 18.5801 56.6977C18.1638 57.1399 17.8906 57.1009 17.4744 56.5546C17.2142 56.2164 17.0842 56.1253 16.9801 56.2294C16.7069 56.5026 16.3167 56.3725 15.7834 55.8522C15.3021 55.3839 15.2241 55.3449 15.0679 55.527C14.6777 55.9953 14.1444 55.605 13.9623 54.6815C13.9102 54.4343 13.8062 54.1222 13.7411 53.9921C13.6241 53.7709 13.5981 53.7579 13.3769 53.9661C13.1558 54.1742 13.1298 54.1612 12.9477 53.875C12.8436 53.7189 12.6875 53.3416 12.5965 53.0685C12.5054 52.7824 12.3234 52.3791 12.2062 52.1579C12.0762 51.9369 11.9331 51.5466 11.894 51.2864C11.842 51.0133 11.6989 50.6621 11.5558 50.4799C11.4128 50.2978 11.2957 50.0247 11.2957 49.8816C11.2957 49.7125 11.1786 49.5565 10.9835 49.4784C10.7494 49.3874 10.6453 49.2312 10.5803 48.802C10.5282 48.4898 10.4242 48.1256 10.3461 47.9825C10.19 47.7223 9.99492 46.7858 9.73477 45.1858C9.64371 44.6394 9.51363 44.2753 9.35754 44.1452C8.82422 43.7159 8.91528 40.8282 9.51363 38.6949C9.66973 38.1486 9.86484 37.7063 9.92988 37.7063C10.0079 37.7063 10.086 38.4868 10.125 39.6575C10.177 41.3485 10.216 41.5566 10.3591 41.2444C10.6453 40.5941 10.7754 40.9713 10.6843 42.2071C10.6193 43.2086 10.6323 43.3647 10.8144 43.3647C10.9315 43.3647 11.0616 43.2866 11.1266 43.1956C11.2437 43.0265 11.3607 44.0411 11.5038 46.3955C11.5558 47.3321 11.6339 47.7874 11.738 47.7483C11.816 47.7223 12.0241 47.3191 12.1932 46.8378C12.3623 46.3565 12.5444 45.9663 12.5965 45.9663C12.7526 45.9663 12.8566 46.8638 12.8566 48.4377C12.8566 49.8947 12.8566 49.9336 13.2078 50.2068L13.572 50.493L13.7932 48.906C14.0793 46.9679 14.1444 46.6167 14.2875 46.6167C14.4306 46.6167 14.5086 47.15 14.7557 49.8686C14.8599 51.1173 15.0029 52.197 15.0679 52.2621C15.133 52.327 15.237 52.119 15.3281 51.8067C15.6403 50.545 15.8745 50.3629 16.0305 51.2605C16.1996 52.249 16.6679 53.6539 16.811 53.6018C16.8891 53.5758 16.9671 53.3546 16.9801 53.1076C17.2273 49.3874 17.5264 46.7207 17.7085 46.5256C17.9167 46.3175 17.9817 46.7728 18.0858 49.1922C18.2028 51.8588 18.45 53.7709 18.7231 54.1091C18.9703 54.4083 19.0353 54.2001 19.3605 52.0149C19.5166 50.9353 19.6987 49.9466 19.7507 49.8035C19.8418 49.5695 19.8678 49.5824 20.0109 49.9336C20.0889 50.1417 20.3101 51.0003 20.4792 51.8197C20.7914 53.2636 20.8694 53.4848 20.9735 53.3677C20.9995 53.3416 21.1556 52.7043 21.3247 51.9499C21.5329 50.9612 21.6108 50.1678 21.6108 49.1141C21.6108 48.1386 21.6499 47.6573 21.7409 47.6963C22.0011 47.7743 22.3393 49.5044 22.5475 51.7287C22.5994 52.223 22.6515 52.6003 22.6905 52.5742C22.7166 52.5482 22.8596 51.9239 23.0157 51.1954C23.1718 50.4539 23.3539 49.8816 23.4319 49.9077C23.51 49.9336 23.64 50.2198 23.7442 50.558C23.8352 50.8962 23.9392 51.1694 23.9522 51.1694C23.9652 51.1694 23.9913 50.4669 24.0043 49.6214C24.0173 48.0215 24.1084 47.5792 24.3295 47.9695C24.3945 48.0865 24.5376 48.1776 24.6546 48.1776C24.8237 48.1776 24.8498 48.0605 24.7718 47.4882C24.5506 45.6151 24.5376 45.3158 24.6546 45.3158C24.7197 45.3158 24.9018 45.7191 25.0709 46.2264C25.2661 46.8378 25.4222 47.137 25.5652 47.137C25.7343 47.137 25.7604 46.9549 25.7083 45.7712C25.6433 44.3793 25.7083 44.1842 26.1116 44.5614C26.2546 44.7045 26.2677 44.5224 26.2026 43.5208C26.1246 42.5322 26.1506 42.3241 26.3067 42.3241C26.3977 42.3241 26.5278 42.4151 26.5668 42.5322C26.6059 42.6363 26.6969 42.7013 26.7489 42.6623C26.814 42.6233 26.7619 41.9599 26.6319 41.1925C26.3717 39.7355 26.3977 39.3843 26.6969 39.5014C26.84 39.5534 26.905 39.3453 26.9701 38.5128C27.1001 37.0039 27.2302 36.9129 27.6335 38.0055Z" fill="#009999" stroke="black" stroke-width="0.4"/>
</svg>
