<svg width="20" height="22" viewBox="0 0 20 22" fill="none" xmlns="http://www.w3.org/2000/svg">
<path d="M5.74504 11.9235L5.69315 11.6789L5.74505 11.9235L5.78291 11.9155C5.89768 11.8911 5.98584 11.8724 6.06617 11.8594C8.39898 11.482 10.7353 11.2673 13.0665 11.3655C13.4823 11.383 13.8336 11.0601 13.8511 10.6443C13.8686 10.2285 13.5458 9.87728 13.13 9.85976C10.6663 9.75596 8.22299 9.9838 5.82549 10.3717L5.86542 10.6185L5.82549 10.3717C5.70553 10.3911 5.58038 10.4177 5.47356 10.4405L5.47086 10.4411L5.43223 10.4493C5.30778 10.4757 5.20205 10.4972 5.10293 10.5114C4.99867 10.5264 4.92644 10.5292 4.87821 10.5268C4.83344 10.5245 4.81685 10.518 4.81683 10.5181C4.43854 10.3452 3.99167 10.5116 3.81851 10.8898C3.64528 11.2682 3.81159 11.7154 4.18998 11.8886C4.59993 12.0763 5.02966 12.0446 5.31758 12.0031C5.47142 11.981 5.62105 11.9498 5.74504 11.9235ZM10.2752 0.865365C9.9227 0.644129 9.4576 0.750526 9.23637 1.10301C9.01513 1.4555 9.12153 1.92059 9.47401 2.14182C11.0731 3.14547 12.576 4.37743 14.0357 5.65081C14.0479 5.90182 14.1853 6.14141 14.4214 6.27313C14.57 6.35607 14.7187 6.43483 14.8413 6.48715C14.8923 6.5089 14.9947 6.55105 15.1119 6.57033C15.1598 6.57822 15.311 6.60128 15.4885 6.545C15.5896 6.51292 15.7201 6.4482 15.8318 6.32219C15.9471 6.19213 16.0019 6.04241 16.0188 5.90941C16.0475 5.68245 15.9668 5.51103 15.9439 5.46335C15.9101 5.39324 15.8717 5.33804 15.8465 5.30405C15.7947 5.23417 15.7332 5.16723 15.677 5.10964C15.5606 4.99027 15.3939 4.83675 15.1787 4.64822C13.6581 3.31646 12.0341 1.96935 10.2752 0.865365ZM14.084 16.566C14.4335 16.3401 14.5337 15.8737 14.3078 15.5242C14.082 15.1746 13.6155 15.0744 13.266 15.3003C11.1286 16.6817 8.953 17.9154 6.74452 19.1676C6.15376 19.5025 5.56064 19.8388 4.96583 20.1794C4.60467 20.3861 4.4795 20.8465 4.68627 21.2077C4.89303 21.5688 5.35343 21.694 5.71459 21.4872C6.29995 21.1521 6.88653 20.8196 7.47391 20.4865L7.47457 20.4862L7.47752 20.4845C9.68647 19.2321 11.9064 17.9734 14.084 16.566Z" fill="#007CFF" stroke="#007CFF" stroke-width="0.5" stroke-linecap="round"/>
</svg>