<svg width="20" height="20" viewBox="0 0 20 20" fill="none" xmlns="http://www.w3.org/2000/svg">
<path d="M7.77492 18.9185C7.7577 18.9058 7.73387 18.8882 7.70013 18.8633L7.4832 18.7029C5.19612 17.01 3.02948 15.2418 0.958489 13.2447C0.678802 12.9749 0.680825 12.5348 0.96268 12.2674L1.13472 12.4488L0.962681 12.2674C1.23823 12.0061 1.67882 12.0078 1.95222 12.2715L1.77868 12.4514L1.95223 12.2715C3.96896 14.2163 6.08627 15.9455 8.3381 17.6123L8.52141 17.7478L8.59876 17.805C8.73359 17.8498 8.85754 17.9353 8.94723 18.0594C8.96719 18.087 8.99991 18.1348 9.02667 18.1787C9.02677 18.1788 9.02688 18.179 9.02698 18.1792L9.02723 18.1796L7.77492 18.9185ZM7.77492 18.9185L7.97129 19.0816C7.97157 19.0818 7.97185 19.082 7.97214 19.0823L8.15534 19.2343L8.18262 19.2043C8.20041 19.2109 8.21992 19.2174 8.241 19.2233M7.77492 18.9185L9.10205 18.3318C9.10934 18.3519 9.13724 18.4289 9.1421 18.5311C9.14454 18.5825 9.14487 18.7004 9.08516 18.8351C9.01356 18.9967 8.86616 19.1526 8.64612 19.2191C8.46179 19.2747 8.30817 19.242 8.241 19.2233M8.241 19.2233C8.241 19.2233 8.24099 19.2233 8.24099 19.2233L8.27454 19.103M8.241 19.2233L8.27456 19.103M8.27454 19.103L8.27456 19.103M8.27454 19.103L8.29313 19.0364L8.27454 19.103ZM8.27456 19.103L8.31609 19.0572L8.27456 19.103ZM7.84862 18.6622L7.81151 18.6347C7.78251 18.6877 7.78119 18.7362 7.78087 18.7484C7.78082 18.7503 7.7808 18.7522 7.78079 18.754C7.7807 18.7944 7.7908 18.8252 7.7918 18.8283L7.79187 18.8285C7.7967 18.8442 7.80219 18.8561 7.8031 18.8581L7.80319 18.8583C7.80517 18.8627 7.807 18.8663 7.80819 18.8687L7.81615 18.8641L7.93885 18.7289C7.91968 18.7146 7.89185 18.6941 7.8491 18.6625L7.84862 18.6622ZM8.81443 18.3108L9.02733 18.1798L8.81443 18.3108ZM14.8094 2.37299C15.062 2.34338 15.3245 2.29639 15.5628 2.25373L15.5665 2.25307C15.6475 2.23858 15.7255 2.2246 15.8007 2.21171C16.1153 2.15775 16.3865 2.12097 16.6339 2.12097C17.0129 2.12097 17.3393 1.82446 17.3393 1.43548C17.3393 1.0465 17.0129 0.75 16.6339 0.75C16.2565 0.75 15.884 0.805266 15.5554 0.861612C15.4624 0.87757 15.3728 0.893602 15.2866 0.909027L15.2863 0.909089C15.0528 0.950863 14.8458 0.987824 14.6404 1.01188C11.9253 1.33002 9.24462 1.7775 6.64692 2.83555C6.29189 2.98015 6.11324 3.38286 6.27232 3.74008C6.42856 4.09092 6.8425 4.24243 7.19237 4.09993C9.60619 3.11678 12.1303 2.68689 14.8094 2.37299ZM5.65817 8.63557C5.30495 8.50169 4.89467 8.66292 4.74751 9.01802C4.5978 9.37928 4.78726 9.77706 5.1454 9.9128C7.54338 10.8217 9.94836 11.6561 12.6366 11.9726C14.2572 12.1634 15.8964 12.2822 17.5446 12.2822C17.9236 12.2822 18.25 11.9857 18.25 11.5968C18.25 11.2078 17.9236 10.9113 17.5446 10.9113C15.9655 10.9113 14.3844 10.7974 12.8063 10.6116C10.3066 10.3173 8.04232 9.53925 5.65817 8.63557Z" fill="#FFEF00" stroke="#FFEF00" stroke-width="0.5" stroke-linecap="round"/>
</svg>