<svg width="26" height="16" viewBox="0 0 26 16" fill="none" xmlns="http://www.w3.org/2000/svg">
<path d="M13.0001 0.418823C13.2259 0.418823 13.4255 0.505786 13.5989 0.679436L24.8468 12.5758C25.0203 12.7494 25.1071 12.9492 25.1071 13.175C25.1071 13.4007 25.0209 13.6006 24.8473 13.7742L23.5448 15.077C23.3712 15.2501 23.1714 15.3369 22.9453 15.3369C22.7199 15.3369 22.52 15.2506 22.3464 15.077L13.0001 5.0821L2.76143 15.3206C2.58778 15.4943 2.38794 15.5811 2.16219 15.5811C1.93643 15.5811 1.73659 15.4943 1.56294 15.3206L0.260612 14.0184C0.086962 13.8448 0 13.6451 0 13.4192C0 13.1934 0.0866883 12.9938 0.260612 12.8199L12.4009 0.679436C12.5745 0.505786 12.7744 0.418823 13.0001 0.418823Z" fill="white"/>
</svg>
