<svg width="30" height="26" viewBox="0 0 30 26" fill="none" xmlns="http://www.w3.org/2000/svg">
<path d="M15.0001 5.41882C15.2259 5.41882 15.4255 5.50579 15.5989 5.67944L26.8468 17.5758C27.0203 17.7494 27.1071 17.9492 27.1071 18.175C27.1071 18.4007 27.0209 18.6006 26.8473 18.7742L25.5448 20.077C25.3712 20.2501 25.1714 20.3369 24.9453 20.3369C24.7199 20.3369 24.52 20.2506 24.3464 20.077L15.0001 10.0821L4.76143 20.3206C4.58778 20.4943 4.38794 20.5811 4.16219 20.5811C3.93643 20.5811 3.73659 20.4943 3.56294 20.3206L2.26061 19.0184C2.08696 18.8448 2 18.6451 2 18.4192C2 18.1934 2.08669 17.9938 2.26061 17.8199L14.4009 5.67944C14.5745 5.50579 14.7744 5.41882 15.0001 5.41882Z" fill="black"/>
</svg>
