<svg width="40" height="15" viewBox="0 0 40 15" fill="none" xmlns="http://www.w3.org/2000/svg">
<path d="M39.8208 8.22397C39.707 8.01253 39.3514 7.44567 39.3514 7.44567C39.804 4.98107 38.7694 4.51021 38.3982 3.86163C38.0257 3.21305 36.2952 1.93275 36.7169 1.56047C37.1359 1.18689 37.1204 1.0896 37.1204 1.0896C36.0469 0.874272 34.773 0.712129 33.3904 0.596682C33.1757 0.421436 32.6739 0.0595251 32.1838 0.0219076C31.5371 -0.0273844 22.1825 0.0219076 22.1825 0.0219076C22.1825 0.0219076 20.9771 0.153054 20.6938 0.54739C18.6905 0.682294 17.1812 0.876867 16.6212 1.0896C14.7458 1.80304 10.0252 4.39735 10.0252 4.39735C2.15788 4.77612 1.48923 6.50523 1.48923 6.50523C0.75591 7.30428 0.519231 8.32126 0.519231 8.32126C0.519231 8.32126 -0.256764 8.73246 0.0885548 9.9427C0.43258 11.153 1.25255 12.061 1.25255 12.061C1.55389 12.2127 1.68323 12.9041 1.68323 12.9041C2.13589 13.2077 3.53656 13.0131 3.53656 13.0131C3.53656 13.0131 2.76057 8.03977 7.09321 7.95416C11.4259 7.86725 10.9628 12.2776 10.9628 12.2776H28.0244C28.0244 12.2776 27.5498 7.86725 31.8824 7.97492C36.2151 8.08388 35.5192 12.2776 35.5192 12.2776C35.5192 12.2776 39.0449 11.5797 39.6424 11.0946C40.24 10.6068 39.9334 8.43541 39.8208 8.22397ZM1.87205 6.57009L4.11856 6.50523L4.02803 6.67776L2.86403 6.74262L2.2497 7.38082C2.2497 7.38082 1.45043 7.42492 0.944737 7.89968C0.944737 7.89968 1.4027 6.85158 1.87205 6.57009ZM3.91421 6.83471L2.74505 7.58058L2.53424 7.60782L3.07355 6.86714L3.91421 6.83471ZM1.74789 11.3047C1.58623 11.3449 1.06889 11.2554 1.06889 11.2554C1.06889 11.2554 0.867136 11.2399 0.777896 11.0206C0.688657 10.8014 0.349805 10.0724 0.349805 10.0724C0.349805 10.0724 0.245046 9.87006 0.414472 9.87006H1.03656C1.03656 9.87006 1.3198 9.90249 1.47371 10.2268C1.62632 10.5511 1.83713 10.948 1.83713 10.948C1.83713 10.948 1.90956 11.2645 1.74789 11.3047ZM4.69797 6.6426L2.53954 8.02926C2.10757 7.85544 0.858211 8.18233 0.796131 8.1979C1.08454 7.93847 2.46711 7.80226 2.46711 7.80226C2.46711 7.80226 4.24544 6.80474 4.36701 6.61925C4.48858 6.43259 4.25449 6.42468 4.25449 6.42468L1.65102 6.48045C1.65102 6.48045 3.16292 6.26123 4.09153 6.28588C5.0213 6.31066 4.69797 6.6426 4.69797 6.6426ZM39.2117 6.13814V6.39757H38.2197L37.8744 6.13814H39.2117ZM39.125 5.62965L37.304 5.68413L36.9484 5.3806H39.125V5.62965ZM38.6505 4.90584L36.1828 4.99145C36.1828 4.99145 36.0315 5.07836 36.2255 5.18603C36.4195 5.29499 38.0362 6.51561 38.0362 6.51561L39.2118 6.71265L38.0258 6.79696L35.9138 5.19757C35.9138 5.19757 35.6552 4.93814 36.0108 4.82917C36.3664 4.72164 38.6505 4.90584 38.6505 4.90584ZM36.6031 1.20894C36.6031 1.20894 36.3224 1.55398 36.3871 1.77061C36.449 1.98075 38.0296 3.6917 38.1279 3.79807L35.5684 1.44632L36.6031 1.20894ZM22.4411 0.217906C23.1525 0.217906 31.9691 0.217906 31.9691 0.217906C31.9691 0.217906 32.5084 0.329333 32.6545 0.539472C28.9078 0.272258 24.5286 0.315197 21.2564 0.510939C21.4841 0.40081 21.9406 0.217906 22.4411 0.217906ZM21.7945 0.992314C23.1227 0.880758 30.5322 1.10257 32.899 1.24007H32.9027C33.0295 1.24785 33.1408 1.25564 33.2364 1.26212H33.2429C33.2598 1.26342 33.2766 1.26459 33.2921 1.26601C33.3114 1.26731 33.3309 1.2686 33.3489 1.2712C33.3554 1.2725 33.362 1.2725 33.3671 1.2725C33.4304 1.27768 33.4823 1.28158 33.5222 1.28664C33.5364 1.28806 33.5508 1.28936 33.5624 1.29182C33.5676 1.29182 33.5714 1.29326 33.5754 1.29326C33.5922 1.29585 33.6038 1.29844 33.6129 1.30104C33.6336 1.30752 33.6556 1.31531 33.675 1.32439C33.6942 1.33217 33.7138 1.34138 33.7357 1.35305C33.7551 1.36343 33.7758 1.3738 33.7939 1.38405V1.38548C33.8004 1.38795 33.808 1.39196 33.8159 1.39715C33.909 1.45034 34.0189 1.52298 34.138 1.60729C34.2052 1.65658 34.2775 1.70834 34.3512 1.76555C34.9591 2.22993 35.6769 2.90328 35.6653 3.14832C35.6484 3.5219 34.7121 4.21977 34.7121 4.21977L22.1668 4.92672L12.1435 5.08614L13.1691 4.13027C12.9597 4.8437 13.4601 4.77884 13.6619 4.7542C13.8649 4.72955 14.2361 4.69712 14.2607 4.21977C14.2853 3.74125 14.002 3.58676 14.002 3.58676C17.5589 0.895024 20.2425 1.12203 21.7945 0.992314ZM30.3034 4.6944C30.3551 4.72929 30.8104 5.06279 30.7185 5.61279C30.6241 6.17835 30.2271 7.26277 30.2025 7.3288L30.4444 6.32623C30.4444 6.32623 30.4444 6.32622 30.5737 5.68413C30.6938 5.08355 30.3499 4.7385 30.3034 4.6944ZM29.9101 6.12374C29.9101 6.2004 29.848 6.26124 29.773 6.26124H28.1717C28.0968 6.26124 28.0346 6.20027 28.0346 6.12374C28.0346 6.04863 28.0968 5.98624 28.1717 5.98624H29.773C29.848 5.98637 29.9101 6.04863 29.9101 6.12374ZM21.3626 10.9556C21.3212 10.8494 20.3097 8.19543 21.4932 5.23C21.4932 5.23 20.9538 9.09565 21.3626 10.9556ZM20.6382 6.49745C20.6382 6.58164 20.5698 6.65052 20.4856 6.65052H18.7551C18.6698 6.65052 18.6012 6.58177 18.6012 6.49745C18.6012 6.41184 18.6698 6.34309 18.7551 6.34309H20.4856C20.5698 6.34309 20.6382 6.41184 20.6382 6.49745ZM10.0408 4.68921C10.0408 4.68921 15.3435 1.8199 16.2178 1.44632H16.6368L11.4325 4.49464C11.4325 4.49464 10.478 4.70478 10.0408 4.68921ZM35.3744 9.32655C35.3744 9.32655 33.9517 7.71548 31.9471 7.62987C29.9424 7.54296 28.4331 8.49378 27.6791 11.1971L27.6364 11.5642H11.8139C11.8139 11.5642 9.91913 9.38233 11.9212 5.34168C11.8733 5.45972 10.739 8.31607 11.9225 11.1101H27.0751C27.0751 11.1101 27.8084 7.44567 31.6237 7.38082C31.6237 7.38082 33.7901 7.54296 34.5014 8.22397C34.5014 8.22397 36.9044 7.97491 37.855 7.386C37.5227 7.65451 36.938 8.09944 36.3444 8.41854C35.5167 8.86347 38.4473 8.79342 39.4742 8.55344C38.7747 8.76086 36.6562 9.35379 35.3744 9.32655Z" fill="#009999"/>
<path d="M32.9224 1.24206C32.9028 1.24076 32.8832 1.23946 32.8623 1.23828C32.8741 1.23828 32.8871 1.23828 32.9002 1.23959C32.9068 1.23946 32.9145 1.24076 32.9224 1.24206Z" fill="#009999"/>
<path d="M34.7126 4.20605L34.7061 4.20854C34.7074 4.20723 34.7074 4.20723 34.7087 4.20605H34.7126Z" fill="#009999"/>
<path d="M35.619 3.01688C35.535 2.86252 35.4133 2.72878 35.2918 2.60049C35.0462 2.34365 34.7783 2.10744 34.5017 1.88563C34.3633 1.7742 34.2223 1.66654 34.0762 1.56406C34.0025 1.51334 33.9286 1.46405 33.8523 1.41878C33.833 1.40711 33.8135 1.39673 33.7955 1.38505V1.38363C33.7773 1.37338 33.7567 1.363 33.7373 1.35263C33.7179 1.34225 33.6971 1.33317 33.6765 1.32396C33.6571 1.31501 33.6352 1.3071 33.6145 1.30061C33.6054 1.29802 33.5938 1.29542 33.5769 1.29283C33.5731 1.29283 33.5692 1.2914 33.564 1.2914C33.5524 1.28894 33.5382 1.28764 33.5238 1.28622C33.4837 1.28116 33.432 1.27726 33.3687 1.27208C33.3983 1.27597 33.4282 1.27986 33.4578 1.28246C33.0918 1.24614 32.7221 1.23576 32.3561 1.21487L31.0936 1.16298C30.253 1.13315 29.4123 1.10591 28.5704 1.08256C26.889 1.03327 25.2051 1.00732 23.5238 1.00732C23.102 1.00992 22.6817 1.01251 22.2628 1.02549C21.8462 1.04105 21.4247 1.08139 21.0044 1.10201C20.5841 1.12796 20.1664 1.1565 19.7525 1.21358C19.5442 1.23563 19.3386 1.27843 19.1329 1.31086C18.9286 1.35626 18.7217 1.38869 18.5212 1.44576L18.2173 1.52489C18.1164 1.55213 18.0181 1.58586 17.9184 1.61699C17.8189 1.64942 17.7193 1.67796 17.6209 1.71285L17.3275 1.82323C17.1307 1.89198 16.9408 1.9789 16.7493 2.06321C16.5566 2.14234 16.3716 2.24092 16.1855 2.33431C15.9979 2.42512 15.8167 2.53032 15.6371 2.63526L15.3655 2.79221L15.1017 2.96227C14.786 3.15684 14.486 3.37723 14.186 3.59386C14.195 3.60566 14.2052 3.61851 14.2144 3.63018C14.2364 3.65612 14.2519 3.68466 14.2687 3.71333C14.2856 3.74187 14.3011 3.7704 14.3101 3.80153C14.3218 3.83124 14.3347 3.8625 14.3438 3.89234L14.3619 3.98573C14.3788 4.04786 14.3736 4.11025 14.3761 4.17122L14.3774 4.21792C14.3761 4.24517 14.3748 4.24906 14.3736 4.26592C14.3709 4.29316 14.3698 4.32039 14.3606 4.35671C14.3489 4.42806 14.3245 4.48773 14.2922 4.54986C14.2571 4.60953 14.212 4.6679 14.1562 4.71071C14.1006 4.75351 14.04 4.78595 13.9778 4.80929C13.917 4.83135 13.8549 4.84562 13.7954 4.85483C13.7359 4.8652 13.6816 4.87039 13.6248 4.87817C13.5071 4.88725 13.3765 4.90022 13.2341 4.83666C13.1655 4.80566 13.0958 4.74846 13.0608 4.67724C13.0194 4.6072 13.0078 4.53326 13.0013 4.46581V4.45543L12.4697 4.95354C13.3026 4.93667 14.1342 4.925 14.966 4.91592L17.7906 4.8783L20.6139 4.84341L22.0248 4.8316C22.4878 4.81993 22.9639 4.7888 23.4321 4.76947L29.0722 4.49447L31.8929 4.35568L34.7085 4.20663C34.8482 4.10157 34.9866 3.98859 35.1172 3.87068C35.2478 3.75121 35.3758 3.62668 35.4858 3.48931C35.5401 3.41926 35.5931 3.34662 35.6269 3.2649C35.6461 3.22598 35.654 3.18188 35.6578 3.14037C35.6578 3.09471 35.6385 3.05839 35.619 3.01688ZM21.0199 1.8676C20.9397 2.33847 20.5776 4.7434 20.5776 4.7434L14.9038 4.8342C14.9038 4.8342 14.9258 4.63963 14.4731 4.25048C14.4731 4.25048 14.4563 3.65119 14.327 3.65119C14.327 3.65119 17.3016 1.26702 21.0199 1.44603C21.0199 1.44603 21.1002 1.39673 21.0199 1.8676ZM27.8422 4.3322L22.1684 4.69022L22.4917 1.30074H27.7452C27.7452 1.30074 28.4721 2.32161 28.4721 2.80804C28.4721 3.29448 27.8422 4.3322 27.8422 4.3322ZM32.1968 3.68362L30.8919 3.7381L29.8042 1.71584L31.7222 1.79236L32.8435 3.12195L32.1968 3.68362Z" fill="#009999"/>
<path d="M33.7948 1.38344C33.7766 1.37319 33.756 1.36281 33.7366 1.35243C33.756 1.36281 33.7754 1.37319 33.7948 1.38486C33.8013 1.38733 33.8089 1.39135 33.8168 1.39654C33.8103 1.39265 33.8024 1.38746 33.7948 1.38344ZM32.8998 1.23958C32.8867 1.23828 32.8739 1.23828 32.8623 1.23828C32.883 1.23958 32.9024 1.24088 32.9218 1.24205C32.9139 1.24088 32.9063 1.23958 32.8998 1.23958Z" fill="white"/>
<path d="M34.5058 1.88027C34.4942 1.87132 34.4814 1.86094 34.4697 1.85303C34.5058 1.88286 34.5433 1.9127 34.5808 1.94253C34.5564 1.92061 34.5304 1.89986 34.5058 1.88027Z" fill="#009999"/>
<path d="M32.9224 1.24206C32.9028 1.24076 32.8832 1.23946 32.8623 1.23828C32.8741 1.23828 32.8871 1.23828 32.9002 1.23959C32.9068 1.23946 32.9145 1.24076 32.9224 1.24206Z" fill="#009999"/>
<path d="M34.4137 1.81045C34.3194 1.73781 34.2263 1.66907 34.1396 1.60693C34.2328 1.67049 34.3233 1.73924 34.4137 1.81045Z" fill="#009999"/>
<path d="M37.8555 7.38646C38.0134 7.25921 38.1141 7.17114 38.1309 7.15674C38.065 7.23859 37.972 7.31512 37.8555 7.38646Z" fill="#009999"/>
<path d="M1.18807 10.9915C1.07297 11.0188 0.930698 10.8436 0.871205 10.5972C0.811712 10.352 0.855684 10.1289 0.97092 10.1017C1.08719 10.0731 1.22829 10.2497 1.28908 10.4947C1.34857 10.7412 1.30318 10.963 1.18807 10.9915Z" fill="#009999"/>
<path d="M7.27946 12.0056L7.28075 12.0117L7.28192 12.0104C7.28192 12.0092 7.28075 12.0068 7.27946 12.0056ZM7.27946 12.0056L7.28075 12.0117L7.28192 12.0104C7.28192 12.0092 7.28075 12.0068 7.27946 12.0056ZM7.27946 12.0056L7.28075 12.0117L7.28192 12.0104C7.28192 12.0092 7.28075 12.0068 7.27946 12.0056ZM7.27946 12.0056L7.28075 12.0117L7.28192 12.0104C7.28192 12.0092 7.28075 12.0068 7.27946 12.0056ZM7.27946 12.0056L7.28075 12.0117L7.28192 12.0104C7.28192 12.0092 7.28075 12.0068 7.27946 12.0056ZM7.27946 12.0056L7.28075 12.0117L7.28192 12.0104C7.28192 12.0092 7.28075 12.0068 7.27946 12.0056ZM7.27946 12.0056L7.28075 12.0117L7.28192 12.0104C7.28192 12.0092 7.28075 12.0068 7.27946 12.0056ZM7.27946 12.0056L7.28075 12.0117L7.28192 12.0104C7.28192 12.0092 7.28075 12.0068 7.27946 12.0056ZM7.27946 12.0056L7.28075 12.0117L7.28192 12.0104C7.28192 12.0092 7.28075 12.0068 7.27946 12.0056ZM7.27946 12.0056L7.28075 12.0117L7.28192 12.0104C7.28192 12.0092 7.28075 12.0068 7.27946 12.0056ZM8.94436 9.99929C8.94436 10.2039 8.78826 10.73 7.45147 11.473C7.48225 11.5211 7.50062 11.5778 7.50424 11.6381C8.99351 11.5124 9.43686 11.855 9.56593 12.0361C9.58313 11.9153 9.59297 11.7934 9.59297 11.6677C9.59309 11.0247 9.34723 10.438 8.94436 9.99929ZM6.788 11.5311C5.29278 10.8581 5.18582 10.3197 5.19449 10.1559C4.86766 10.5735 4.67457 11.0973 4.67457 11.6678C4.67457 11.8821 4.7016 12.0891 4.75334 12.2864C4.86495 12.0942 5.27674 11.7147 6.76329 11.7084C6.762 11.6949 6.76084 11.6813 6.76084 11.6678C6.76097 11.6198 6.7695 11.5729 6.788 11.5311ZM7.01898 12.0216C6.96233 12.0043 6.91202 11.9734 6.87025 11.9317C5.76575 12.963 5.20561 12.9556 4.9992 12.8916C5.36146 13.5263 5.99674 13.9833 6.74363 14.1029C6.61727 13.9329 6.43168 13.4152 7.01898 12.0216ZM7.27946 12.0056L7.28075 12.0117L7.28192 12.0104C7.28192 12.0092 7.28075 12.0068 7.27946 12.0056ZM7.13448 9.20206C6.73885 9.20206 6.36534 9.29572 6.03489 9.46201C6.24609 9.53478 6.69953 9.85998 7.01782 11.3142C7.05468 11.3006 7.09412 11.2945 7.13448 11.2945C7.15543 11.2945 7.17625 11.2958 7.19604 11.2994C7.53994 9.67889 8.04744 9.47187 8.20341 9.44735C7.88021 9.28949 7.51795 9.20206 7.13448 9.20206ZM7.41823 11.9081C7.3815 11.9526 7.33468 11.9882 7.28179 12.0104C7.98963 13.2736 7.89871 13.8304 7.79162 14.0438C8.51045 13.8442 9.09788 13.3253 9.39004 12.6487C9.22449 12.7376 8.68996 12.8533 7.41823 11.9081ZM8.94436 9.99929C8.94436 10.2039 8.78826 10.73 7.45147 11.473C7.48225 11.5211 7.50062 11.5778 7.50424 11.6381C8.99351 11.5124 9.43686 11.855 9.56593 12.0361C9.58313 11.9153 9.59297 11.7934 9.59297 11.6677C9.59309 11.0247 9.34723 10.438 8.94436 9.99929ZM7.41823 11.9081C7.3815 11.9526 7.33468 11.9882 7.28179 12.0104C7.98963 13.2736 7.89871 13.8304 7.79162 14.0438C8.51045 13.8442 9.09788 13.3253 9.39004 12.6487C9.22449 12.7376 8.68996 12.8533 7.41823 11.9081ZM7.13448 9.20206C6.73885 9.20206 6.36534 9.29572 6.03489 9.46201C6.24609 9.53478 6.69953 9.85998 7.01782 11.3142C7.05468 11.3006 7.09412 11.2945 7.13448 11.2945C7.15543 11.2945 7.17625 11.2958 7.19604 11.2994C7.53994 9.67889 8.04744 9.47187 8.20341 9.44735C7.88021 9.28949 7.51795 9.20206 7.13448 9.20206ZM7.27946 12.0056L7.28075 12.0117L7.28192 12.0104C7.28192 12.0092 7.28075 12.0068 7.27946 12.0056ZM7.01898 12.0216C6.96233 12.0043 6.91202 11.9734 6.87025 11.9317C5.76575 12.963 5.20561 12.9556 4.9992 12.8916C5.36146 13.5263 5.99674 13.9833 6.74363 14.1029C6.61727 13.9329 6.43168 13.4152 7.01898 12.0216ZM6.788 11.5311C5.29278 10.8581 5.18582 10.3197 5.19449 10.1559C4.86766 10.5735 4.67457 11.0973 4.67457 11.6678C4.67457 11.8821 4.7016 12.0891 4.75334 12.2864C4.86495 12.0942 5.27674 11.7147 6.76329 11.7084C6.762 11.6949 6.76084 11.6813 6.76084 11.6678C6.76097 11.6198 6.7695 11.5729 6.788 11.5311ZM8.94436 9.99929C8.94436 10.2039 8.78826 10.73 7.45147 11.473C7.48225 11.5211 7.50062 11.5778 7.50424 11.6381C8.99351 11.5124 9.43686 11.855 9.56593 12.0361C9.58313 11.9153 9.59297 11.7934 9.59297 11.6677C9.59309 11.0247 9.34723 10.438 8.94436 9.99929ZM6.788 11.5311C5.29278 10.8581 5.18582 10.3197 5.19449 10.1559C4.86766 10.5735 4.67457 11.0973 4.67457 11.6678C4.67457 11.8821 4.7016 12.0891 4.75334 12.2864C4.86495 12.0942 5.27674 11.7147 6.76329 11.7084C6.762 11.6949 6.76084 11.6813 6.76084 11.6678C6.76097 11.6198 6.7695 11.5729 6.788 11.5311ZM7.01898 12.0216C6.96233 12.0043 6.91202 11.9734 6.87025 11.9317C5.76575 12.963 5.20561 12.9556 4.9992 12.8916C5.36146 13.5263 5.99674 13.9833 6.74363 14.1029C6.61727 13.9329 6.43168 13.4152 7.01898 12.0216ZM7.27946 12.0056L7.28075 12.0117L7.28192 12.0104C7.28192 12.0092 7.28075 12.0068 7.27946 12.0056ZM7.13448 9.20206C6.73885 9.20206 6.36534 9.29572 6.03489 9.46201C6.24609 9.53478 6.69953 9.85998 7.01782 11.3142C7.05468 11.3006 7.09412 11.2945 7.13448 11.2945C7.15543 11.2945 7.17625 11.2958 7.19604 11.2994C7.53994 9.67889 8.04744 9.47187 8.20341 9.44735C7.88021 9.28949 7.51795 9.20206 7.13448 9.20206ZM7.41823 11.9081C7.3815 11.9526 7.33468 11.9882 7.28179 12.0104C7.98963 13.2736 7.89871 13.8304 7.79162 14.0438C8.51045 13.8442 9.09788 13.3253 9.39004 12.6487C9.22449 12.7376 8.68996 12.8533 7.41823 11.9081ZM8.94436 9.99929C8.94436 10.2039 8.78826 10.73 7.45147 11.473C7.48225 11.5211 7.50062 11.5778 7.50424 11.6381C8.99351 11.5124 9.43686 11.855 9.56593 12.0361C9.58313 11.9153 9.59297 11.7934 9.59297 11.6677C9.59309 11.0247 9.34723 10.438 8.94436 9.99929ZM7.41823 11.9081C7.3815 11.9526 7.33468 11.9882 7.28179 12.0104C7.98963 13.2736 7.89871 13.8304 7.79162 14.0438C8.51045 13.8442 9.09788 13.3253 9.39004 12.6487C9.22449 12.7376 8.68996 12.8533 7.41823 11.9081ZM7.13448 9.20206C6.73885 9.20206 6.36534 9.29572 6.03489 9.46201C6.24609 9.53478 6.69953 9.85998 7.01782 11.3142C7.05468 11.3006 7.09412 11.2945 7.13448 11.2945C7.15543 11.2945 7.17625 11.2958 7.19604 11.2994C7.53994 9.67889 8.04744 9.47187 8.20341 9.44735C7.88021 9.28949 7.51795 9.20206 7.13448 9.20206ZM7.27946 12.0056L7.28075 12.0117L7.28192 12.0104C7.28192 12.0092 7.28075 12.0068 7.27946 12.0056ZM7.01898 12.0216C6.96233 12.0043 6.91202 11.9734 6.87025 11.9317C5.76575 12.963 5.20561 12.9556 4.9992 12.8916C5.36146 13.5263 5.99674 13.9833 6.74363 14.1029C6.61727 13.9329 6.43168 13.4152 7.01898 12.0216ZM6.788 11.5311C5.29278 10.8581 5.18582 10.3197 5.19449 10.1559C4.86766 10.5735 4.67457 11.0973 4.67457 11.6678C4.67457 11.8821 4.7016 12.0891 4.75334 12.2864C4.86495 12.0942 5.27674 11.7147 6.76329 11.7084C6.762 11.6949 6.76084 11.6813 6.76084 11.6678C6.76097 11.6198 6.7695 11.5729 6.788 11.5311ZM8.94436 9.99929C8.94436 10.2039 8.78826 10.73 7.45147 11.473C7.48225 11.5211 7.50062 11.5778 7.50424 11.6381C8.99351 11.5124 9.43686 11.855 9.56593 12.0361C9.58313 11.9153 9.59297 11.7934 9.59297 11.6677C9.59309 11.0247 9.34723 10.438 8.94436 9.99929ZM6.788 11.5311C5.29278 10.8581 5.18582 10.3197 5.19449 10.1559C4.86766 10.5735 4.67457 11.0973 4.67457 11.6678C4.67457 11.8821 4.7016 12.0891 4.75334 12.2864C4.86495 12.0942 5.27674 11.7147 6.76329 11.7084C6.762 11.6949 6.76084 11.6813 6.76084 11.6678C6.76097 11.6198 6.7695 11.5729 6.788 11.5311ZM7.01898 12.0216C6.96233 12.0043 6.91202 11.9734 6.87025 11.9317C5.76575 12.963 5.20561 12.9556 4.9992 12.8916C5.36146 13.5263 5.99674 13.9833 6.74363 14.1029C6.61727 13.9329 6.43168 13.4152 7.01898 12.0216ZM7.27946 12.0056L7.28075 12.0117L7.28192 12.0104C7.28192 12.0092 7.28075 12.0068 7.27946 12.0056ZM7.13448 9.20206C6.73885 9.20206 6.36534 9.29572 6.03489 9.46201C6.24609 9.53478 6.69953 9.85998 7.01782 11.3142C7.05468 11.3006 7.09412 11.2945 7.13448 11.2945C7.15543 11.2945 7.17625 11.2958 7.19604 11.2994C7.53994 9.67889 8.04744 9.47187 8.20341 9.44735C7.88021 9.28949 7.51795 9.20206 7.13448 9.20206ZM7.41823 11.9081C7.3815 11.9526 7.33468 11.9882 7.28179 12.0104C7.98963 13.2736 7.89871 13.8304 7.79162 14.0438C8.51045 13.8442 9.09788 13.3253 9.39004 12.6487C9.22449 12.7376 8.68996 12.8533 7.41823 11.9081ZM8.94436 9.99929C8.94436 10.2039 8.78826 10.73 7.45147 11.473C7.48225 11.5211 7.50062 11.5778 7.50424 11.6381C8.99351 11.5124 9.43686 11.855 9.56593 12.0361C9.58313 11.9153 9.59297 11.7934 9.59297 11.6677C9.59309 11.0247 9.34723 10.438 8.94436 9.99929ZM7.41823 11.9081C7.3815 11.9526 7.33468 11.9882 7.28179 12.0104C7.98963 13.2736 7.89871 13.8304 7.79162 14.0438C8.51045 13.8442 9.09788 13.3253 9.39004 12.6487C9.22449 12.7376 8.68996 12.8533 7.41823 11.9081ZM7.13448 9.20206C6.73885 9.20206 6.36534 9.29572 6.03489 9.46201C6.24609 9.53478 6.69953 9.85998 7.01782 11.3142C7.05468 11.3006 7.09412 11.2945 7.13448 11.2945C7.15543 11.2945 7.17625 11.2958 7.19604 11.2994C7.53994 9.67889 8.04744 9.47187 8.20341 9.44735C7.88021 9.28949 7.51795 9.20206 7.13448 9.20206ZM7.27946 12.0056L7.28075 12.0117L7.28192 12.0104C7.28192 12.0092 7.28075 12.0068 7.27946 12.0056ZM7.01898 12.0216C6.96233 12.0043 6.91202 11.9734 6.87025 11.9317C5.76575 12.963 5.20561 12.9556 4.9992 12.8916C5.36146 13.5263 5.99674 13.9833 6.74363 14.1029C6.61727 13.9329 6.43168 13.4152 7.01898 12.0216ZM6.788 11.5311C5.29278 10.8581 5.18582 10.3197 5.19449 10.1559C4.86766 10.5735 4.67457 11.0973 4.67457 11.6678C4.67457 11.8821 4.7016 12.0891 4.75334 12.2864C4.86495 12.0942 5.27674 11.7147 6.76329 11.7084C6.762 11.6949 6.76084 11.6813 6.76084 11.6678C6.76097 11.6198 6.7695 11.5729 6.788 11.5311ZM8.94436 9.99929C8.94436 10.2039 8.78826 10.73 7.45147 11.473C7.48225 11.5211 7.50062 11.5778 7.50424 11.6381C8.99351 11.5124 9.43686 11.855 9.56593 12.0361C9.58313 11.9153 9.59297 11.7934 9.59297 11.6677C9.59309 11.0247 9.34723 10.438 8.94436 9.99929ZM6.788 11.5311C5.29278 10.8581 5.18582 10.3197 5.19449 10.1559C4.86766 10.5735 4.67457 11.0973 4.67457 11.6678C4.67457 11.8821 4.7016 12.0891 4.75334 12.2864C4.86495 12.0942 5.27674 11.7147 6.76329 11.7084C6.762 11.6949 6.76084 11.6813 6.76084 11.6678C6.76097 11.6198 6.7695 11.5729 6.788 11.5311ZM7.01898 12.0216C6.96233 12.0043 6.91202 11.9734 6.87025 11.9317C5.76575 12.963 5.20561 12.9556 4.9992 12.8916C5.36146 13.5263 5.99674 13.9833 6.74363 14.1029C6.61727 13.9329 6.43168 13.4152 7.01898 12.0216ZM7.27946 12.0056L7.28075 12.0117L7.28192 12.0104C7.28192 12.0092 7.28075 12.0068 7.27946 12.0056ZM7.13448 9.20206C6.73885 9.20206 6.36534 9.29572 6.03489 9.46201C6.24609 9.53478 6.69953 9.85998 7.01782 11.3142C7.05468 11.3006 7.09412 11.2945 7.13448 11.2945C7.15543 11.2945 7.17625 11.2958 7.19604 11.2994C7.53994 9.67889 8.04744 9.47187 8.20341 9.44735C7.88021 9.28949 7.51795 9.20206 7.13448 9.20206ZM7.41823 11.9081C7.3815 11.9526 7.33468 11.9882 7.28179 12.0104C7.98963 13.2736 7.89871 13.8304 7.79162 14.0438C8.51045 13.8442 9.09788 13.3253 9.39004 12.6487C9.22449 12.7376 8.68996 12.8533 7.41823 11.9081ZM8.94436 9.99929C8.94436 10.2039 8.78826 10.73 7.45147 11.473C7.48225 11.5211 7.50062 11.5778 7.50424 11.6381C8.99351 11.5124 9.43686 11.855 9.56593 12.0361C9.58313 11.9153 9.59297 11.7934 9.59297 11.6677C9.59309 11.0247 9.34723 10.438 8.94436 9.99929ZM7.41823 11.9081C7.3815 11.9526 7.33468 11.9882 7.28179 12.0104C7.98963 13.2736 7.89871 13.8304 7.79162 14.0438C8.51045 13.8442 9.09788 13.3253 9.39004 12.6487C9.22449 12.7376 8.68996 12.8533 7.41823 11.9081ZM7.13448 9.20206C6.73885 9.20206 6.36534 9.29572 6.03489 9.46201C6.24609 9.53478 6.69953 9.85998 7.01782 11.3142C7.05468 11.3006 7.09412 11.2945 7.13448 11.2945C7.15543 11.2945 7.17625 11.2958 7.19604 11.2994C7.53994 9.67889 8.04744 9.47187 8.20341 9.44735C7.88021 9.28949 7.51795 9.20206 7.13448 9.20206ZM7.27946 12.0056L7.28075 12.0117L7.28192 12.0104C7.28192 12.0092 7.28075 12.0068 7.27946 12.0056ZM7.01898 12.0216C6.96233 12.0043 6.91202 11.9734 6.87025 11.9317C5.76575 12.963 5.20561 12.9556 4.9992 12.8916C5.36146 13.5263 5.99674 13.9833 6.74363 14.1029C6.61727 13.9329 6.43168 13.4152 7.01898 12.0216ZM6.788 11.5311C5.29278 10.8581 5.18582 10.3197 5.19449 10.1559C4.86766 10.5735 4.67457 11.0973 4.67457 11.6678C4.67457 11.8821 4.7016 12.0891 4.75334 12.2864C4.86495 12.0942 5.27674 11.7147 6.76329 11.7084C6.762 11.6949 6.76084 11.6813 6.76084 11.6678C6.76097 11.6198 6.7695 11.5729 6.788 11.5311ZM8.94436 9.99929C8.94436 10.2039 8.78826 10.73 7.45147 11.473C7.48225 11.5211 7.50062 11.5778 7.50424 11.6381C8.99351 11.5124 9.43686 11.855 9.56593 12.0361C9.58313 11.9153 9.59297 11.7934 9.59297 11.6677C9.59309 11.0247 9.34723 10.438 8.94436 9.99929ZM6.788 11.5311C5.29278 10.8581 5.18582 10.3197 5.19449 10.1559C4.86766 10.5735 4.67457 11.0973 4.67457 11.6678C4.67457 11.8821 4.7016 12.0891 4.75334 12.2864C4.86495 12.0942 5.27674 11.7147 6.76329 11.7084C6.762 11.6949 6.76084 11.6813 6.76084 11.6678C6.76097 11.6198 6.7695 11.5729 6.788 11.5311ZM7.01898 12.0216C6.96233 12.0043 6.91202 11.9734 6.87025 11.9317C5.76575 12.963 5.20561 12.9556 4.9992 12.8916C5.36146 13.5263 5.99674 13.9833 6.74363 14.1029C6.61727 13.9329 6.43168 13.4152 7.01898 12.0216ZM7.27946 12.0056L7.28075 12.0117L7.28192 12.0104C7.28192 12.0092 7.28075 12.0068 7.27946 12.0056ZM7.13448 9.20206C6.73885 9.20206 6.36534 9.29572 6.03489 9.46201C6.24609 9.53478 6.69953 9.85998 7.01782 11.3142C7.05468 11.3006 7.09412 11.2945 7.13448 11.2945C7.15543 11.2945 7.17625 11.2958 7.19604 11.2994C7.53994 9.67889 8.04744 9.47187 8.20341 9.44735C7.88021 9.28949 7.51795 9.20206 7.13448 9.20206ZM7.41823 11.9081C7.3815 11.9526 7.33468 11.9882 7.28179 12.0104C7.98963 13.2736 7.89871 13.8304 7.79162 14.0438C8.51045 13.8442 9.09788 13.3253 9.39004 12.6487C9.22449 12.7376 8.68996 12.8533 7.41823 11.9081ZM8.94436 9.99929C8.94436 10.2039 8.78826 10.73 7.45147 11.473C7.48225 11.5211 7.50062 11.5778 7.50424 11.6381C8.99351 11.5124 9.43686 11.855 9.56593 12.0361C9.58313 11.9153 9.59297 11.7934 9.59297 11.6677C9.59309 11.0247 9.34723 10.438 8.94436 9.99929ZM7.41823 11.9081C7.3815 11.9526 7.33468 11.9882 7.28179 12.0104C7.98963 13.2736 7.89871 13.8304 7.79162 14.0438C8.51045 13.8442 9.09788 13.3253 9.39004 12.6487C9.22449 12.7376 8.68996 12.8533 7.41823 11.9081ZM7.13448 9.20206C6.73885 9.20206 6.36534 9.29572 6.03489 9.46201C6.24609 9.53478 6.69953 9.85998 7.01782 11.3142C7.05468 11.3006 7.09412 11.2945 7.13448 11.2945C7.15543 11.2945 7.17625 11.2958 7.19604 11.2994C7.53994 9.67889 8.04744 9.47187 8.20341 9.44735C7.88021 9.28949 7.51795 9.20206 7.13448 9.20206ZM7.27946 12.0056L7.28075 12.0117L7.28192 12.0104C7.28192 12.0092 7.28075 12.0068 7.27946 12.0056ZM7.01898 12.0216C6.96233 12.0043 6.91202 11.9734 6.87025 11.9317C5.76575 12.963 5.20561 12.9556 4.9992 12.8916C5.36146 13.5263 5.99674 13.9833 6.74363 14.1029C6.61727 13.9329 6.43168 13.4152 7.01898 12.0216ZM6.788 11.5311C5.29278 10.8581 5.18582 10.3197 5.19449 10.1559C4.86766 10.5735 4.67457 11.0973 4.67457 11.6678C4.67457 11.8821 4.7016 12.0891 4.75334 12.2864C4.86495 12.0942 5.27674 11.7147 6.76329 11.7084C6.762 11.6949 6.76084 11.6813 6.76084 11.6678C6.76097 11.6198 6.7695 11.5729 6.788 11.5311ZM8.94436 9.99929C8.94436 10.2039 8.78826 10.73 7.45147 11.473C7.48225 11.5211 7.50062 11.5778 7.50424 11.6381C8.99351 11.5124 9.43686 11.855 9.56593 12.0361C9.58313 11.9153 9.59297 11.7934 9.59297 11.6677C9.59309 11.0247 9.34723 10.438 8.94436 9.99929ZM6.788 11.5311C5.29278 10.8581 5.18582 10.3197 5.19449 10.1559C4.86766 10.5735 4.67457 11.0973 4.67457 11.6678C4.67457 11.8821 4.7016 12.0891 4.75334 12.2864C4.86495 12.0942 5.27674 11.7147 6.76329 11.7084C6.762 11.6949 6.76084 11.6813 6.76084 11.6678C6.76097 11.6198 6.7695 11.5729 6.788 11.5311ZM7.01898 12.0216C6.96233 12.0043 6.91202 11.9734 6.87025 11.9317C5.76575 12.963 5.20561 12.9556 4.9992 12.8916C5.36146 13.5263 5.99674 13.9833 6.74363 14.1029C6.61727 13.9329 6.43168 13.4152 7.01898 12.0216ZM7.27946 12.0056L7.28075 12.0117L7.28192 12.0104C7.28192 12.0092 7.28075 12.0068 7.27946 12.0056ZM7.13448 9.20206C6.73885 9.20206 6.36534 9.29572 6.03489 9.46201C6.24609 9.53478 6.69953 9.85998 7.01782 11.3142C7.05468 11.3006 7.09412 11.2945 7.13448 11.2945C7.15543 11.2945 7.17625 11.2958 7.19604 11.2994C7.53994 9.67889 8.04744 9.47187 8.20341 9.44735C7.88021 9.28949 7.51795 9.20206 7.13448 9.20206ZM7.41823 11.9081C7.3815 11.9526 7.33468 11.9882 7.28179 12.0104C7.98963 13.2736 7.89871 13.8304 7.79162 14.0438C8.51045 13.8442 9.09788 13.3253 9.39004 12.6487C9.22449 12.7376 8.68996 12.8533 7.41823 11.9081ZM8.94436 9.99929C8.94436 10.2039 8.78826 10.73 7.45147 11.473C7.48225 11.5211 7.50062 11.5778 7.50424 11.6381C8.99351 11.5124 9.43686 11.855 9.56593 12.0361C9.58313 11.9153 9.59297 11.7934 9.59297 11.6677C9.59309 11.0247 9.34723 10.438 8.94436 9.99929ZM7.41823 11.9081C7.3815 11.9526 7.33468 11.9882 7.28179 12.0104C7.98963 13.2736 7.89871 13.8304 7.79162 14.0438C8.51045 13.8442 9.09788 13.3253 9.39004 12.6487C9.22449 12.7376 8.68996 12.8533 7.41823 11.9081ZM8.20341 9.44735C7.88021 9.28949 7.51795 9.20206 7.13448 9.20206C6.73885 9.20206 6.36534 9.29572 6.03489 9.46201C6.24609 9.53478 6.69953 9.85998 7.01782 11.3142C7.05468 11.3006 7.09412 11.2945 7.13448 11.2945C7.15543 11.2945 7.17625 11.2958 7.19604 11.2994C7.53994 9.67889 8.04731 9.47187 8.20341 9.44735ZM7.28075 12.0117L7.28192 12.0104C7.28192 12.0091 7.28075 12.0068 7.27946 12.0056L7.28075 12.0117ZM6.87025 11.9317C5.76575 12.963 5.20561 12.9556 4.9992 12.8916C5.36146 13.5263 5.99674 13.9833 6.74363 14.1029C6.61715 13.9328 6.43168 13.4152 7.01898 12.0216C6.96246 12.0044 6.91202 11.9734 6.87025 11.9317ZM6.76096 11.668C6.76096 11.6198 6.7695 11.573 6.788 11.5311C5.29278 10.8581 5.18582 10.3197 5.19449 10.1559C4.86766 10.5735 4.67457 11.0973 4.67457 11.6678C4.67457 11.8821 4.7016 12.0891 4.75334 12.2864C4.86495 12.0942 5.27674 11.7147 6.76329 11.7084C6.76213 11.6951 6.76096 11.6813 6.76096 11.668ZM8.94436 9.99929C8.94436 10.2039 8.78826 10.73 7.45147 11.473C7.48225 11.5211 7.50062 11.5778 7.50424 11.6381C8.99351 11.5124 9.43686 11.855 9.56593 12.0361C9.58313 11.9153 9.59297 11.7934 9.59297 11.6677C9.59309 11.0247 9.34723 10.438 8.94436 9.99929ZM7.13448 8.43311C5.35305 8.43311 3.90918 9.88099 3.90918 11.668C3.90918 13.4547 5.35292 14.9028 7.13448 14.9028C8.91487 14.9028 10.3596 13.4548 10.3596 11.668C10.3596 9.88099 8.91487 8.43311 7.13448 8.43311ZM7.13448 14.2828C5.69436 14.2828 4.5261 13.1122 4.5261 11.668C4.5261 10.2236 5.69436 9.05172 7.13448 9.05172C8.5746 9.05172 9.74169 10.2236 9.74169 11.668C9.74169 13.1121 8.5746 14.2828 7.13448 14.2828ZM7.41823 11.9081C7.3815 11.9526 7.33468 11.9882 7.28179 12.0104C7.98963 13.2736 7.89871 13.8304 7.79162 14.0438C8.51045 13.8442 9.09788 13.3253 9.39004 12.6487C9.22449 12.7376 8.68996 12.8533 7.41823 11.9081ZM8.20341 9.44735C7.88021 9.28949 7.51795 9.20206 7.13448 9.20206C6.73885 9.20206 6.36534 9.29572 6.03489 9.46201C6.24609 9.53478 6.69953 9.85998 7.01782 11.3142C7.05468 11.3006 7.09412 11.2945 7.13448 11.2945C7.15543 11.2945 7.17625 11.2958 7.19604 11.2994C7.53994 9.67889 8.04731 9.47187 8.20341 9.44735ZM7.28075 12.0117L7.28192 12.0104C7.28192 12.0091 7.28075 12.0068 7.27946 12.0056L7.28075 12.0117ZM6.87025 11.9317C5.76575 12.963 5.20561 12.9556 4.9992 12.8916C5.36146 13.5263 5.99674 13.9833 6.74363 14.1029C6.61715 13.9328 6.43168 13.4152 7.01898 12.0216C6.96246 12.0044 6.91202 11.9734 6.87025 11.9317ZM6.76096 11.668C6.76096 11.6198 6.7695 11.573 6.788 11.5311C5.29278 10.8581 5.18582 10.3197 5.19449 10.1559C4.86766 10.5735 4.67457 11.0973 4.67457 11.6678C4.67457 11.8821 4.7016 12.0891 4.75334 12.2864C4.86495 12.0942 5.27674 11.7147 6.76329 11.7084C6.76213 11.6951 6.76096 11.6813 6.76096 11.668ZM8.94436 9.99929C8.94436 10.2039 8.78826 10.73 7.45147 11.473C7.48225 11.5211 7.50062 11.5778 7.50424 11.6381C8.99351 11.5124 9.43686 11.855 9.56593 12.0361C9.58313 11.9153 9.59297 11.7934 9.59297 11.6677C9.59309 11.0247 9.34723 10.438 8.94436 9.99929ZM6.788 11.5311C5.29278 10.8581 5.18582 10.3197 5.19449 10.1559C4.86766 10.5735 4.67457 11.0973 4.67457 11.6678C4.67457 11.8821 4.7016 12.0891 4.75334 12.2864C4.86495 12.0942 5.27674 11.7147 6.76329 11.7084C6.762 11.6949 6.76084 11.6813 6.76084 11.6678C6.76097 11.6198 6.7695 11.5729 6.788 11.5311ZM7.01898 12.0216C6.96233 12.0043 6.91202 11.9734 6.87025 11.9317C5.76575 12.963 5.20561 12.9556 4.9992 12.8916C5.36146 13.5263 5.99674 13.9833 6.74363 14.1029C6.61727 13.9329 6.43168 13.4152 7.01898 12.0216ZM7.27946 12.0056L7.28075 12.0117L7.28192 12.0104C7.28192 12.0092 7.28075 12.0068 7.27946 12.0056ZM7.13448 9.20206C6.73885 9.20206 6.36534 9.29572 6.03489 9.46201C6.24609 9.53478 6.69953 9.85998 7.01782 11.3142C7.05468 11.3006 7.09412 11.2945 7.13448 11.2945C7.15543 11.2945 7.17625 11.2958 7.19604 11.2994C7.53994 9.67889 8.04744 9.47187 8.20341 9.44735C7.88021 9.28949 7.51795 9.20206 7.13448 9.20206ZM7.41823 11.9081C7.3815 11.9526 7.33468 11.9882 7.28179 12.0104C7.98963 13.2736 7.89871 13.8304 7.79162 14.0438C8.51045 13.8442 9.09788 13.3253 9.39004 12.6487C9.22449 12.7376 8.68996 12.8533 7.41823 11.9081ZM8.94436 9.99929C8.94436 10.2039 8.78826 10.73 7.45147 11.473C7.48225 11.5211 7.50062 11.5778 7.50424 11.6381C8.99351 11.5124 9.43686 11.855 9.56593 12.0361C9.58313 11.9153 9.59297 11.7934 9.59297 11.6677C9.59309 11.0247 9.34723 10.438 8.94436 9.99929ZM7.41823 11.9081C7.3815 11.9526 7.33468 11.9882 7.28179 12.0104C7.98963 13.2736 7.89871 13.8304 7.79162 14.0438C8.51045 13.8442 9.09788 13.3253 9.39004 12.6487C9.22449 12.7376 8.68996 12.8533 7.41823 11.9081ZM7.13448 9.20206C6.73885 9.20206 6.36534 9.29572 6.03489 9.46201C6.24609 9.53478 6.69953 9.85998 7.01782 11.3142C7.05468 11.3006 7.09412 11.2945 7.13448 11.2945C7.15543 11.2945 7.17625 11.2958 7.19604 11.2994C7.53994 9.67889 8.04744 9.47187 8.20341 9.44735C7.88021 9.28949 7.51795 9.20206 7.13448 9.20206ZM7.27946 12.0056L7.28075 12.0117L7.28192 12.0104C7.28192 12.0092 7.28075 12.0068 7.27946 12.0056ZM7.01898 12.0216C6.96233 12.0043 6.91202 11.9734 6.87025 11.9317C5.76575 12.963 5.20561 12.9556 4.9992 12.8916C5.36146 13.5263 5.99674 13.9833 6.74363 14.1029C6.61727 13.9329 6.43168 13.4152 7.01898 12.0216ZM6.788 11.5311C5.29278 10.8581 5.18582 10.3197 5.19449 10.1559C4.86766 10.5735 4.67457 11.0973 4.67457 11.6678C4.67457 11.8821 4.7016 12.0891 4.75334 12.2864C4.86495 12.0942 5.27674 11.7147 6.76329 11.7084C6.762 11.6949 6.76084 11.6813 6.76084 11.6678C6.76097 11.6198 6.7695 11.5729 6.788 11.5311ZM8.94436 9.99929C8.94436 10.2039 8.78826 10.73 7.45147 11.473C7.48225 11.5211 7.50062 11.5778 7.50424 11.6381C8.99351 11.5124 9.43686 11.855 9.56593 12.0361C9.58313 11.9153 9.59297 11.7934 9.59297 11.6677C9.59309 11.0247 9.34723 10.438 8.94436 9.99929ZM6.788 11.5311C5.29278 10.8581 5.18582 10.3197 5.19449 10.1559C4.86766 10.5735 4.67457 11.0973 4.67457 11.6678C4.67457 11.8821 4.7016 12.0891 4.75334 12.2864C4.86495 12.0942 5.27674 11.7147 6.76329 11.7084C6.762 11.6949 6.76084 11.6813 6.76084 11.6678C6.76097 11.6198 6.7695 11.5729 6.788 11.5311ZM7.01898 12.0216C6.96233 12.0043 6.91202 11.9734 6.87025 11.9317C5.76575 12.963 5.20561 12.9556 4.9992 12.8916C5.36146 13.5263 5.99674 13.9833 6.74363 14.1029C6.61727 13.9329 6.43168 13.4152 7.01898 12.0216ZM7.27946 12.0056L7.28075 12.0117L7.28192 12.0104C7.28192 12.0092 7.28075 12.0068 7.27946 12.0056ZM7.13448 9.20206C6.73885 9.20206 6.36534 9.29572 6.03489 9.46201C6.24609 9.53478 6.69953 9.85998 7.01782 11.3142C7.05468 11.3006 7.09412 11.2945 7.13448 11.2945C7.15543 11.2945 7.17625 11.2958 7.19604 11.2994C7.53994 9.67889 8.04744 9.47187 8.20341 9.44735C7.88021 9.28949 7.51795 9.20206 7.13448 9.20206ZM7.41823 11.9081C7.3815 11.9526 7.33468 11.9882 7.28179 12.0104C7.98963 13.2736 7.89871 13.8304 7.79162 14.0438C8.51045 13.8442 9.09788 13.3253 9.39004 12.6487C9.22449 12.7376 8.68996 12.8533 7.41823 11.9081ZM8.94436 9.99929C8.94436 10.2039 8.78826 10.73 7.45147 11.473C7.48225 11.5211 7.50062 11.5778 7.50424 11.6381C8.99351 11.5124 9.43686 11.855 9.56593 12.0361C9.58313 11.9153 9.59297 11.7934 9.59297 11.6677C9.59309 11.0247 9.34723 10.438 8.94436 9.99929ZM7.41823 11.9081C7.3815 11.9526 7.33468 11.9882 7.28179 12.0104C7.98963 13.2736 7.89871 13.8304 7.79162 14.0438C8.51045 13.8442 9.09788 13.3253 9.39004 12.6487C9.22449 12.7376 8.68996 12.8533 7.41823 11.9081ZM7.13448 9.20206C6.73885 9.20206 6.36534 9.29572 6.03489 9.46201C6.24609 9.53478 6.69953 9.85998 7.01782 11.3142C7.05468 11.3006 7.09412 11.2945 7.13448 11.2945C7.15543 11.2945 7.17625 11.2958 7.19604 11.2994C7.53994 9.67889 8.04744 9.47187 8.20341 9.44735C7.88021 9.28949 7.51795 9.20206 7.13448 9.20206ZM7.27946 12.0056L7.28075 12.0117L7.28192 12.0104C7.28192 12.0092 7.28075 12.0068 7.27946 12.0056ZM7.01898 12.0216C6.96233 12.0043 6.91202 11.9734 6.87025 11.9317C5.76575 12.963 5.20561 12.9556 4.9992 12.8916C5.36146 13.5263 5.99674 13.9833 6.74363 14.1029C6.61727 13.9329 6.43168 13.4152 7.01898 12.0216ZM6.788 11.5311C5.29278 10.8581 5.18582 10.3197 5.19449 10.1559C4.86766 10.5735 4.67457 11.0973 4.67457 11.6678C4.67457 11.8821 4.7016 12.0891 4.75334 12.2864C4.86495 12.0942 5.27674 11.7147 6.76329 11.7084C6.762 11.6949 6.76084 11.6813 6.76084 11.6678C6.76097 11.6198 6.7695 11.5729 6.788 11.5311ZM8.94436 9.99929C8.94436 10.2039 8.78826 10.73 7.45147 11.473C7.48225 11.5211 7.50062 11.5778 7.50424 11.6381C8.99351 11.5124 9.43686 11.855 9.56593 12.0361C9.58313 11.9153 9.59297 11.7934 9.59297 11.6677C9.59309 11.0247 9.34723 10.438 8.94436 9.99929ZM6.788 11.5311C5.29278 10.8581 5.18582 10.3197 5.19449 10.1559C4.86766 10.5735 4.67457 11.0973 4.67457 11.6678C4.67457 11.8821 4.7016 12.0891 4.75334 12.2864C4.86495 12.0942 5.27674 11.7147 6.76329 11.7084C6.762 11.6949 6.76084 11.6813 6.76084 11.6678C6.76097 11.6198 6.7695 11.5729 6.788 11.5311ZM7.01898 12.0216C6.96233 12.0043 6.91202 11.9734 6.87025 11.9317C5.76575 12.963 5.20561 12.9556 4.9992 12.8916C5.36146 13.5263 5.99674 13.9833 6.74363 14.1029C6.61727 13.9329 6.43168 13.4152 7.01898 12.0216ZM7.27946 12.0056L7.28075 12.0117L7.28192 12.0104C7.28192 12.0092 7.28075 12.0068 7.27946 12.0056ZM7.13448 9.20206C6.73885 9.20206 6.36534 9.29572 6.03489 9.46201C6.24609 9.53478 6.69953 9.85998 7.01782 11.3142C7.05468 11.3006 7.09412 11.2945 7.13448 11.2945C7.15543 11.2945 7.17625 11.2958 7.19604 11.2994C7.53994 9.67889 8.04744 9.47187 8.20341 9.44735C7.88021 9.28949 7.51795 9.20206 7.13448 9.20206ZM7.41823 11.9081C7.3815 11.9526 7.33468 11.9882 7.28179 12.0104C7.98963 13.2736 7.89871 13.8304 7.79162 14.0438C8.51045 13.8442 9.09788 13.3253 9.39004 12.6487C9.22449 12.7376 8.68996 12.8533 7.41823 11.9081ZM8.94436 9.99929C8.94436 10.2039 8.78826 10.73 7.45147 11.473C7.48225 11.5211 7.50062 11.5778 7.50424 11.6381C8.99351 11.5124 9.43686 11.855 9.56593 12.0361C9.58313 11.9153 9.59297 11.7934 9.59297 11.6677C9.59309 11.0247 9.34723 10.438 8.94436 9.99929ZM7.41823 11.9081C7.3815 11.9526 7.33468 11.9882 7.28179 12.0104C7.98963 13.2736 7.89871 13.8304 7.79162 14.0438C8.51045 13.8442 9.09788 13.3253 9.39004 12.6487C9.22449 12.7376 8.68996 12.8533 7.41823 11.9081ZM7.13448 9.20206C6.73885 9.20206 6.36534 9.29572 6.03489 9.46201C6.24609 9.53478 6.69953 9.85998 7.01782 11.3142C7.05468 11.3006 7.09412 11.2945 7.13448 11.2945C7.15543 11.2945 7.17625 11.2958 7.19604 11.2994C7.53994 9.67889 8.04744 9.47187 8.20341 9.44735C7.88021 9.28949 7.51795 9.20206 7.13448 9.20206ZM7.27946 12.0056L7.28075 12.0117L7.28192 12.0104C7.28192 12.0092 7.28075 12.0068 7.27946 12.0056ZM7.01898 12.0216C6.96233 12.0043 6.91202 11.9734 6.87025 11.9317C5.76575 12.963 5.20561 12.9556 4.9992 12.8916C5.36146 13.5263 5.99674 13.9833 6.74363 14.1029C6.61727 13.9329 6.43168 13.4152 7.01898 12.0216ZM6.788 11.5311C5.29278 10.8581 5.18582 10.3197 5.19449 10.1559C4.86766 10.5735 4.67457 11.0973 4.67457 11.6678C4.67457 11.8821 4.7016 12.0891 4.75334 12.2864C4.86495 12.0942 5.27674 11.7147 6.76329 11.7084C6.762 11.6949 6.76084 11.6813 6.76084 11.6678C6.76097 11.6198 6.7695 11.5729 6.788 11.5311ZM8.94436 9.99929C8.94436 10.2039 8.78826 10.73 7.45147 11.473C7.48225 11.5211 7.50062 11.5778 7.50424 11.6381C8.99351 11.5124 9.43686 11.855 9.56593 12.0361C9.58313 11.9153 9.59297 11.7934 9.59297 11.6677C9.59309 11.0247 9.34723 10.438 8.94436 9.99929ZM6.788 11.5311C5.29278 10.8581 5.18582 10.3197 5.19449 10.1559C4.86766 10.5735 4.67457 11.0973 4.67457 11.6678C4.67457 11.8821 4.7016 12.0891 4.75334 12.2864C4.86495 12.0942 5.27674 11.7147 6.76329 11.7084C6.762 11.6949 6.76084 11.6813 6.76084 11.6678C6.76097 11.6198 6.7695 11.5729 6.788 11.5311ZM7.01898 12.0216C6.96233 12.0043 6.91202 11.9734 6.87025 11.9317C5.76575 12.963 5.20561 12.9556 4.9992 12.8916C5.36146 13.5263 5.99674 13.9833 6.74363 14.1029C6.61727 13.9329 6.43168 13.4152 7.01898 12.0216ZM7.27946 12.0056L7.28075 12.0117L7.28192 12.0104C7.28192 12.0092 7.28075 12.0068 7.27946 12.0056ZM7.13448 9.20206C6.73885 9.20206 6.36534 9.29572 6.03489 9.46201C6.24609 9.53478 6.69953 9.85998 7.01782 11.3142C7.05468 11.3006 7.09412 11.2945 7.13448 11.2945C7.15543 11.2945 7.17625 11.2958 7.19604 11.2994C7.53994 9.67889 8.04744 9.47187 8.20341 9.44735C7.88021 9.28949 7.51795 9.20206 7.13448 9.20206ZM7.41823 11.9081C7.3815 11.9526 7.33468 11.9882 7.28179 12.0104C7.98963 13.2736 7.89871 13.8304 7.79162 14.0438C8.51045 13.8442 9.09788 13.3253 9.39004 12.6487C9.22449 12.7376 8.68996 12.8533 7.41823 11.9081ZM8.94436 9.99929C8.94436 10.2039 8.78826 10.73 7.45147 11.473C7.48225 11.5211 7.50062 11.5778 7.50424 11.6381C8.99351 11.5124 9.43686 11.855 9.56593 12.0361C9.58313 11.9153 9.59297 11.7934 9.59297 11.6677C9.59309 11.0247 9.34723 10.438 8.94436 9.99929ZM7.41823 11.9081C7.3815 11.9526 7.33468 11.9882 7.28179 12.0104C7.98963 13.2736 7.89871 13.8304 7.79162 14.0438C8.51045 13.8442 9.09788 13.3253 9.39004 12.6487C9.22449 12.7376 8.68996 12.8533 7.41823 11.9081ZM7.13448 9.20206C6.73885 9.20206 6.36534 9.29572 6.03489 9.46201C6.24609 9.53478 6.69953 9.85998 7.01782 11.3142C7.05468 11.3006 7.09412 11.2945 7.13448 11.2945C7.15543 11.2945 7.17625 11.2958 7.19604 11.2994C7.53994 9.67889 8.04744 9.47187 8.20341 9.44735C7.88021 9.28949 7.51795 9.20206 7.13448 9.20206ZM7.27946 12.0056L7.28075 12.0117L7.28192 12.0104C7.28192 12.0092 7.28075 12.0068 7.27946 12.0056ZM7.01898 12.0216C6.96233 12.0043 6.91202 11.9734 6.87025 11.9317C5.76575 12.963 5.20561 12.9556 4.9992 12.8916C5.36146 13.5263 5.99674 13.9833 6.74363 14.1029C6.61727 13.9329 6.43168 13.4152 7.01898 12.0216ZM6.788 11.5311C5.29278 10.8581 5.18582 10.3197 5.19449 10.1559C4.86766 10.5735 4.67457 11.0973 4.67457 11.6678C4.67457 11.8821 4.7016 12.0891 4.75334 12.2864C4.86495 12.0942 5.27674 11.7147 6.76329 11.7084C6.762 11.6949 6.76084 11.6813 6.76084 11.6678C6.76097 11.6198 6.7695 11.5729 6.788 11.5311ZM8.94436 9.99929C8.94436 10.2039 8.78826 10.73 7.45147 11.473C7.48225 11.5211 7.50062 11.5778 7.50424 11.6381C8.99351 11.5124 9.43686 11.855 9.56593 12.0361C9.58313 11.9153 9.59297 11.7934 9.59297 11.6677C9.59309 11.0247 9.34723 10.438 8.94436 9.99929ZM6.788 11.5311C5.29278 10.8581 5.18582 10.3197 5.19449 10.1559C4.86766 10.5735 4.67457 11.0973 4.67457 11.6678C4.67457 11.8821 4.7016 12.0891 4.75334 12.2864C4.86495 12.0942 5.27674 11.7147 6.76329 11.7084C6.762 11.6949 6.76084 11.6813 6.76084 11.6678C6.76097 11.6198 6.7695 11.5729 6.788 11.5311ZM7.01898 12.0216C6.96233 12.0043 6.91202 11.9734 6.87025 11.9317C5.76575 12.963 5.20561 12.9556 4.9992 12.8916C5.36146 13.5263 5.99674 13.9833 6.74363 14.1029C6.61727 13.9329 6.43168 13.4152 7.01898 12.0216ZM7.27946 12.0056L7.28075 12.0117L7.28192 12.0104C7.28192 12.0092 7.28075 12.0068 7.27946 12.0056ZM7.13448 9.20206C6.73885 9.20206 6.36534 9.29572 6.03489 9.46201C6.24609 9.53478 6.69953 9.85998 7.01782 11.3142C7.05468 11.3006 7.09412 11.2945 7.13448 11.2945C7.15543 11.2945 7.17625 11.2958 7.19604 11.2994C7.53994 9.67889 8.04744 9.47187 8.20341 9.44735C7.88021 9.28949 7.51795 9.20206 7.13448 9.20206ZM7.41823 11.9081C7.3815 11.9526 7.33468 11.9882 7.28179 12.0104C7.98963 13.2736 7.89871 13.8304 7.79162 14.0438C8.51045 13.8442 9.09788 13.3253 9.39004 12.6487C9.22449 12.7376 8.68996 12.8533 7.41823 11.9081ZM8.94436 9.99929C8.94436 10.2039 8.78826 10.73 7.45147 11.473C7.48225 11.5211 7.50062 11.5778 7.50424 11.6381C8.99351 11.5124 9.43686 11.855 9.56593 12.0361C9.58313 11.9153 9.59297 11.7934 9.59297 11.6677C9.59309 11.0247 9.34723 10.438 8.94436 9.99929ZM7.41823 11.9081C7.3815 11.9526 7.33468 11.9882 7.28179 12.0104C7.98963 13.2736 7.89871 13.8304 7.79162 14.0438C8.51045 13.8442 9.09788 13.3253 9.39004 12.6487C9.22449 12.7376 8.68996 12.8533 7.41823 11.9081ZM7.13448 9.20206C6.73885 9.20206 6.36534 9.29572 6.03489 9.46201C6.24609 9.53478 6.69953 9.85998 7.01782 11.3142C7.05468 11.3006 7.09412 11.2945 7.13448 11.2945C7.15543 11.2945 7.17625 11.2958 7.19604 11.2994C7.53994 9.67889 8.04744 9.47187 8.20341 9.44735C7.88021 9.28949 7.51795 9.20206 7.13448 9.20206ZM7.27946 12.0056L7.28075 12.0117L7.28192 12.0104C7.28192 12.0092 7.28075 12.0068 7.27946 12.0056ZM7.01898 12.0216C6.96233 12.0043 6.91202 11.9734 6.87025 11.9317C5.76575 12.963 5.20561 12.9556 4.9992 12.8916C5.36146 13.5263 5.99674 13.9833 6.74363 14.1029C6.61727 13.9329 6.43168 13.4152 7.01898 12.0216ZM6.788 11.5311C5.29278 10.8581 5.18582 10.3197 5.19449 10.1559C4.86766 10.5735 4.67457 11.0973 4.67457 11.6678C4.67457 11.8821 4.7016 12.0891 4.75334 12.2864C4.86495 12.0942 5.27674 11.7147 6.76329 11.7084C6.762 11.6949 6.76084 11.6813 6.76084 11.6678C6.76097 11.6198 6.7695 11.5729 6.788 11.5311ZM8.94436 9.99929C8.94436 10.2039 8.78826 10.73 7.45147 11.473C7.48225 11.5211 7.50062 11.5778 7.50424 11.6381C8.99351 11.5124 9.43686 11.855 9.56593 12.0361C9.58313 11.9153 9.59297 11.7934 9.59297 11.6677C9.59309 11.0247 9.34723 10.438 8.94436 9.99929ZM6.788 11.5311C5.29278 10.8581 5.18582 10.3197 5.19449 10.1559C4.86766 10.5735 4.67457 11.0973 4.67457 11.6678C4.67457 11.8821 4.7016 12.0891 4.75334 12.2864C4.86495 12.0942 5.27674 11.7147 6.76329 11.7084C6.762 11.6949 6.76084 11.6813 6.76084 11.6678C6.76097 11.6198 6.7695 11.5729 6.788 11.5311ZM7.01898 12.0216C6.96233 12.0043 6.91202 11.9734 6.87025 11.9317C5.76575 12.963 5.20561 12.9556 4.9992 12.8916C5.36146 13.5263 5.99674 13.9833 6.74363 14.1029C6.61727 13.9329 6.43168 13.4152 7.01898 12.0216ZM7.27946 12.0056L7.28075 12.0117L7.28192 12.0104C7.28192 12.0092 7.28075 12.0068 7.27946 12.0056ZM7.13448 9.20206C6.73885 9.20206 6.36534 9.29572 6.03489 9.46201C6.24609 9.53478 6.69953 9.85998 7.01782 11.3142C7.05468 11.3006 7.09412 11.2945 7.13448 11.2945C7.15543 11.2945 7.17625 11.2958 7.19604 11.2994C7.53994 9.67889 8.04744 9.47187 8.20341 9.44735C7.88021 9.28949 7.51795 9.20206 7.13448 9.20206ZM7.41823 11.9081C7.3815 11.9526 7.33468 11.9882 7.28179 12.0104C7.98963 13.2736 7.89871 13.8304 7.79162 14.0438C8.51045 13.8442 9.09788 13.3253 9.39004 12.6487C9.22449 12.7376 8.68996 12.8533 7.41823 11.9081ZM8.94436 9.99929C8.94436 10.2039 8.78826 10.73 7.45147 11.473C7.48225 11.5211 7.50062 11.5778 7.50424 11.6381C8.99351 11.5124 9.43686 11.855 9.56593 12.0361C9.58313 11.9153 9.59297 11.7934 9.59297 11.6677C9.59309 11.0247 9.34723 10.438 8.94436 9.99929ZM7.41823 11.9081C7.3815 11.9526 7.33468 11.9882 7.28179 12.0104C7.98963 13.2736 7.89871 13.8304 7.79162 14.0438C8.51045 13.8442 9.09788 13.3253 9.39004 12.6487C9.22449 12.7376 8.68996 12.8533 7.41823 11.9081ZM7.13448 9.20206C6.73885 9.20206 6.36534 9.29572 6.03489 9.46201C6.24609 9.53478 6.69953 9.85998 7.01782 11.3142C7.05468 11.3006 7.09412 11.2945 7.13448 11.2945C7.15543 11.2945 7.17625 11.2958 7.19604 11.2994C7.53994 9.67889 8.04744 9.47187 8.20341 9.44735C7.88021 9.28949 7.51795 9.20206 7.13448 9.20206ZM7.27946 12.0056L7.28075 12.0117L7.28192 12.0104C7.28192 12.0092 7.28075 12.0068 7.27946 12.0056ZM7.01898 12.0216C6.96233 12.0043 6.91202 11.9734 6.87025 11.9317C5.76575 12.963 5.20561 12.9556 4.9992 12.8916C5.36146 13.5263 5.99674 13.9833 6.74363 14.1029C6.61727 13.9329 6.43168 13.4152 7.01898 12.0216ZM6.788 11.5311C5.29278 10.8581 5.18582 10.3197 5.19449 10.1559C4.86766 10.5735 4.67457 11.0973 4.67457 11.6678C4.67457 11.8821 4.7016 12.0891 4.75334 12.2864C4.86495 12.0942 5.27674 11.7147 6.76329 11.7084C6.762 11.6949 6.76084 11.6813 6.76084 11.6678C6.76097 11.6198 6.7695 11.5729 6.788 11.5311ZM7.27946 12.0056L7.28075 12.0117L7.28192 12.0104C7.28192 12.0092 7.28075 12.0068 7.27946 12.0056ZM7.27946 12.0056L7.28075 12.0117L7.28192 12.0104C7.28192 12.0092 7.28075 12.0068 7.27946 12.0056ZM7.27946 12.0056L7.28075 12.0117L7.28192 12.0104C7.28192 12.0092 7.28075 12.0068 7.27946 12.0056ZM7.27946 12.0056L7.28075 12.0117L7.28192 12.0104C7.28192 12.0092 7.28075 12.0068 7.27946 12.0056ZM7.27946 12.0056L7.28075 12.0117L7.28192 12.0104C7.28192 12.0092 7.28075 12.0068 7.27946 12.0056ZM7.27946 12.0056L7.28075 12.0117L7.28192 12.0104C7.28192 12.0092 7.28075 12.0068 7.27946 12.0056ZM7.27946 12.0056L7.28075 12.0117L7.28192 12.0104C7.28192 12.0092 7.28075 12.0068 7.27946 12.0056ZM7.27946 12.0056L7.28075 12.0117L7.28192 12.0104C7.28192 12.0092 7.28075 12.0068 7.27946 12.0056ZM7.27946 12.0056L7.28075 12.0117L7.28192 12.0104C7.28192 12.0092 7.28075 12.0068 7.27946 12.0056ZM7.27946 12.0056L7.28075 12.0117L7.28192 12.0104C7.28192 12.0092 7.28075 12.0068 7.27946 12.0056Z" fill="#009999"/>
<path d="M6.76107 11.6677C6.76107 11.6812 6.76223 11.6948 6.76353 11.7083C5.27698 11.7146 4.86518 12.0942 4.75357 12.2863C4.70183 12.089 4.6748 11.8821 4.6748 11.6677C4.6748 11.0972 4.86777 10.5733 5.19472 10.1558C5.18618 10.3196 5.29302 10.858 6.78823 11.531C6.76961 11.5726 6.76107 11.6196 6.76107 11.6677Z" fill="#009999"/>
<path d="M6.74248 14.1023C5.99559 13.9827 5.36018 13.5257 4.99805 12.891C5.20446 12.9551 5.7646 12.9625 6.8691 11.9312C6.91087 11.9729 6.96131 12.0039 7.01783 12.021C6.43053 13.4147 6.61613 13.9324 6.74248 14.1023Z" fill="#009999"/>
<path d="M7.28178 12.0097L7.2806 12.011L7.2793 12.0049C7.2806 12.0061 7.28178 12.0085 7.28178 12.0097Z" fill="#009999"/>
<path d="M8.20368 9.44695C8.0477 9.47147 7.5402 9.6785 7.1963 11.299C7.17665 11.2954 7.15582 11.2941 7.13474 11.2941C7.09426 11.2941 7.05495 11.3002 7.01809 11.3138C6.6998 9.85958 6.24636 9.53426 6.03516 9.46161C6.3656 9.29532 6.73911 9.20166 7.13474 9.20166C7.51821 9.20166 7.88047 9.28909 8.20368 9.44695Z" fill="#009999"/>
<path d="M9.3895 12.6484C9.09721 13.325 8.50978 13.8438 7.79108 14.0435C7.89804 13.8301 7.98896 13.2732 7.28125 12.0101C7.33415 11.9879 7.38096 11.9522 7.4177 11.9077C8.68929 12.853 9.22382 12.7372 9.3895 12.6484Z" fill="#009999"/>
<path d="M9.59266 11.6674C9.59266 11.7931 9.58284 11.9151 9.56564 12.0358C9.43656 11.8547 8.99308 11.5122 7.50394 11.6378C7.50032 11.5775 7.48195 11.5208 7.45117 11.4727C8.78795 10.7296 8.94406 10.2036 8.94406 9.99902C9.3468 10.4375 9.59266 11.0242 9.59266 11.6674Z" fill="#009999"/>
<path d="M7.27969 12.0052L7.28099 12.0113L7.28215 12.01C7.28215 12.0088 7.28099 12.0064 7.27969 12.0052ZM7.27969 12.0052L7.28099 12.0113L7.28215 12.01C7.28215 12.0088 7.28099 12.0064 7.27969 12.0052ZM7.27969 12.0052L7.28099 12.0113L7.28215 12.01C7.28215 12.0088 7.28099 12.0064 7.27969 12.0052ZM7.27969 12.0052L7.28099 12.0113L7.28215 12.01C7.28215 12.0088 7.28099 12.0064 7.27969 12.0052ZM7.27969 12.0052L7.28099 12.0113L7.28215 12.01C7.28215 12.0088 7.28099 12.0064 7.27969 12.0052ZM7.27969 12.0052L7.28099 12.0113L7.28215 12.01C7.28215 12.0088 7.28099 12.0064 7.27969 12.0052ZM7.27969 12.0052L7.28099 12.0113L7.28215 12.01C7.28215 12.0088 7.28099 12.0064 7.27969 12.0052ZM7.27969 12.0052L7.28099 12.0113L7.28215 12.01C7.28215 12.0088 7.28099 12.0064 7.27969 12.0052ZM7.27969 12.0052L7.28099 12.0113L7.28215 12.01C7.28215 12.0088 7.28099 12.0064 7.27969 12.0052ZM7.27969 12.0052L7.28099 12.0113L7.28215 12.01C7.28215 12.0088 7.28099 12.0064 7.27969 12.0052ZM8.9446 9.99889C8.9446 10.2035 8.78849 10.7296 7.45171 11.4726C7.48249 11.5207 7.50085 11.5774 7.50447 11.6377C8.99374 11.512 9.43709 11.8546 9.56616 12.0357C9.58337 11.9149 9.5932 11.793 9.5932 11.6673C9.59333 11.0243 9.34747 10.4376 8.9446 9.99889ZM7.41847 11.9077C7.38174 11.9522 7.33492 11.9878 7.28202 12.01C7.98986 13.2732 7.89894 13.83 7.79185 14.0434C8.51068 13.8438 9.09811 13.3249 9.39027 12.6483C9.22473 12.7372 8.6902 12.8529 7.41847 11.9077ZM7.13471 9.20166C6.73908 9.20166 6.36557 9.29532 6.03513 9.46161C6.24633 9.53438 6.69977 9.85958 7.01806 11.3138C7.05492 11.3002 7.09436 11.2941 7.13471 11.2941C7.15566 11.2941 7.17649 11.2954 7.19628 11.299C7.54017 9.6785 8.04767 9.47147 8.20365 9.44695C7.88045 9.28909 7.51818 9.20166 7.13471 9.20166ZM7.27969 12.0052L7.28099 12.0113L7.28215 12.01C7.28215 12.0088 7.28099 12.0064 7.27969 12.0052ZM7.01922 12.0212C6.96257 12.0039 6.91226 11.973 6.87048 11.9313C5.76598 12.9626 5.20585 12.9552 4.99943 12.8912C5.36169 13.5259 5.99697 13.9829 6.74387 14.1025C6.61751 13.9325 6.43192 13.4148 7.01922 12.0212ZM6.78823 11.5307C5.29302 10.8577 5.18606 10.3193 5.19472 10.1555C4.8679 10.5731 4.6748 11.0969 4.6748 11.6674C4.6748 11.8817 4.70184 12.0887 4.75357 12.286C4.86518 12.0938 5.27698 11.7143 6.76353 11.708C6.76223 11.6945 6.76107 11.6809 6.76107 11.6674C6.7612 11.6194 6.76974 11.5725 6.78823 11.5307ZM7.27969 12.0052L7.28099 12.0113L7.28215 12.01C7.28215 12.0088 7.28099 12.0064 7.27969 12.0052ZM7.27969 12.0052L7.28099 12.0113L7.28215 12.01C7.28215 12.0088 7.28099 12.0064 7.27969 12.0052ZM7.27969 12.0052L7.28099 12.0113L7.28215 12.01C7.28215 12.0088 7.28099 12.0064 7.27969 12.0052ZM7.27969 12.0052L7.28099 12.0113L7.28215 12.01C7.28215 12.0088 7.28099 12.0064 7.27969 12.0052ZM7.27969 12.0052L7.28099 12.0113L7.28215 12.01C7.28215 12.0088 7.28099 12.0064 7.27969 12.0052ZM7.27969 12.0052L7.28099 12.0113L7.28215 12.01C7.28215 12.0088 7.28099 12.0064 7.27969 12.0052ZM7.27969 12.0052L7.28099 12.0113L7.28215 12.01C7.28215 12.0088 7.28099 12.0064 7.27969 12.0052ZM7.27969 12.0052L7.28099 12.0113L7.28215 12.01C7.28215 12.0088 7.28099 12.0064 7.27969 12.0052ZM7.27969 12.0052L7.28099 12.0113L7.28215 12.01C7.28215 12.0088 7.28099 12.0064 7.27969 12.0052ZM7.27969 12.0052L7.28099 12.0113L7.28215 12.01C7.28215 12.0088 7.28099 12.0064 7.27969 12.0052Z" fill="#009999"/>
<path d="M7.50758 11.6678C7.50758 11.7565 7.47551 11.839 7.42403 11.9032C7.42157 11.9057 7.42028 11.9068 7.41912 11.908C7.38239 11.9525 7.33557 11.9882 7.28267 12.0103C7.28267 12.009 7.28151 12.0067 7.28021 12.0055L7.28151 12.0116C7.23728 12.0302 7.18684 12.0413 7.13523 12.0413C7.09591 12.0413 7.05789 12.035 7.02233 12.0228C7.0209 12.0241 7.0209 12.0228 7.01974 12.0216C6.96309 12.0044 6.91278 11.9735 6.87101 11.9317C6.86984 11.9304 6.86868 11.928 6.86622 11.9267C6.81216 11.8711 6.7753 11.7975 6.76547 11.7172C6.76418 11.7148 6.76418 11.7111 6.76418 11.7086C6.76288 11.6951 6.76172 11.6815 6.76172 11.668C6.76172 11.6199 6.77026 11.5731 6.78875 11.5312C6.78875 11.5274 6.79121 11.5226 6.79237 11.5187C6.83415 11.4239 6.91278 11.3499 7.01107 11.3166C7.01366 11.3141 7.01599 11.3141 7.01858 11.3141C7.05544 11.3005 7.09488 11.2944 7.13523 11.2944C7.15618 11.2944 7.17701 11.2957 7.1968 11.2994C7.20042 11.3005 7.20417 11.3005 7.20779 11.3017C7.30983 11.3214 7.397 11.383 7.44977 11.4681C7.45106 11.4694 7.45235 11.4706 7.45235 11.4729C7.48314 11.521 7.5015 11.5777 7.50513 11.638C7.50642 11.6393 7.50642 11.6418 7.50642 11.6431V11.6443C7.50758 11.6528 7.50758 11.6591 7.50758 11.6678Z" fill="#009999"/>
<path d="M7.28178 12.0097L7.2806 12.011L7.2793 12.0049C7.2806 12.0061 7.28178 12.0085 7.28178 12.0097Z" fill="#009999"/>
<path d="M7.28178 12.0097L7.2806 12.011L7.2793 12.0049C7.2806 12.0061 7.28178 12.0085 7.28178 12.0097Z" fill="#009999"/>
<path d="M31.8595 12.1028L31.8608 12.1089L31.862 12.1076C31.8619 12.1064 31.8608 12.1039 31.8595 12.1028ZM31.8595 12.1028L31.8608 12.1089L31.862 12.1076C31.8619 12.1064 31.8608 12.1039 31.8595 12.1028ZM31.8595 12.1028L31.8608 12.1089L31.862 12.1076C31.8619 12.1064 31.8608 12.1039 31.8595 12.1028ZM31.8595 12.1028L31.8608 12.1089L31.862 12.1076C31.8619 12.1064 31.8608 12.1039 31.8595 12.1028ZM31.8595 12.1028L31.8608 12.1089L31.862 12.1076C31.8619 12.1064 31.8608 12.1039 31.8595 12.1028ZM31.8595 12.1028L31.8608 12.1089L31.862 12.1076C31.8619 12.1064 31.8608 12.1039 31.8595 12.1028ZM31.8595 12.1028L31.8608 12.1089L31.862 12.1076C31.8619 12.1064 31.8608 12.1039 31.8595 12.1028ZM31.8595 12.1028L31.8608 12.1089L31.862 12.1076C31.8619 12.1064 31.8608 12.1039 31.8595 12.1028ZM31.8595 12.1028L31.8608 12.1089L31.862 12.1076C31.8619 12.1064 31.8608 12.1039 31.8595 12.1028ZM31.8595 12.1028L31.8608 12.1089L31.862 12.1076C31.8619 12.1064 31.8608 12.1039 31.8595 12.1028ZM33.5244 10.0965C33.5244 10.301 33.3683 10.8272 32.0315 11.5702C32.0623 11.6183 32.0807 11.675 32.0843 11.7353C33.5736 11.6096 34.0169 11.9522 34.146 12.1333C34.1632 12.0125 34.173 11.8906 34.173 11.7649C34.173 11.1219 33.9273 10.5352 33.5244 10.0965ZM31.3681 11.6283C29.8729 10.9553 29.7659 10.4169 29.7746 10.253C29.4477 10.6707 29.2548 11.1945 29.2548 11.765C29.2548 11.9793 29.2818 12.1863 29.3335 12.3836C29.4451 12.1914 29.8569 11.8118 31.3435 11.8056C31.3422 11.7921 31.341 11.7785 31.341 11.765C31.341 11.717 31.3494 11.67 31.3681 11.6283ZM31.5991 12.1187C31.5424 12.1015 31.4921 12.0706 31.4503 12.0288C30.3458 13.0602 29.7857 13.0528 29.5793 12.9887C29.9415 13.6234 30.5768 14.0804 31.3237 14.2C31.1973 14.0301 31.0118 13.5124 31.5991 12.1187ZM31.8595 12.1028L31.8608 12.1089L31.862 12.1076C31.8619 12.1064 31.8608 12.1039 31.8595 12.1028ZM31.7146 9.29923C31.3189 9.29923 30.9454 9.39288 30.615 9.55918C30.8262 9.63195 31.2796 9.95715 31.5979 11.4114C31.6348 11.3978 31.6742 11.3917 31.7146 11.3917C31.7355 11.3917 31.7563 11.393 31.7761 11.3966C32.12 9.77606 32.6275 9.56903 32.7835 9.54452C32.4602 9.38665 32.0979 9.29923 31.7146 9.29923ZM31.9983 12.0052C31.9616 12.0497 31.9148 12.0854 31.8619 12.1076C32.5697 13.3707 32.4787 13.9276 32.3717 14.141C33.0905 13.9414 33.678 13.4225 33.9701 12.7459C33.8046 12.8348 33.27 12.9505 31.9983 12.0052ZM33.5244 10.0965C33.5244 10.301 33.3683 10.8272 32.0315 11.5702C32.0623 11.6183 32.0807 11.675 32.0843 11.7353C33.5736 11.6096 34.0169 11.9522 34.146 12.1333C34.1632 12.0125 34.173 11.8906 34.173 11.7649C34.173 11.1219 33.9273 10.5352 33.5244 10.0965ZM31.9983 12.0052C31.9616 12.0497 31.9148 12.0854 31.8619 12.1076C32.5697 13.3707 32.4787 13.9276 32.3717 14.141C33.0905 13.9414 33.678 13.4225 33.9701 12.7459C33.8046 12.8348 33.27 12.9505 31.9983 12.0052ZM31.7146 9.29923C31.3189 9.29923 30.9454 9.39288 30.615 9.55918C30.8262 9.63195 31.2796 9.95715 31.5979 11.4114C31.6348 11.3978 31.6742 11.3917 31.7146 11.3917C31.7355 11.3917 31.7563 11.393 31.7761 11.3966C32.12 9.77606 32.6275 9.56903 32.7835 9.54452C32.4602 9.38665 32.0979 9.29923 31.7146 9.29923ZM31.8595 12.1028L31.8608 12.1089L31.862 12.1076C31.8619 12.1064 31.8608 12.1039 31.8595 12.1028ZM31.5991 12.1187C31.5424 12.1015 31.4921 12.0706 31.4503 12.0288C30.3458 13.0602 29.7857 13.0528 29.5793 12.9887C29.9415 13.6234 30.5768 14.0804 31.3237 14.2C31.1973 14.0301 31.0118 13.5124 31.5991 12.1187ZM31.3681 11.6283C29.8729 10.9553 29.7659 10.4169 29.7746 10.253C29.4477 10.6707 29.2548 11.1945 29.2548 11.765C29.2548 11.9793 29.2818 12.1863 29.3335 12.3836C29.4451 12.1914 29.8569 11.8118 31.3435 11.8056C31.3422 11.7921 31.341 11.7785 31.341 11.765C31.341 11.717 31.3494 11.67 31.3681 11.6283ZM33.5244 10.0965C33.5244 10.301 33.3683 10.8272 32.0315 11.5702C32.0623 11.6183 32.0807 11.675 32.0843 11.7353C33.5736 11.6096 34.0169 11.9522 34.146 12.1333C34.1632 12.0125 34.173 11.8906 34.173 11.7649C34.173 11.1219 33.9273 10.5352 33.5244 10.0965ZM31.3681 11.6283C29.8729 10.9553 29.7659 10.4169 29.7746 10.253C29.4477 10.6707 29.2548 11.1945 29.2548 11.765C29.2548 11.9793 29.2818 12.1863 29.3335 12.3836C29.4451 12.1914 29.8569 11.8118 31.3435 11.8056C31.3422 11.7921 31.341 11.7785 31.341 11.765C31.341 11.717 31.3494 11.67 31.3681 11.6283ZM31.5991 12.1187C31.5424 12.1015 31.4921 12.0706 31.4503 12.0288C30.3458 13.0602 29.7857 13.0528 29.5793 12.9887C29.9415 13.6234 30.5768 14.0804 31.3237 14.2C31.1973 14.0301 31.0118 13.5124 31.5991 12.1187ZM31.8595 12.1028L31.8608 12.1089L31.862 12.1076C31.8619 12.1064 31.8608 12.1039 31.8595 12.1028ZM31.7146 9.29923C31.3189 9.29923 30.9454 9.39288 30.615 9.55918C30.8262 9.63195 31.2796 9.95715 31.5979 11.4114C31.6348 11.3978 31.6742 11.3917 31.7146 11.3917C31.7355 11.3917 31.7563 11.393 31.7761 11.3966C32.12 9.77606 32.6275 9.56903 32.7835 9.54452C32.4602 9.38665 32.0979 9.29923 31.7146 9.29923ZM31.9983 12.0052C31.9616 12.0497 31.9148 12.0854 31.8619 12.1076C32.5697 13.3707 32.4787 13.9276 32.3717 14.141C33.0905 13.9414 33.678 13.4225 33.9701 12.7459C33.8046 12.8348 33.27 12.9505 31.9983 12.0052ZM33.5244 10.0965C33.5244 10.301 33.3683 10.8272 32.0315 11.5702C32.0623 11.6183 32.0807 11.675 32.0843 11.7353C33.5736 11.6096 34.0169 11.9522 34.146 12.1333C34.1632 12.0125 34.173 11.8906 34.173 11.7649C34.173 11.1219 33.9273 10.5352 33.5244 10.0965ZM31.9983 12.0052C31.9616 12.0497 31.9148 12.0854 31.8619 12.1076C32.5697 13.3707 32.4787 13.9276 32.3717 14.141C33.0905 13.9414 33.678 13.4225 33.9701 12.7459C33.8046 12.8348 33.27 12.9505 31.9983 12.0052ZM31.7146 9.29923C31.3189 9.29923 30.9454 9.39288 30.615 9.55918C30.8262 9.63195 31.2796 9.95715 31.5979 11.4114C31.6348 11.3978 31.6742 11.3917 31.7146 11.3917C31.7355 11.3917 31.7563 11.393 31.7761 11.3966C32.12 9.77606 32.6275 9.56903 32.7835 9.54452C32.4602 9.38665 32.0979 9.29923 31.7146 9.29923ZM31.8595 12.1028L31.8608 12.1089L31.862 12.1076C31.8619 12.1064 31.8608 12.1039 31.8595 12.1028ZM31.5991 12.1187C31.5424 12.1015 31.4921 12.0706 31.4503 12.0288C30.3458 13.0602 29.7857 13.0528 29.5793 12.9887C29.9415 13.6234 30.5768 14.0804 31.3237 14.2C31.1973 14.0301 31.0118 13.5124 31.5991 12.1187ZM31.3681 11.6283C29.8729 10.9553 29.7659 10.4169 29.7746 10.253C29.4477 10.6707 29.2548 11.1945 29.2548 11.765C29.2548 11.9793 29.2818 12.1863 29.3335 12.3836C29.4451 12.1914 29.8569 11.8118 31.3435 11.8056C31.3422 11.7921 31.341 11.7785 31.341 11.765C31.341 11.717 31.3494 11.67 31.3681 11.6283ZM33.5244 10.0965C33.5244 10.301 33.3683 10.8272 32.0315 11.5702C32.0623 11.6183 32.0807 11.675 32.0843 11.7353C33.5736 11.6096 34.0169 11.9522 34.146 12.1333C34.1632 12.0125 34.173 11.8906 34.173 11.7649C34.173 11.1219 33.9273 10.5352 33.5244 10.0965ZM31.3681 11.6283C29.8729 10.9553 29.7659 10.4169 29.7746 10.253C29.4477 10.6707 29.2548 11.1945 29.2548 11.765C29.2548 11.9793 29.2818 12.1863 29.3335 12.3836C29.4451 12.1914 29.8569 11.8118 31.3435 11.8056C31.3422 11.7921 31.341 11.7785 31.341 11.765C31.341 11.717 31.3494 11.67 31.3681 11.6283ZM31.5991 12.1187C31.5424 12.1015 31.4921 12.0706 31.4503 12.0288C30.3458 13.0602 29.7857 13.0528 29.5793 12.9887C29.9415 13.6234 30.5768 14.0804 31.3237 14.2C31.1973 14.0301 31.0118 13.5124 31.5991 12.1187ZM31.8595 12.1028L31.8608 12.1089L31.862 12.1076C31.8619 12.1064 31.8608 12.1039 31.8595 12.1028ZM31.7146 9.29923C31.3189 9.29923 30.9454 9.39288 30.615 9.55918C30.8262 9.63195 31.2796 9.95715 31.5979 11.4114C31.6348 11.3978 31.6742 11.3917 31.7146 11.3917C31.7355 11.3917 31.7563 11.393 31.7761 11.3966C32.12 9.77606 32.6275 9.56903 32.7835 9.54452C32.4602 9.38665 32.0979 9.29923 31.7146 9.29923ZM31.9983 12.0052C31.9616 12.0497 31.9148 12.0854 31.8619 12.1076C32.5697 13.3707 32.4787 13.9276 32.3717 14.141C33.0905 13.9414 33.678 13.4225 33.9701 12.7459C33.8046 12.8348 33.27 12.9505 31.9983 12.0052ZM33.5244 10.0965C33.5244 10.301 33.3683 10.8272 32.0315 11.5702C32.0623 11.6183 32.0807 11.675 32.0843 11.7353C33.5736 11.6096 34.0169 11.9522 34.146 12.1333C34.1632 12.0125 34.173 11.8906 34.173 11.7649C34.173 11.1219 33.9273 10.5352 33.5244 10.0965ZM31.9983 12.0052C31.9616 12.0497 31.9148 12.0854 31.8619 12.1076C32.5697 13.3707 32.4787 13.9276 32.3717 14.141C33.0905 13.9414 33.678 13.4225 33.9701 12.7459C33.8046 12.8348 33.27 12.9505 31.9983 12.0052ZM31.7146 9.29923C31.3189 9.29923 30.9454 9.39288 30.615 9.55918C30.8262 9.63195 31.2796 9.95715 31.5979 11.4114C31.6348 11.3978 31.6742 11.3917 31.7146 11.3917C31.7355 11.3917 31.7563 11.393 31.7761 11.3966C32.12 9.77606 32.6275 9.56903 32.7835 9.54452C32.4602 9.38665 32.0979 9.29923 31.7146 9.29923ZM31.8595 12.1028L31.8608 12.1089L31.862 12.1076C31.8619 12.1064 31.8608 12.1039 31.8595 12.1028ZM31.5991 12.1187C31.5424 12.1015 31.4921 12.0706 31.4503 12.0288C30.3458 13.0602 29.7857 13.0528 29.5793 12.9887C29.9415 13.6234 30.5768 14.0804 31.3237 14.2C31.1973 14.0301 31.0118 13.5124 31.5991 12.1187ZM31.3681 11.6283C29.8729 10.9553 29.7659 10.4169 29.7746 10.253C29.4477 10.6707 29.2548 11.1945 29.2548 11.765C29.2548 11.9793 29.2818 12.1863 29.3335 12.3836C29.4451 12.1914 29.8569 11.8118 31.3435 11.8056C31.3422 11.7921 31.341 11.7785 31.341 11.765C31.341 11.717 31.3494 11.67 31.3681 11.6283ZM33.5244 10.0965C33.5244 10.301 33.3683 10.8272 32.0315 11.5702C32.0623 11.6183 32.0807 11.675 32.0843 11.7353C33.5736 11.6096 34.0169 11.9522 34.146 12.1333C34.1632 12.0125 34.173 11.8906 34.173 11.7649C34.173 11.1219 33.9273 10.5352 33.5244 10.0965ZM31.3681 11.6283C29.8729 10.9553 29.7659 10.4169 29.7746 10.253C29.4477 10.6707 29.2548 11.1945 29.2548 11.765C29.2548 11.9793 29.2818 12.1863 29.3335 12.3836C29.4451 12.1914 29.8569 11.8118 31.3435 11.8056C31.3422 11.7921 31.341 11.7785 31.341 11.765C31.341 11.717 31.3494 11.67 31.3681 11.6283ZM31.5991 12.1187C31.5424 12.1015 31.4921 12.0706 31.4503 12.0288C30.3458 13.0602 29.7857 13.0528 29.5793 12.9887C29.9415 13.6234 30.5768 14.0804 31.3237 14.2C31.1973 14.0301 31.0118 13.5124 31.5991 12.1187ZM31.8595 12.1028L31.8608 12.1089L31.862 12.1076C31.8619 12.1064 31.8608 12.1039 31.8595 12.1028ZM31.7146 9.29923C31.3189 9.29923 30.9454 9.39288 30.615 9.55918C30.8262 9.63195 31.2796 9.95715 31.5979 11.4114C31.6348 11.3978 31.6742 11.3917 31.7146 11.3917C31.7355 11.3917 31.7563 11.393 31.7761 11.3966C32.12 9.77606 32.6275 9.56903 32.7835 9.54452C32.4602 9.38665 32.0979 9.29923 31.7146 9.29923ZM31.9983 12.0052C31.9616 12.0497 31.9148 12.0854 31.8619 12.1076C32.5697 13.3707 32.4787 13.9276 32.3717 14.141C33.0905 13.9414 33.678 13.4225 33.9701 12.7459C33.8046 12.8348 33.27 12.9505 31.9983 12.0052ZM33.5244 10.0965C33.5244 10.301 33.3683 10.8272 32.0315 11.5702C32.0623 11.6183 32.0807 11.675 32.0843 11.7353C33.5736 11.6096 34.0169 11.9522 34.146 12.1333C34.1632 12.0125 34.173 11.8906 34.173 11.7649C34.173 11.1219 33.9273 10.5352 33.5244 10.0965ZM31.9983 12.0052C31.9616 12.0497 31.9148 12.0854 31.8619 12.1076C32.5697 13.3707 32.4787 13.9276 32.3717 14.141C33.0905 13.9414 33.678 13.4225 33.9701 12.7459C33.8046 12.8348 33.27 12.9505 31.9983 12.0052ZM31.7146 9.29923C31.3189 9.29923 30.9454 9.39288 30.615 9.55918C30.8262 9.63195 31.2796 9.95715 31.5979 11.4114C31.6348 11.3978 31.6742 11.3917 31.7146 11.3917C31.7355 11.3917 31.7563 11.393 31.7761 11.3966C32.12 9.77606 32.6275 9.56903 32.7835 9.54452C32.4602 9.38665 32.0979 9.29923 31.7146 9.29923ZM31.8595 12.1028L31.8608 12.1089L31.862 12.1076C31.8619 12.1064 31.8608 12.1039 31.8595 12.1028ZM31.5991 12.1187C31.5424 12.1015 31.4921 12.0706 31.4503 12.0288C30.3458 13.0602 29.7857 13.0528 29.5793 12.9887C29.9415 13.6234 30.5768 14.0804 31.3237 14.2C31.1973 14.0301 31.0118 13.5124 31.5991 12.1187ZM31.3681 11.6283C29.8729 10.9553 29.7659 10.4169 29.7746 10.253C29.4477 10.6707 29.2548 11.1945 29.2548 11.765C29.2548 11.9793 29.2818 12.1863 29.3335 12.3836C29.4451 12.1914 29.8569 11.8118 31.3435 11.8056C31.3422 11.7921 31.341 11.7785 31.341 11.765C31.341 11.717 31.3494 11.67 31.3681 11.6283ZM33.5244 10.0965C33.5244 10.301 33.3683 10.8272 32.0315 11.5702C32.0623 11.6183 32.0807 11.675 32.0843 11.7353C33.5736 11.6096 34.0169 11.9522 34.146 12.1333C34.1632 12.0125 34.173 11.8906 34.173 11.7649C34.173 11.1219 33.9273 10.5352 33.5244 10.0965ZM31.3681 11.6283C29.8729 10.9553 29.7659 10.4169 29.7746 10.253C29.4477 10.6707 29.2548 11.1945 29.2548 11.765C29.2548 11.9793 29.2818 12.1863 29.3335 12.3836C29.4451 12.1914 29.8569 11.8118 31.3435 11.8056C31.3422 11.7921 31.341 11.7785 31.341 11.765C31.341 11.717 31.3494 11.67 31.3681 11.6283ZM31.5991 12.1187C31.5424 12.1015 31.4921 12.0706 31.4503 12.0288C30.3458 13.0602 29.7857 13.0528 29.5793 12.9887C29.9415 13.6234 30.5768 14.0804 31.3237 14.2C31.1973 14.0301 31.0118 13.5124 31.5991 12.1187ZM31.8595 12.1028L31.8608 12.1089L31.862 12.1076C31.8619 12.1064 31.8608 12.1039 31.8595 12.1028ZM31.7146 9.29923C31.3189 9.29923 30.9454 9.39288 30.615 9.55918C30.8262 9.63195 31.2796 9.95715 31.5979 11.4114C31.6348 11.3978 31.6742 11.3917 31.7146 11.3917C31.7355 11.3917 31.7563 11.393 31.7761 11.3966C32.12 9.77606 32.6275 9.56903 32.7835 9.54452C32.4602 9.38665 32.0979 9.29923 31.7146 9.29923ZM31.9983 12.0052C31.9616 12.0497 31.9148 12.0854 31.8619 12.1076C32.5697 13.3707 32.4787 13.9276 32.3717 14.141C33.0905 13.9414 33.678 13.4225 33.9701 12.7459C33.8046 12.8348 33.27 12.9505 31.9983 12.0052ZM33.5244 10.0965C33.5244 10.301 33.3683 10.8272 32.0315 11.5702C32.0623 11.6183 32.0807 11.675 32.0843 11.7353C33.5736 11.6096 34.0169 11.9522 34.146 12.1333C34.1632 12.0125 34.173 11.8906 34.173 11.7649C34.173 11.1219 33.9273 10.5352 33.5244 10.0965ZM31.9983 12.0052C31.9616 12.0497 31.9148 12.0854 31.8619 12.1076C32.5697 13.3707 32.4787 13.9276 32.3717 14.141C33.0905 13.9414 33.678 13.4225 33.9701 12.7459C33.8046 12.8348 33.27 12.9505 31.9983 12.0052ZM31.7146 9.29923C31.3189 9.29923 30.9454 9.39288 30.615 9.55918C30.8262 9.63195 31.2796 9.95715 31.5979 11.4114C31.6348 11.3978 31.6742 11.3917 31.7146 11.3917C31.7355 11.3917 31.7563 11.393 31.7761 11.3966C32.12 9.77606 32.6275 9.56903 32.7835 9.54452C32.4602 9.38665 32.0979 9.29923 31.7146 9.29923ZM31.8595 12.1028L31.8608 12.1089L31.862 12.1076C31.8619 12.1064 31.8608 12.1039 31.8595 12.1028ZM31.5991 12.1187C31.5424 12.1015 31.4921 12.0706 31.4503 12.0288C30.3458 13.0602 29.7857 13.0528 29.5793 12.9887C29.9415 13.6234 30.5768 14.0804 31.3237 14.2C31.1973 14.0301 31.0118 13.5124 31.5991 12.1187ZM31.3681 11.6283C29.8729 10.9553 29.7659 10.4169 29.7746 10.253C29.4477 10.6707 29.2548 11.1945 29.2548 11.765C29.2548 11.9793 29.2818 12.1863 29.3335 12.3836C29.4451 12.1914 29.8569 11.8118 31.3435 11.8056C31.3422 11.7921 31.341 11.7785 31.341 11.765C31.341 11.717 31.3494 11.67 31.3681 11.6283ZM33.5244 10.0965C33.5244 10.301 33.3683 10.8272 32.0315 11.5702C32.0623 11.6183 32.0807 11.675 32.0843 11.7353C33.5736 11.6096 34.0169 11.9522 34.146 12.1333C34.1632 12.0125 34.173 11.8906 34.173 11.7649C34.173 11.1219 33.9273 10.5352 33.5244 10.0965ZM31.3681 11.6283C29.8729 10.9553 29.7659 10.4169 29.7746 10.253C29.4477 10.6707 29.2548 11.1945 29.2548 11.765C29.2548 11.9793 29.2818 12.1863 29.3335 12.3836C29.4451 12.1914 29.8569 11.8118 31.3435 11.8056C31.3422 11.7921 31.341 11.7785 31.341 11.765C31.341 11.717 31.3494 11.67 31.3681 11.6283ZM31.5991 12.1187C31.5424 12.1015 31.4921 12.0706 31.4503 12.0288C30.3458 13.0602 29.7857 13.0528 29.5793 12.9887C29.9415 13.6234 30.5768 14.0804 31.3237 14.2C31.1973 14.0301 31.0118 13.5124 31.5991 12.1187ZM31.8595 12.1028L31.8608 12.1089L31.862 12.1076C31.8619 12.1064 31.8608 12.1039 31.8595 12.1028ZM31.7146 9.29923C31.3189 9.29923 30.9454 9.39288 30.615 9.55918C30.8262 9.63195 31.2796 9.95715 31.5979 11.4114C31.6348 11.3978 31.6742 11.3917 31.7146 11.3917C31.7355 11.3917 31.7563 11.393 31.7761 11.3966C32.12 9.77606 32.6275 9.56903 32.7835 9.54452C32.4602 9.38665 32.0979 9.29923 31.7146 9.29923ZM31.9983 12.0052C31.9616 12.0497 31.9148 12.0854 31.8619 12.1076C32.5697 13.3707 32.4787 13.9276 32.3717 14.141C33.0905 13.9414 33.678 13.4225 33.9701 12.7459C33.8046 12.8348 33.27 12.9505 31.9983 12.0052ZM33.5244 10.0965C33.5244 10.301 33.3683 10.8272 32.0315 11.5702C32.0623 11.6183 32.0807 11.675 32.0843 11.7353C33.5736 11.6096 34.0169 11.9522 34.146 12.1333C34.1632 12.0125 34.173 11.8906 34.173 11.7649C34.173 11.1219 33.9273 10.5352 33.5244 10.0965ZM31.9983 12.0052C31.9616 12.0497 31.9148 12.0854 31.8619 12.1076C32.5697 13.3707 32.4787 13.9276 32.3717 14.141C33.0905 13.9414 33.678 13.4225 33.9701 12.7459C33.8046 12.8348 33.27 12.9505 31.9983 12.0052ZM32.7834 9.54452C32.4602 9.38665 32.098 9.29923 31.7146 9.29923C31.3189 9.29923 30.9454 9.39288 30.615 9.55918C30.8262 9.63195 31.2795 9.95715 31.5978 11.4114C31.6346 11.3978 31.6742 11.3917 31.7146 11.3917C31.7355 11.3917 31.7562 11.393 31.776 11.3966C32.1199 9.77606 32.6274 9.56903 32.7834 9.54452ZM31.8608 12.1089L31.862 12.1076C31.862 12.1063 31.8608 12.1039 31.8595 12.1028L31.8608 12.1089ZM31.4503 12.0288C30.3458 13.0602 29.7857 13.0528 29.5793 12.9887C29.9415 13.6234 30.5768 14.0804 31.3237 14.2C31.1972 14.03 31.0118 13.5124 31.5991 12.1187C31.5425 12.1016 31.4921 12.0706 31.4503 12.0288ZM31.341 11.7651C31.341 11.717 31.3494 11.6702 31.3681 11.6283C29.8729 10.9553 29.7659 10.4169 29.7746 10.253C29.4477 10.6707 29.2548 11.1945 29.2548 11.765C29.2548 11.9793 29.2818 12.1863 29.3335 12.3836C29.4451 12.1914 29.8569 11.8118 31.3435 11.8056C31.3422 11.7922 31.341 11.7785 31.341 11.7651ZM33.5244 10.0965C33.5244 10.301 33.3683 10.8272 32.0315 11.5702C32.0623 11.6183 32.0807 11.675 32.0843 11.7353C33.5736 11.6096 34.0169 11.9522 34.146 12.1333C34.1632 12.0125 34.173 11.8906 34.173 11.7649C34.173 11.1219 33.9273 10.5352 33.5244 10.0965ZM31.7146 8.53027C29.9331 8.53027 28.4893 9.97816 28.4893 11.7651C28.4893 13.5518 29.933 15 31.7146 15C33.4949 15 34.9399 13.552 34.9399 11.7651C34.9397 9.97816 33.4948 8.53027 31.7146 8.53027ZM31.7146 14.3799C30.2744 14.3799 29.1062 13.2094 29.1062 11.7651C29.1062 10.3207 30.2744 9.14889 31.7146 9.14889C33.1547 9.14889 34.3218 10.3207 34.3218 11.7651C34.3218 13.2093 33.1545 14.3799 31.7146 14.3799ZM31.9983 12.0052C31.9616 12.0497 31.9148 12.0854 31.8619 12.1076C32.5697 13.3707 32.4787 13.9276 32.3717 14.141C33.0905 13.9414 33.678 13.4225 33.9701 12.7459C33.8046 12.8348 33.27 12.9505 31.9983 12.0052ZM32.7834 9.54452C32.4602 9.38665 32.098 9.29923 31.7146 9.29923C31.3189 9.29923 30.9454 9.39288 30.615 9.55918C30.8262 9.63195 31.2795 9.95715 31.5978 11.4114C31.6346 11.3978 31.6742 11.3917 31.7146 11.3917C31.7355 11.3917 31.7562 11.393 31.776 11.3966C32.1199 9.77606 32.6274 9.56903 32.7834 9.54452ZM31.8608 12.1089L31.862 12.1076C31.862 12.1063 31.8608 12.1039 31.8595 12.1028L31.8608 12.1089ZM31.4503 12.0288C30.3458 13.0602 29.7857 13.0528 29.5793 12.9887C29.9415 13.6234 30.5768 14.0804 31.3237 14.2C31.1972 14.03 31.0118 13.5124 31.5991 12.1187C31.5425 12.1016 31.4921 12.0706 31.4503 12.0288ZM31.341 11.7651C31.341 11.717 31.3494 11.6702 31.3681 11.6283C29.8729 10.9553 29.7659 10.4169 29.7746 10.253C29.4477 10.6707 29.2548 11.1945 29.2548 11.765C29.2548 11.9793 29.2818 12.1863 29.3335 12.3836C29.4451 12.1914 29.8569 11.8118 31.3435 11.8056C31.3422 11.7922 31.341 11.7785 31.341 11.7651ZM33.5244 10.0965C33.5244 10.301 33.3683 10.8272 32.0315 11.5702C32.0623 11.6183 32.0807 11.675 32.0843 11.7353C33.5736 11.6096 34.0169 11.9522 34.146 12.1333C34.1632 12.0125 34.173 11.8906 34.173 11.7649C34.173 11.1219 33.9273 10.5352 33.5244 10.0965ZM31.3681 11.6283C29.8729 10.9553 29.7659 10.4169 29.7746 10.253C29.4477 10.6707 29.2548 11.1945 29.2548 11.765C29.2548 11.9793 29.2818 12.1863 29.3335 12.3836C29.4451 12.1914 29.8569 11.8118 31.3435 11.8056C31.3422 11.7921 31.341 11.7785 31.341 11.765C31.341 11.717 31.3494 11.67 31.3681 11.6283ZM31.5991 12.1187C31.5424 12.1015 31.4921 12.0706 31.4503 12.0288C30.3458 13.0602 29.7857 13.0528 29.5793 12.9887C29.9415 13.6234 30.5768 14.0804 31.3237 14.2C31.1973 14.0301 31.0118 13.5124 31.5991 12.1187ZM31.8595 12.1028L31.8608 12.1089L31.862 12.1076C31.8619 12.1064 31.8608 12.1039 31.8595 12.1028ZM31.7146 9.29923C31.3189 9.29923 30.9454 9.39288 30.615 9.55918C30.8262 9.63195 31.2796 9.95715 31.5979 11.4114C31.6348 11.3978 31.6742 11.3917 31.7146 11.3917C31.7355 11.3917 31.7563 11.393 31.7761 11.3966C32.12 9.77606 32.6275 9.56903 32.7835 9.54452C32.4602 9.38665 32.0979 9.29923 31.7146 9.29923ZM31.9983 12.0052C31.9616 12.0497 31.9148 12.0854 31.8619 12.1076C32.5697 13.3707 32.4787 13.9276 32.3717 14.141C33.0905 13.9414 33.678 13.4225 33.9701 12.7459C33.8046 12.8348 33.27 12.9505 31.9983 12.0052ZM33.5244 10.0965C33.5244 10.301 33.3683 10.8272 32.0315 11.5702C32.0623 11.6183 32.0807 11.675 32.0843 11.7353C33.5736 11.6096 34.0169 11.9522 34.146 12.1333C34.1632 12.0125 34.173 11.8906 34.173 11.7649C34.173 11.1219 33.9273 10.5352 33.5244 10.0965ZM31.9983 12.0052C31.9616 12.0497 31.9148 12.0854 31.8619 12.1076C32.5697 13.3707 32.4787 13.9276 32.3717 14.141C33.0905 13.9414 33.678 13.4225 33.9701 12.7459C33.8046 12.8348 33.27 12.9505 31.9983 12.0052ZM31.7146 9.29923C31.3189 9.29923 30.9454 9.39288 30.615 9.55918C30.8262 9.63195 31.2796 9.95715 31.5979 11.4114C31.6348 11.3978 31.6742 11.3917 31.7146 11.3917C31.7355 11.3917 31.7563 11.393 31.7761 11.3966C32.12 9.77606 32.6275 9.56903 32.7835 9.54452C32.4602 9.38665 32.0979 9.29923 31.7146 9.29923ZM31.8595 12.1028L31.8608 12.1089L31.862 12.1076C31.8619 12.1064 31.8608 12.1039 31.8595 12.1028ZM31.5991 12.1187C31.5424 12.1015 31.4921 12.0706 31.4503 12.0288C30.3458 13.0602 29.7857 13.0528 29.5793 12.9887C29.9415 13.6234 30.5768 14.0804 31.3237 14.2C31.1973 14.0301 31.0118 13.5124 31.5991 12.1187ZM31.3681 11.6283C29.8729 10.9553 29.7659 10.4169 29.7746 10.253C29.4477 10.6707 29.2548 11.1945 29.2548 11.765C29.2548 11.9793 29.2818 12.1863 29.3335 12.3836C29.4451 12.1914 29.8569 11.8118 31.3435 11.8056C31.3422 11.7921 31.341 11.7785 31.341 11.765C31.341 11.717 31.3494 11.67 31.3681 11.6283ZM33.5244 10.0965C33.5244 10.301 33.3683 10.8272 32.0315 11.5702C32.0623 11.6183 32.0807 11.675 32.0843 11.7353C33.5736 11.6096 34.0169 11.9522 34.146 12.1333C34.1632 12.0125 34.173 11.8906 34.173 11.7649C34.173 11.1219 33.9273 10.5352 33.5244 10.0965ZM31.3681 11.6283C29.8729 10.9553 29.7659 10.4169 29.7746 10.253C29.4477 10.6707 29.2548 11.1945 29.2548 11.765C29.2548 11.9793 29.2818 12.1863 29.3335 12.3836C29.4451 12.1914 29.8569 11.8118 31.3435 11.8056C31.3422 11.7921 31.341 11.7785 31.341 11.765C31.341 11.717 31.3494 11.67 31.3681 11.6283ZM31.5991 12.1187C31.5424 12.1015 31.4921 12.0706 31.4503 12.0288C30.3458 13.0602 29.7857 13.0528 29.5793 12.9887C29.9415 13.6234 30.5768 14.0804 31.3237 14.2C31.1973 14.0301 31.0118 13.5124 31.5991 12.1187ZM31.8595 12.1028L31.8608 12.1089L31.862 12.1076C31.8619 12.1064 31.8608 12.1039 31.8595 12.1028ZM31.7146 9.29923C31.3189 9.29923 30.9454 9.39288 30.615 9.55918C30.8262 9.63195 31.2796 9.95715 31.5979 11.4114C31.6348 11.3978 31.6742 11.3917 31.7146 11.3917C31.7355 11.3917 31.7563 11.393 31.7761 11.3966C32.12 9.77606 32.6275 9.56903 32.7835 9.54452C32.4602 9.38665 32.0979 9.29923 31.7146 9.29923ZM31.9983 12.0052C31.9616 12.0497 31.9148 12.0854 31.8619 12.1076C32.5697 13.3707 32.4787 13.9276 32.3717 14.141C33.0905 13.9414 33.678 13.4225 33.9701 12.7459C33.8046 12.8348 33.27 12.9505 31.9983 12.0052ZM33.5244 10.0965C33.5244 10.301 33.3683 10.8272 32.0315 11.5702C32.0623 11.6183 32.0807 11.675 32.0843 11.7353C33.5736 11.6096 34.0169 11.9522 34.146 12.1333C34.1632 12.0125 34.173 11.8906 34.173 11.7649C34.173 11.1219 33.9273 10.5352 33.5244 10.0965ZM31.9983 12.0052C31.9616 12.0497 31.9148 12.0854 31.8619 12.1076C32.5697 13.3707 32.4787 13.9276 32.3717 14.141C33.0905 13.9414 33.678 13.4225 33.9701 12.7459C33.8046 12.8348 33.27 12.9505 31.9983 12.0052ZM31.7146 9.29923C31.3189 9.29923 30.9454 9.39288 30.615 9.55918C30.8262 9.63195 31.2796 9.95715 31.5979 11.4114C31.6348 11.3978 31.6742 11.3917 31.7146 11.3917C31.7355 11.3917 31.7563 11.393 31.7761 11.3966C32.12 9.77606 32.6275 9.56903 32.7835 9.54452C32.4602 9.38665 32.0979 9.29923 31.7146 9.29923ZM31.8595 12.1028L31.8608 12.1089L31.862 12.1076C31.8619 12.1064 31.8608 12.1039 31.8595 12.1028ZM31.5991 12.1187C31.5424 12.1015 31.4921 12.0706 31.4503 12.0288C30.3458 13.0602 29.7857 13.0528 29.5793 12.9887C29.9415 13.6234 30.5768 14.0804 31.3237 14.2C31.1973 14.0301 31.0118 13.5124 31.5991 12.1187ZM31.3681 11.6283C29.8729 10.9553 29.7659 10.4169 29.7746 10.253C29.4477 10.6707 29.2548 11.1945 29.2548 11.765C29.2548 11.9793 29.2818 12.1863 29.3335 12.3836C29.4451 12.1914 29.8569 11.8118 31.3435 11.8056C31.3422 11.7921 31.341 11.7785 31.341 11.765C31.341 11.717 31.3494 11.67 31.3681 11.6283ZM33.5244 10.0965C33.5244 10.301 33.3683 10.8272 32.0315 11.5702C32.0623 11.6183 32.0807 11.675 32.0843 11.7353C33.5736 11.6096 34.0169 11.9522 34.146 12.1333C34.1632 12.0125 34.173 11.8906 34.173 11.7649C34.173 11.1219 33.9273 10.5352 33.5244 10.0965ZM31.3681 11.6283C29.8729 10.9553 29.7659 10.4169 29.7746 10.253C29.4477 10.6707 29.2548 11.1945 29.2548 11.765C29.2548 11.9793 29.2818 12.1863 29.3335 12.3836C29.4451 12.1914 29.8569 11.8118 31.3435 11.8056C31.3422 11.7921 31.341 11.7785 31.341 11.765C31.341 11.717 31.3494 11.67 31.3681 11.6283ZM31.5991 12.1187C31.5424 12.1015 31.4921 12.0706 31.4503 12.0288C30.3458 13.0602 29.7857 13.0528 29.5793 12.9887C29.9415 13.6234 30.5768 14.0804 31.3237 14.2C31.1973 14.0301 31.0118 13.5124 31.5991 12.1187ZM31.8595 12.1028L31.8608 12.1089L31.862 12.1076C31.8619 12.1064 31.8608 12.1039 31.8595 12.1028ZM31.7146 9.29923C31.3189 9.29923 30.9454 9.39288 30.615 9.55918C30.8262 9.63195 31.2796 9.95715 31.5979 11.4114C31.6348 11.3978 31.6742 11.3917 31.7146 11.3917C31.7355 11.3917 31.7563 11.393 31.7761 11.3966C32.12 9.77606 32.6275 9.56903 32.7835 9.54452C32.4602 9.38665 32.0979 9.29923 31.7146 9.29923ZM31.9983 12.0052C31.9616 12.0497 31.9148 12.0854 31.8619 12.1076C32.5697 13.3707 32.4787 13.9276 32.3717 14.141C33.0905 13.9414 33.678 13.4225 33.9701 12.7459C33.8046 12.8348 33.27 12.9505 31.9983 12.0052ZM33.5244 10.0965C33.5244 10.301 33.3683 10.8272 32.0315 11.5702C32.0623 11.6183 32.0807 11.675 32.0843 11.7353C33.5736 11.6096 34.0169 11.9522 34.146 12.1333C34.1632 12.0125 34.173 11.8906 34.173 11.7649C34.173 11.1219 33.9273 10.5352 33.5244 10.0965ZM31.9983 12.0052C31.9616 12.0497 31.9148 12.0854 31.8619 12.1076C32.5697 13.3707 32.4787 13.9276 32.3717 14.141C33.0905 13.9414 33.678 13.4225 33.9701 12.7459C33.8046 12.8348 33.27 12.9505 31.9983 12.0052ZM31.7146 9.29923C31.3189 9.29923 30.9454 9.39288 30.615 9.55918C30.8262 9.63195 31.2796 9.95715 31.5979 11.4114C31.6348 11.3978 31.6742 11.3917 31.7146 11.3917C31.7355 11.3917 31.7563 11.393 31.7761 11.3966C32.12 9.77606 32.6275 9.56903 32.7835 9.54452C32.4602 9.38665 32.0979 9.29923 31.7146 9.29923ZM31.8595 12.1028L31.8608 12.1089L31.862 12.1076C31.8619 12.1064 31.8608 12.1039 31.8595 12.1028ZM31.5991 12.1187C31.5424 12.1015 31.4921 12.0706 31.4503 12.0288C30.3458 13.0602 29.7857 13.0528 29.5793 12.9887C29.9415 13.6234 30.5768 14.0804 31.3237 14.2C31.1973 14.0301 31.0118 13.5124 31.5991 12.1187ZM31.3681 11.6283C29.8729 10.9553 29.7659 10.4169 29.7746 10.253C29.4477 10.6707 29.2548 11.1945 29.2548 11.765C29.2548 11.9793 29.2818 12.1863 29.3335 12.3836C29.4451 12.1914 29.8569 11.8118 31.3435 11.8056C31.3422 11.7921 31.341 11.7785 31.341 11.765C31.341 11.717 31.3494 11.67 31.3681 11.6283ZM33.5244 10.0965C33.5244 10.301 33.3683 10.8272 32.0315 11.5702C32.0623 11.6183 32.0807 11.675 32.0843 11.7353C33.5736 11.6096 34.0169 11.9522 34.146 12.1333C34.1632 12.0125 34.173 11.8906 34.173 11.7649C34.173 11.1219 33.9273 10.5352 33.5244 10.0965ZM31.3681 11.6283C29.8729 10.9553 29.7659 10.4169 29.7746 10.253C29.4477 10.6707 29.2548 11.1945 29.2548 11.765C29.2548 11.9793 29.2818 12.1863 29.3335 12.3836C29.4451 12.1914 29.8569 11.8118 31.3435 11.8056C31.3422 11.7921 31.341 11.7785 31.341 11.765C31.341 11.717 31.3494 11.67 31.3681 11.6283ZM31.5991 12.1187C31.5424 12.1015 31.4921 12.0706 31.4503 12.0288C30.3458 13.0602 29.7857 13.0528 29.5793 12.9887C29.9415 13.6234 30.5768 14.0804 31.3237 14.2C31.1973 14.0301 31.0118 13.5124 31.5991 12.1187ZM31.8595 12.1028L31.8608 12.1089L31.862 12.1076C31.8619 12.1064 31.8608 12.1039 31.8595 12.1028ZM31.7146 9.29923C31.3189 9.29923 30.9454 9.39288 30.615 9.55918C30.8262 9.63195 31.2796 9.95715 31.5979 11.4114C31.6348 11.3978 31.6742 11.3917 31.7146 11.3917C31.7355 11.3917 31.7563 11.393 31.7761 11.3966C32.12 9.77606 32.6275 9.56903 32.7835 9.54452C32.4602 9.38665 32.0979 9.29923 31.7146 9.29923ZM31.9983 12.0052C31.9616 12.0497 31.9148 12.0854 31.8619 12.1076C32.5697 13.3707 32.4787 13.9276 32.3717 14.141C33.0905 13.9414 33.678 13.4225 33.9701 12.7459C33.8046 12.8348 33.27 12.9505 31.9983 12.0052ZM33.5244 10.0965C33.5244 10.301 33.3683 10.8272 32.0315 11.5702C32.0623 11.6183 32.0807 11.675 32.0843 11.7353C33.5736 11.6096 34.0169 11.9522 34.146 12.1333C34.1632 12.0125 34.173 11.8906 34.173 11.7649C34.173 11.1219 33.9273 10.5352 33.5244 10.0965ZM31.9983 12.0052C31.9616 12.0497 31.9148 12.0854 31.8619 12.1076C32.5697 13.3707 32.4787 13.9276 32.3717 14.141C33.0905 13.9414 33.678 13.4225 33.9701 12.7459C33.8046 12.8348 33.27 12.9505 31.9983 12.0052ZM31.7146 9.29923C31.3189 9.29923 30.9454 9.39288 30.615 9.55918C30.8262 9.63195 31.2796 9.95715 31.5979 11.4114C31.6348 11.3978 31.6742 11.3917 31.7146 11.3917C31.7355 11.3917 31.7563 11.393 31.7761 11.3966C32.12 9.77606 32.6275 9.56903 32.7835 9.54452C32.4602 9.38665 32.0979 9.29923 31.7146 9.29923ZM31.8595 12.1028L31.8608 12.1089L31.862 12.1076C31.8619 12.1064 31.8608 12.1039 31.8595 12.1028ZM31.5991 12.1187C31.5424 12.1015 31.4921 12.0706 31.4503 12.0288C30.3458 13.0602 29.7857 13.0528 29.5793 12.9887C29.9415 13.6234 30.5768 14.0804 31.3237 14.2C31.1973 14.0301 31.0118 13.5124 31.5991 12.1187ZM31.3681 11.6283C29.8729 10.9553 29.7659 10.4169 29.7746 10.253C29.4477 10.6707 29.2548 11.1945 29.2548 11.765C29.2548 11.9793 29.2818 12.1863 29.3335 12.3836C29.4451 12.1914 29.8569 11.8118 31.3435 11.8056C31.3422 11.7921 31.341 11.7785 31.341 11.765C31.341 11.717 31.3494 11.67 31.3681 11.6283ZM33.5244 10.0965C33.5244 10.301 33.3683 10.8272 32.0315 11.5702C32.0623 11.6183 32.0807 11.675 32.0843 11.7353C33.5736 11.6096 34.0169 11.9522 34.146 12.1333C34.1632 12.0125 34.173 11.8906 34.173 11.7649C34.173 11.1219 33.9273 10.5352 33.5244 10.0965ZM31.3681 11.6283C29.8729 10.9553 29.7659 10.4169 29.7746 10.253C29.4477 10.6707 29.2548 11.1945 29.2548 11.765C29.2548 11.9793 29.2818 12.1863 29.3335 12.3836C29.4451 12.1914 29.8569 11.8118 31.3435 11.8056C31.3422 11.7921 31.341 11.7785 31.341 11.765C31.341 11.717 31.3494 11.67 31.3681 11.6283ZM31.5991 12.1187C31.5424 12.1015 31.4921 12.0706 31.4503 12.0288C30.3458 13.0602 29.7857 13.0528 29.5793 12.9887C29.9415 13.6234 30.5768 14.0804 31.3237 14.2C31.1973 14.0301 31.0118 13.5124 31.5991 12.1187ZM31.8595 12.1028L31.8608 12.1089L31.862 12.1076C31.8619 12.1064 31.8608 12.1039 31.8595 12.1028ZM31.7146 9.29923C31.3189 9.29923 30.9454 9.39288 30.615 9.55918C30.8262 9.63195 31.2796 9.95715 31.5979 11.4114C31.6348 11.3978 31.6742 11.3917 31.7146 11.3917C31.7355 11.3917 31.7563 11.393 31.7761 11.3966C32.12 9.77606 32.6275 9.56903 32.7835 9.54452C32.4602 9.38665 32.0979 9.29923 31.7146 9.29923ZM31.9983 12.0052C31.9616 12.0497 31.9148 12.0854 31.8619 12.1076C32.5697 13.3707 32.4787 13.9276 32.3717 14.141C33.0905 13.9414 33.678 13.4225 33.9701 12.7459C33.8046 12.8348 33.27 12.9505 31.9983 12.0052ZM33.5244 10.0965C33.5244 10.301 33.3683 10.8272 32.0315 11.5702C32.0623 11.6183 32.0807 11.675 32.0843 11.7353C33.5736 11.6096 34.0169 11.9522 34.146 12.1333C34.1632 12.0125 34.173 11.8906 34.173 11.7649C34.173 11.1219 33.9273 10.5352 33.5244 10.0965ZM31.9983 12.0052C31.9616 12.0497 31.9148 12.0854 31.8619 12.1076C32.5697 13.3707 32.4787 13.9276 32.3717 14.141C33.0905 13.9414 33.678 13.4225 33.9701 12.7459C33.8046 12.8348 33.27 12.9505 31.9983 12.0052ZM31.7146 9.29923C31.3189 9.29923 30.9454 9.39288 30.615 9.55918C30.8262 9.63195 31.2796 9.95715 31.5979 11.4114C31.6348 11.3978 31.6742 11.3917 31.7146 11.3917C31.7355 11.3917 31.7563 11.393 31.7761 11.3966C32.12 9.77606 32.6275 9.56903 32.7835 9.54452C32.4602 9.38665 32.0979 9.29923 31.7146 9.29923ZM31.8595 12.1028L31.8608 12.1089L31.862 12.1076C31.8619 12.1064 31.8608 12.1039 31.8595 12.1028ZM31.5991 12.1187C31.5424 12.1015 31.4921 12.0706 31.4503 12.0288C30.3458 13.0602 29.7857 13.0528 29.5793 12.9887C29.9415 13.6234 30.5768 14.0804 31.3237 14.2C31.1973 14.0301 31.0118 13.5124 31.5991 12.1187ZM31.3681 11.6283C29.8729 10.9553 29.7659 10.4169 29.7746 10.253C29.4477 10.6707 29.2548 11.1945 29.2548 11.765C29.2548 11.9793 29.2818 12.1863 29.3335 12.3836C29.4451 12.1914 29.8569 11.8118 31.3435 11.8056C31.3422 11.7921 31.341 11.7785 31.341 11.765C31.341 11.717 31.3494 11.67 31.3681 11.6283ZM33.5244 10.0965C33.5244 10.301 33.3683 10.8272 32.0315 11.5702C32.0623 11.6183 32.0807 11.675 32.0843 11.7353C33.5736 11.6096 34.0169 11.9522 34.146 12.1333C34.1632 12.0125 34.173 11.8906 34.173 11.7649C34.173 11.1219 33.9273 10.5352 33.5244 10.0965ZM31.3681 11.6283C29.8729 10.9553 29.7659 10.4169 29.7746 10.253C29.4477 10.6707 29.2548 11.1945 29.2548 11.765C29.2548 11.9793 29.2818 12.1863 29.3335 12.3836C29.4451 12.1914 29.8569 11.8118 31.3435 11.8056C31.3422 11.7921 31.341 11.7785 31.341 11.765C31.341 11.717 31.3494 11.67 31.3681 11.6283ZM31.5991 12.1187C31.5424 12.1015 31.4921 12.0706 31.4503 12.0288C30.3458 13.0602 29.7857 13.0528 29.5793 12.9887C29.9415 13.6234 30.5768 14.0804 31.3237 14.2C31.1973 14.0301 31.0118 13.5124 31.5991 12.1187ZM31.8595 12.1028L31.8608 12.1089L31.862 12.1076C31.8619 12.1064 31.8608 12.1039 31.8595 12.1028ZM31.7146 9.29923C31.3189 9.29923 30.9454 9.39288 30.615 9.55918C30.8262 9.63195 31.2796 9.95715 31.5979 11.4114C31.6348 11.3978 31.6742 11.3917 31.7146 11.3917C31.7355 11.3917 31.7563 11.393 31.7761 11.3966C32.12 9.77606 32.6275 9.56903 32.7835 9.54452C32.4602 9.38665 32.0979 9.29923 31.7146 9.29923ZM31.9983 12.0052C31.9616 12.0497 31.9148 12.0854 31.8619 12.1076C32.5697 13.3707 32.4787 13.9276 32.3717 14.141C33.0905 13.9414 33.678 13.4225 33.9701 12.7459C33.8046 12.8348 33.27 12.9505 31.9983 12.0052ZM33.5244 10.0965C33.5244 10.301 33.3683 10.8272 32.0315 11.5702C32.0623 11.6183 32.0807 11.675 32.0843 11.7353C33.5736 11.6096 34.0169 11.9522 34.146 12.1333C34.1632 12.0125 34.173 11.8906 34.173 11.7649C34.173 11.1219 33.9273 10.5352 33.5244 10.0965ZM31.9983 12.0052C31.9616 12.0497 31.9148 12.0854 31.8619 12.1076C32.5697 13.3707 32.4787 13.9276 32.3717 14.141C33.0905 13.9414 33.678 13.4225 33.9701 12.7459C33.8046 12.8348 33.27 12.9505 31.9983 12.0052ZM31.7146 9.29923C31.3189 9.29923 30.9454 9.39288 30.615 9.55918C30.8262 9.63195 31.2796 9.95715 31.5979 11.4114C31.6348 11.3978 31.6742 11.3917 31.7146 11.3917C31.7355 11.3917 31.7563 11.393 31.7761 11.3966C32.12 9.77606 32.6275 9.56903 32.7835 9.54452C32.4602 9.38665 32.0979 9.29923 31.7146 9.29923ZM31.8595 12.1028L31.8608 12.1089L31.862 12.1076C31.8619 12.1064 31.8608 12.1039 31.8595 12.1028ZM31.5991 12.1187C31.5424 12.1015 31.4921 12.0706 31.4503 12.0288C30.3458 13.0602 29.7857 13.0528 29.5793 12.9887C29.9415 13.6234 30.5768 14.0804 31.3237 14.2C31.1973 14.0301 31.0118 13.5124 31.5991 12.1187ZM31.3681 11.6283C29.8729 10.9553 29.7659 10.4169 29.7746 10.253C29.4477 10.6707 29.2548 11.1945 29.2548 11.765C29.2548 11.9793 29.2818 12.1863 29.3335 12.3836C29.4451 12.1914 29.8569 11.8118 31.3435 11.8056C31.3422 11.7921 31.341 11.7785 31.341 11.765C31.341 11.717 31.3494 11.67 31.3681 11.6283ZM31.8595 12.1028L31.8608 12.1089L31.862 12.1076C31.8619 12.1064 31.8608 12.1039 31.8595 12.1028ZM31.8595 12.1028L31.8608 12.1089L31.862 12.1076C31.8619 12.1064 31.8608 12.1039 31.8595 12.1028ZM31.8595 12.1028L31.8608 12.1089L31.862 12.1076C31.8619 12.1064 31.8608 12.1039 31.8595 12.1028ZM31.8595 12.1028L31.8608 12.1089L31.862 12.1076C31.8619 12.1064 31.8608 12.1039 31.8595 12.1028ZM31.8595 12.1028L31.8608 12.1089L31.862 12.1076C31.8619 12.1064 31.8608 12.1039 31.8595 12.1028ZM31.8595 12.1028L31.8608 12.1089L31.862 12.1076C31.8619 12.1064 31.8608 12.1039 31.8595 12.1028ZM31.8595 12.1028L31.8608 12.1089L31.862 12.1076C31.8619 12.1064 31.8608 12.1039 31.8595 12.1028ZM31.8595 12.1028L31.8608 12.1089L31.862 12.1076C31.8619 12.1064 31.8608 12.1039 31.8595 12.1028ZM31.8595 12.1028L31.8608 12.1089L31.862 12.1076C31.8619 12.1064 31.8608 12.1039 31.8595 12.1028ZM31.8595 12.1028L31.8608 12.1089L31.862 12.1076C31.8619 12.1064 31.8608 12.1039 31.8595 12.1028Z" fill="#009999"/>
<path d="M31.3421 11.7649C31.3421 11.7784 31.3433 11.792 31.3446 11.8055C29.858 11.8117 29.4462 12.1914 29.3346 12.3835C29.2829 12.1862 29.2559 11.9793 29.2559 11.7649C29.2559 11.1944 29.4488 10.6705 29.7756 10.2529C29.7671 10.4168 29.8739 10.9552 31.3692 11.6282C31.3505 11.6698 31.3421 11.7168 31.3421 11.7649Z" fill="#009999"/>
<path d="M31.3235 14.2C30.5766 14.0804 29.9412 13.6234 29.5791 12.9887C29.7855 13.0528 30.3457 13.0602 31.4502 12.0288C31.4919 12.0706 31.5424 12.1016 31.5989 12.1187C31.0116 13.5124 31.1972 14.0301 31.3235 14.2Z" fill="#009999"/>
<path d="M31.8619 12.1074L31.8607 12.1087L31.8594 12.1025C31.8608 12.1037 31.8619 12.1062 31.8619 12.1074Z" fill="#009999"/>
<path d="M32.7838 9.54412C32.6278 9.56864 32.1203 9.77566 31.7764 11.3962C31.7567 11.3926 31.7359 11.3913 31.7148 11.3913C31.6743 11.3913 31.635 11.3974 31.5982 11.411C31.2799 9.95675 30.8264 9.63142 30.6152 9.55878C30.9457 9.39249 31.3192 9.29883 31.7148 9.29883C32.0983 9.29883 32.4605 9.38626 32.7838 9.54412Z" fill="#009999"/>
<path d="M33.9706 12.7456C33.6783 13.4222 33.0908 13.941 32.3721 14.1406C32.4791 13.9273 32.57 13.3704 31.8623 12.1072C31.9152 12.085 31.962 12.0494 31.9987 12.0049C33.2703 12.9501 33.8049 12.8344 33.9706 12.7456Z" fill="#009999"/>
<path d="M34.1727 11.7651C34.1727 11.8908 34.1629 12.0127 34.1457 12.1335C34.0166 11.9524 33.5732 11.6098 32.084 11.7355C32.0804 11.6752 32.062 11.6185 32.0312 11.5704C33.368 10.8272 33.5241 10.3012 33.5241 10.0967C33.927 10.5351 34.1727 11.1218 34.1727 11.7651Z" fill="#009999"/>
<path d="M31.8606 12.1024L31.8619 12.1085L31.8631 12.1072C31.8629 12.106 31.8619 12.1035 31.8606 12.1024ZM31.8606 12.1024L31.8619 12.1085L31.8631 12.1072C31.8629 12.106 31.8619 12.1035 31.8606 12.1024ZM31.8606 12.1024L31.8619 12.1085L31.8631 12.1072C31.8629 12.106 31.8619 12.1035 31.8606 12.1024ZM31.8606 12.1024L31.8619 12.1085L31.8631 12.1072C31.8629 12.106 31.8619 12.1035 31.8606 12.1024ZM31.8606 12.1024L31.8619 12.1085L31.8631 12.1072C31.8629 12.106 31.8619 12.1035 31.8606 12.1024ZM31.8606 12.1024L31.8619 12.1085L31.8631 12.1072C31.8629 12.106 31.8619 12.1035 31.8606 12.1024ZM31.8606 12.1024L31.8619 12.1085L31.8631 12.1072C31.8629 12.106 31.8619 12.1035 31.8606 12.1024ZM31.8606 12.1024L31.8619 12.1085L31.8631 12.1072C31.8629 12.106 31.8619 12.1035 31.8606 12.1024ZM31.8606 12.1024L31.8619 12.1085L31.8631 12.1072C31.8629 12.106 31.8619 12.1035 31.8606 12.1024ZM31.8606 12.1024L31.8619 12.1085L31.8631 12.1072C31.8629 12.106 31.8619 12.1035 31.8606 12.1024ZM33.5255 10.0961C33.5255 10.3006 33.3694 10.8268 32.0326 11.5698C32.0634 11.6179 32.0818 11.6746 32.0854 11.7349C33.5747 11.6092 34.018 11.9518 34.1471 12.1329C34.1643 12.0121 34.1741 11.8902 34.1741 11.7645C34.1741 11.1215 33.9284 10.5348 33.5255 10.0961ZM31.9994 12.0048C31.9627 12.0493 31.9158 12.085 31.8629 12.1072C32.5708 13.3704 32.4797 13.9272 32.3728 14.1406C33.0916 13.941 33.679 13.4221 33.9712 12.7455C33.8057 12.8344 33.2711 12.9501 31.9994 12.0048ZM31.7156 9.29883C31.32 9.29883 30.9465 9.39249 30.616 9.55878C30.8272 9.63155 31.2807 9.95675 31.599 11.411C31.6358 11.3974 31.6753 11.3913 31.7156 11.3913C31.7366 11.3913 31.7574 11.3926 31.7772 11.3962C32.1211 9.77566 32.6286 9.56864 32.7846 9.54412C32.4612 9.38626 32.099 9.29883 31.7156 9.29883ZM31.8606 12.1024L31.8619 12.1085L31.8631 12.1072C31.8629 12.106 31.8619 12.1035 31.8606 12.1024ZM31.6001 12.1183C31.5435 12.1011 31.4932 12.0702 31.4514 12.0284C30.3469 13.0598 29.7868 13.0524 29.5804 12.9883C29.9426 13.623 30.5779 14.08 31.3248 14.1996C31.1984 14.0297 31.0128 13.512 31.6001 12.1183ZM31.3692 11.6279C29.8739 10.9549 29.767 10.4165 29.7756 10.2526C29.4488 10.6703 29.2559 11.1941 29.2559 11.7646C29.2559 11.9789 29.2829 12.1859 29.3346 12.3832C29.4462 12.191 29.858 11.8114 31.3446 11.8052C31.3433 11.7917 31.3421 11.7781 31.3421 11.7646C31.3421 11.7166 31.3505 11.6696 31.3692 11.6279ZM31.8606 12.1024L31.8619 12.1085L31.8631 12.1072C31.8629 12.106 31.8619 12.1035 31.8606 12.1024ZM31.8606 12.1024L31.8619 12.1085L31.8631 12.1072C31.8629 12.106 31.8619 12.1035 31.8606 12.1024ZM31.8606 12.1024L31.8619 12.1085L31.8631 12.1072C31.8629 12.106 31.8619 12.1035 31.8606 12.1024ZM31.8606 12.1024L31.8619 12.1085L31.8631 12.1072C31.8629 12.106 31.8619 12.1035 31.8606 12.1024ZM31.8606 12.1024L31.8619 12.1085L31.8631 12.1072C31.8629 12.106 31.8619 12.1035 31.8606 12.1024ZM31.8606 12.1024L31.8619 12.1085L31.8631 12.1072C31.8629 12.106 31.8619 12.1035 31.8606 12.1024ZM31.8606 12.1024L31.8619 12.1085L31.8631 12.1072C31.8629 12.106 31.8619 12.1035 31.8606 12.1024ZM31.8606 12.1024L31.8619 12.1085L31.8631 12.1072C31.8629 12.106 31.8619 12.1035 31.8606 12.1024ZM31.8606 12.1024L31.8619 12.1085L31.8631 12.1072C31.8629 12.106 31.8619 12.1035 31.8606 12.1024ZM31.8606 12.1024L31.8619 12.1085L31.8631 12.1072C31.8629 12.106 31.8619 12.1035 31.8606 12.1024Z" fill="#009999"/>
<path d="M32.0867 11.7649C32.0867 11.8536 32.0546 11.9361 32.0031 12.0004C32.0007 12.0028 31.9994 12.004 31.9982 12.0052C31.9615 12.0496 31.9147 12.0853 31.8618 12.1075C31.8618 12.1062 31.8606 12.1039 31.8593 12.1027L31.8606 12.1088C31.8164 12.1273 31.7661 12.1385 31.7143 12.1385C31.675 12.1385 31.637 12.1321 31.6014 12.12C31.6 12.1213 31.6 12.12 31.5988 12.1188C31.5422 12.1015 31.4919 12.0707 31.4501 12.0289C31.4489 12.0276 31.4478 12.0251 31.4453 12.0238C31.3913 11.9683 31.3544 11.8946 31.3446 11.8143C31.3433 11.812 31.3433 11.8082 31.3433 11.8058C31.342 11.7923 31.3408 11.7787 31.3408 11.7652C31.3408 11.7171 31.3492 11.6702 31.3678 11.6283C31.3678 11.6246 31.3703 11.6198 31.3715 11.6159C31.4132 11.5211 31.4919 11.4471 31.59 11.4138C31.5926 11.4113 31.595 11.4113 31.5975 11.4113C31.6344 11.3977 31.6738 11.3916 31.7142 11.3916C31.7352 11.3916 31.756 11.3929 31.7758 11.3965C31.7794 11.3977 31.7831 11.3977 31.7868 11.3989C31.8888 11.4186 31.976 11.4802 32.0287 11.5653C32.03 11.5666 32.0313 11.5678 32.0313 11.5701C32.0621 11.6182 32.0805 11.6749 32.0841 11.7352C32.0854 11.7365 32.0854 11.739 32.0854 11.7403V11.7414C32.0867 11.75 32.0867 11.7562 32.0867 11.7649Z" fill="#009999"/>
<path d="M31.8619 12.1074L31.8607 12.1087L31.8594 12.1025C31.8608 12.1037 31.8619 12.1062 31.8619 12.1074Z" fill="#009999"/>
<path d="M31.8619 12.1074L31.8607 12.1087L31.8594 12.1025C31.8608 12.1037 31.8619 12.1062 31.8619 12.1074Z" fill="#009999"/>
</svg>
