<svg width="46" height="41" viewBox="0 0 46 41" fill="none" xmlns="http://www.w3.org/2000/svg">
<path d="M8.48438 12.1707C7.96354 11.9102 7.625 11.6238 7.46875 11.3113C7.36458 10.9988 7.3776 10.7904 7.50781 10.6863C7.63802 10.5821 7.9375 10.53 8.40625 10.53H23.3281H38.25C38.7188 10.53 39.0182 10.5821 39.1484 10.6863C39.2786 10.7904 39.2917 10.9988 39.1875 11.3113C39.0312 11.6238 38.6927 11.9102 38.1719 12.1707C29.5781 16.8582 25.1771 19.254 24.9688 19.3582C24.5521 19.5665 24.0052 19.6707 23.3281 19.6707C22.651 19.6707 22.1042 19.5665 21.6875 19.3582C21.4792 19.254 17.0781 16.8582 8.48438 12.1707ZM38.875 12.4832C39.2396 12.4311 39.4349 12.4181 39.4609 12.4441C39.487 12.4701 39.5 12.6134 39.5 12.8738V28.8894C39.5 29.254 39.3047 29.6186 38.9141 29.9832C38.5234 30.3477 38.1458 30.53 37.7812 30.53H23.3281H8.875C8.45833 30.53 8.04167 30.3477 7.625 29.9832C7.20833 29.6186 7 29.254 7 28.8894V12.8738C7 12.405 7.23438 12.2748 7.70312 12.4832C7.85938 12.5873 8.51042 13.017 9.65625 13.7722C10.8021 14.5274 12.2214 15.4779 13.9141 16.6238C15.6068 17.7696 16.974 18.6811 18.0156 19.3582L11.5312 26.6238C11.375 26.78 11.349 26.9102 11.4531 27.0144C11.5052 27.0665 11.5833 27.0795 11.6875 27.0535C11.7917 27.0274 11.8698 26.9884 11.9219 26.9363L19.5781 20.4519C20.6719 21.1811 21.375 21.6238 21.6875 21.78C22.1042 21.9884 22.651 22.0925 23.3281 22.0925C24.0052 22.0925 24.5521 21.9884 24.9688 21.78C25.2812 21.6238 25.9844 21.1811 27.0781 20.4519L34.7344 26.9363C34.7865 26.9884 34.8646 27.0274 34.9688 27.0535C35.0729 27.0795 35.151 27.0665 35.2031 27.0144C35.2552 26.9623 35.2031 26.8321 35.0469 26.6238L28.6406 19.3582C29.6823 18.6811 31.0365 17.7696 32.7031 16.6238C34.3698 15.4779 35.776 14.5274 36.9219 13.7722C38.0677 13.017 38.7188 12.5873 38.875 12.4832Z" fill="#106E5B"/>
</svg>