<svg width="46" height="41" viewBox="0 0 46 41" fill="none" xmlns="http://www.w3.org/2000/svg">
<path d="M14.4219 6.93384C14.4219 6.93384 15.0339 6.33488 16.2578 5.13696C17.4818 3.93904 19.8125 3.34009 23.25 3.34009C26.6875 3.34009 29.6302 4.53801 32.0781 6.93384C34.526 9.32967 35.75 12.2203 35.75 15.6057C35.75 18.314 34.7083 21.5693 32.625 25.3713C30.5417 29.1734 28.4583 32.2984 26.375 34.7463L23.25 38.3401C22.8854 37.9755 22.4297 37.4677 21.8828 36.8167C21.3359 36.1656 20.3464 34.9026 18.9141 33.0276C17.4818 31.1526 16.2188 29.3297 15.125 27.5588C14.0312 25.788 13.0286 23.7828 12.1172 21.5432C11.2057 19.3036 10.75 17.3245 10.75 15.6057C10.75 12.2203 11.974 9.32967 14.4219 6.93384ZM20.0859 18.6917C20.0859 18.6917 20.3008 18.9065 20.7305 19.3362C21.1602 19.7659 22 19.9807 23.25 19.9807C24.5 19.9807 25.5547 19.551 26.4141 18.6917C27.2734 17.8323 27.7031 16.8036 27.7031 15.6057C27.7031 14.4078 27.2734 13.3792 26.4141 12.5198C25.5547 11.6604 24.5 11.2307 23.25 11.2307C22 11.2307 20.9453 11.6604 20.0859 12.5198C19.2266 13.3792 18.7969 14.4078 18.7969 15.6057C18.7969 16.8036 19.2266 17.8323 20.0859 18.6917Z" fill="#106E5B"/>
</svg>