<svg width="1412" height="422" viewBox="0 0 1412 422" fill="none" xmlns="http://www.w3.org/2000/svg">
<path d="M1228.37 259.95V198.752H1214.87V236.909L1193.82 198.752H1180.32V259.95H1193.82V221.789L1214.87 259.95H1228.37Z" fill="#009999"/>
<path d="M1140.27 229.263C1140.27 238.711 1131.72 247.351 1122.27 247.351C1112.81 247.351 1104.27 238.711 1104.27 229.263C1104.27 219.81 1112.81 211.263 1122.27 211.263C1131.72 211.263 1140.27 219.81 1140.27 229.263ZM1153.77 229.351C1153.77 212.429 1139.18 197.851 1122.27 197.851C1105.35 197.851 1090.77 212.429 1090.77 229.351C1090.77 246.268 1105.35 260.851 1122.27 260.851C1139.18 260.851 1153.77 246.268 1153.77 229.351Z" fill="#009999"/>
<path d="M1064.22 259.95V198.752H1050.72V259.95H1064.22Z" fill="#009999"/>
<path d="M1009.41 210.992H1026.87V198.752H978.445V210.992H995.908V259.95H1009.41V210.992Z" fill="#009999"/>
<path d="M936.685 236.549H921.206L928.945 214.768L936.685 236.549ZM959.549 259.95L934.706 198.752H923.279L898.435 259.95H912.924L917.336 247.622H940.648L945.055 259.95H959.549Z" fill="#009999"/>
<path d="M879.536 259.95L867.656 198.752H851.635L838.947 241.68L826.166 198.752H810.145L798.265 259.95H813.119L820.317 217.742L832.286 259.95H845.515L857.489 217.742L864.687 259.95H879.536Z" fill="#009999"/>
<path d="M763.168 229.263C763.168 238.711 754.616 247.351 745.168 247.351C735.715 247.351 727.168 238.711 727.168 229.263C727.168 219.81 735.715 211.263 745.168 211.263C754.616 211.263 763.168 219.81 763.168 229.263ZM776.668 229.351C776.668 212.429 762.085 197.851 745.168 197.851C728.246 197.851 713.668 212.429 713.668 229.351C713.668 246.268 728.246 260.851 745.168 260.851C762.085 260.851 776.668 246.268 776.668 229.351Z" fill="#009999"/>
<path d="M674.609 210.992H692.067V198.752H643.645V210.992H661.109V259.95H674.609V210.992Z" fill="#009999"/>
<path d="M607.647 198.752V234.122C607.647 242.581 605.126 247.351 595.856 247.351C586.678 247.351 584.069 242.581 584.069 234.122V198.752H570.569V236.101C570.569 252.388 579.928 260.851 595.856 260.851C611.788 260.851 621.147 252.388 621.147 236.101V198.752H607.647Z" fill="#009999"/>
<path d="M517.453 214.964L509.728 236.675H520.981L524.974 247.712H505.866L501.462 260H487L511.797 199H523.203L548 260H533.532L529.134 247.712L525.178 236.675L517.453 214.964Z" fill="#009999"/>
<path d="M1021.63 318.752V343.138H1001.47V318.752H987.966V379.95H1001.47V355.382H1021.63V379.95H1036.02V318.752H1021.63Z" fill="#009999"/>
<path d="M949.897 362.039C949.897 366.091 946.475 369.419 942.423 369.419H933.876V354.658H942.423C946.475 354.658 949.897 358.08 949.897 362.039ZM945.663 336.481C945.663 340.351 942.423 343.591 938.553 343.591H933.876V329.372H938.553C942.423 329.372 945.663 332.518 945.663 336.481ZM963.663 362.398C963.663 354.122 958.085 348.632 951.246 347.013C955.835 344.94 958.538 340.263 958.538 334.049C958.538 325.679 951.876 318.752 941.434 318.752H920.376V379.95H945.126C956.824 379.95 963.663 372.929 963.663 362.398Z" fill="#009999"/>
<path d="M896.524 379.95L884.644 318.752H868.623L855.935 361.679L843.154 318.752H827.133L815.253 379.95H830.107L837.305 337.742L849.274 379.95H862.503L874.477 337.742L881.675 379.95H896.524Z" fill="#009999"/>
<path d="M762.245 330.45C768.183 330.45 774.308 332.883 777.277 339.362H792.126C787.896 326.669 775.745 317.851 762.245 317.851C744.964 317.851 730.745 332.07 730.745 349.351C730.745 366.633 744.964 380.851 762.245 380.851C779.704 380.851 793.657 366.721 793.657 349.351V347.278H763.506V357.45H779.073C775.745 366.721 768.183 368.612 762.245 368.612C752.527 368.612 744.428 359.883 744.428 349.528C744.428 339.179 752.527 330.45 762.245 330.45Z" fill="#009999"/>
<path d="M1026.45 106.964L1018.73 128.675H1029.98L1033.97 139.712H1014.87L1010.46 152H996L1020.8 91H1032.2L1057 152H1042.53L1038.13 139.712L1034.18 128.675L1026.45 106.964Z" fill="#009999"/>
<path d="M957.685 90.8518V115.237H937.524V90.8518H924.024V152.05H937.524V127.482H957.685V152.05H972.081V90.8518H957.685Z" fill="#009999"/>
<path d="M871.104 130.18H880.552C890.453 130.18 899.271 122.888 899.271 110.472C899.271 98.8622 890.453 90.8518 880.552 90.8518H857.604V152.05H871.104V130.18ZM878.302 101.472C882.265 101.472 886.401 104.888 886.401 110.472C886.401 116.321 882.265 119.56 878.302 119.56H871.104V101.472H878.302Z" fill="#009999"/>
<path d="M795.594 152.05H831.053V139.81H809.094V90.8518H795.594V152.05Z" fill="#009999"/>
<path d="M740.453 106.964L732.728 128.675H743.981L747.974 139.712H728.866L724.462 152H710L734.797 91H746.203L771 152H756.532L752.134 139.712L748.178 128.675L740.453 106.964Z" fill="#009999"/>
<path d="M54 267L0 412L151 216H120L172 124L303 349L105 348L56 411L414 413L173 0L18 267H54Z" fill="#009999"/>
</svg>