<svg width="46" height="41" viewBox="0 0 46 41" fill="none" xmlns="http://www.w3.org/2000/svg">
<path d="M35.7054 26.6301C37.2679 28.1926 37.2679 29.9114 35.7054 31.7864C35.0804 32.5155 34.4684 33.0624 33.8694 33.427C33.2705 33.7916 32.7757 33.9999 32.385 34.052C31.9944 34.1041 31.4345 34.1301 30.7054 34.1301C28.6741 34.1301 26.2522 33.0885 23.4397 31.0051C21.2001 29.3905 19.1689 27.6458 17.346 25.7708C15.0022 23.3228 12.9449 20.5364 11.1741 17.4114C9.61161 14.4947 9.14286 12.0989 9.76786 10.2239C10.0804 9.23429 10.8095 8.37492 11.9554 7.64575L12.0335 7.56763C12.971 6.94263 13.8043 6.63013 14.5335 6.63013C15.5231 6.63013 16.4085 7.09888 17.1897 8.03638L17.2679 8.1145C18.4658 9.677 19.2991 10.901 19.7679 11.7864C20.5491 13.401 20.5231 14.7812 19.6897 15.927C19.0647 16.7603 18.7522 17.3593 18.7522 17.7239C18.7522 17.8801 19.0908 18.3489 19.7679 19.1301L19.846 19.2083C21.096 20.6145 21.7731 21.3697 21.8772 21.4739C21.9293 21.4739 21.9814 21.4999 22.0335 21.552C22.0856 21.6041 22.1376 21.6562 22.1897 21.7083L22.346 21.8645C23.3876 22.9062 24.1429 23.6353 24.6116 24.052L24.6897 24.1301C25.1585 24.5468 25.471 24.7551 25.6272 24.7551C25.8876 24.7551 26.6429 24.3645 27.8929 23.5833C28.2574 23.3228 28.7001 23.1926 29.221 23.1926C30.1585 23.1926 31.2913 23.5833 32.6194 24.3645C33.9475 25.1458 34.9762 25.901 35.7054 26.6301Z" fill="#106E5B"/>
</svg>