<svg width="40" height="40" viewBox="0 0 40 40" fill="none" xmlns="http://www.w3.org/2000/svg">
<path d="M39 8.59375C38.0339 10.0521 36.7458 11.3542 35.1356 12.5V13.4375C35.1356 18.9062 33.1095 23.8672 29.0572 28.3203C25.0049 32.7734 19.6243 35 12.9153 35C8.62147 35 4.64972 33.8542 1 31.5625C1.85876 31.6667 2.47599 31.7188 2.85169 31.7188C6.44774 31.7188 9.66808 30.625 12.5127 28.4375C10.8489 28.3854 9.34605 27.8776 8.00424 26.9141C6.66243 25.9505 5.75 24.7135 5.26695 23.2031C5.91102 23.3073 6.39407 23.3594 6.7161 23.3594C7.25283 23.3594 7.95057 23.2552 8.80932 23.0469C7.03814 22.6823 5.54873 21.8099 4.3411 20.4297C3.13347 19.0495 2.52966 17.4479 2.52966 15.625V15.5469C3.71045 16.1719 4.89124 16.4844 6.07203 16.4844C3.76412 15.026 2.61017 12.9167 2.61017 10.1562C2.61017 8.85417 2.95904 7.60417 3.65678 6.40625C7.78955 11.3542 13.1299 13.9844 19.678 14.2969C19.5706 13.9323 19.5169 13.3594 19.5169 12.5781C19.5169 10.4427 20.2684 8.64583 21.7712 7.1875C23.274 5.72917 25.1257 5 27.3263 5C29.5268 5 31.4054 5.80729 32.9619 7.42188C34.572 7.16146 36.2359 6.53646 37.9534 5.54688C37.4167 7.36979 36.2627 8.77604 34.4915 9.76562C36.1554 9.60938 37.6582 9.21875 39 8.59375Z" fill="#BBBBBB"/>
</svg>