<svg width="62" height="62" viewBox="0 0 62 62" fill="none" xmlns="http://www.w3.org/2000/svg">
<path d="M62 31C62 26.929 61.1982 22.8979 59.6403 19.1368C58.0824 15.3757 55.7989 11.9583 52.9203 9.07969C50.0417 6.20107 46.6243 3.91763 42.8632 2.35973C39.1021 0.801838 35.071 -1.77948e-07 31 0C26.929 1.77948e-07 22.8979 0.801839 19.1368 2.35974C15.3757 3.91763 11.9583 6.20107 9.07969 9.07969C6.20107 11.9583 3.91763 15.3757 2.35973 19.1368C0.801838 22.8979 -3.55896e-07 26.929 0 31L31 31H62Z" fill="#0078FE"/>
<path d="M62 31C62 35.071 61.1982 39.1021 59.6403 42.8632C58.0824 46.6243 55.7989 50.0417 52.9203 52.9203C50.0417 55.7989 46.6243 58.0824 42.8632 59.6403C39.1021 61.1982 35.071 62 31 62C26.929 62 22.8979 61.1982 19.1368 59.6403C15.3757 58.0824 11.9583 55.7989 9.07969 52.9203C6.20107 50.0417 3.91763 46.6243 2.35973 42.8632C0.801838 39.1021 -3.55896e-07 35.071 0 31L31 31H62Z" fill="#FFEF00"/>
<path d="M45.6424 20.7042C39.7074 15.7043 34.7616 18.7042 31.2995 21.2042H30.7005C27.2384 18.7042 22.2926 15.7043 16.3576 20.7042C11.7197 24.6114 12.2068 32.9517 15.863 37.7043C19.3251 42.2043 26.6834 45.6667 30.8049 48C34.9265 45.6667 42.6749 42.2043 46.137 37.7043C49.7932 32.9517 50.2803 24.6114 45.6424 20.7042Z" fill="#FF0000"/>
<circle cx="31" cy="31" r="30.5" stroke="white"/>
</svg>