<svg width="25" height="25" viewBox="0 0 25 25" fill="none" xmlns="http://www.w3.org/2000/svg">
<path d="M12.4976 9.49872C10.845 9.49872 9.49636 10.8474 9.49636 12.5C9.49636 14.1526 10.845 15.5013 12.4976 15.5013C14.1502 15.5013 15.4988 14.1526 15.4988 12.5C15.4988 10.8474 14.1502 9.49872 12.4976 9.49872ZM21.499 12.5C21.499 11.2572 21.5103 10.0256 21.4405 8.78499C21.3707 7.34402 21.0419 6.06515 19.9883 5.01144C18.9323 3.95548 17.6557 3.62901 16.2148 3.55921C14.972 3.48941 13.7404 3.50067 12.4998 3.50067C11.257 3.50067 10.0255 3.48941 8.78489 3.55921C7.34395 3.62901 6.0651 3.95773 5.01141 5.01144C3.95547 6.0674 3.629 7.34402 3.55921 8.78499C3.48941 10.0278 3.50067 11.2594 3.50067 12.5C3.50067 13.7406 3.48941 14.9744 3.55921 16.215C3.629 17.656 3.95772 18.9348 5.01141 19.9886C6.06736 21.0445 7.34395 21.371 8.78489 21.4408C10.0277 21.5106 11.2593 21.4993 12.4998 21.4993C13.7426 21.4993 14.9742 21.5106 16.2148 21.4408C17.6557 21.371 18.9346 21.0423 19.9883 19.9886C21.0442 18.9326 21.3707 17.656 21.4405 16.215C21.5125 14.9744 21.499 13.7428 21.499 12.5ZM12.4976 17.1179C9.94215 17.1179 7.8798 15.0555 7.8798 12.5C7.8798 9.94452 9.94215 7.88213 12.4976 7.88213C15.053 7.88213 17.1154 9.94452 17.1154 12.5C17.1154 15.0555 15.053 17.1179 12.4976 17.1179ZM17.3045 8.77148C16.7078 8.77148 16.226 8.28966 16.226 7.693C16.226 7.09635 16.7078 6.61452 17.3045 6.61452C17.9011 6.61452 18.3829 7.09635 18.3829 7.693C18.3831 7.83468 18.3554 7.975 18.3012 8.10593C18.2471 8.23686 18.1677 8.35582 18.0675 8.456C17.9673 8.55618 17.8483 8.63561 17.7174 8.68975C17.5865 8.74388 17.4462 8.77166 17.3045 8.77148Z" fill="#000D83"/>
</svg>