<svg width="25" height="25" viewBox="0 0 25 25" fill="none" xmlns="http://www.w3.org/2000/svg">
<path d="M22.2499 6.46016C21.5327 6.76953 20.7522 6.99219 19.9483 7.07891C20.783 6.58305 21.408 5.79969 21.7061 4.87578C20.9229 5.34169 20.0649 5.6684 19.1702 5.84141C18.7962 5.44162 18.344 5.12314 17.8415 4.9058C17.3391 4.68846 16.7973 4.57692 16.2499 4.57813C14.0351 4.57813 12.2538 6.37344 12.2538 8.57656C12.2538 8.88594 12.2913 9.19531 12.3522 9.49297C9.03584 9.31953 6.07803 7.73516 4.11162 5.30938C3.75332 5.92137 3.56556 6.61819 3.56787 7.32734C3.56787 8.71485 4.27334 9.93828 5.34912 10.6578C4.71515 10.6328 4.09602 10.4586 3.54209 10.1492V10.1984C3.54209 12.1414 4.91553 13.7516 6.74599 14.1219C6.4023 14.2112 6.04875 14.2568 5.69365 14.2578C5.43349 14.2578 5.1874 14.232 4.93896 14.1969C5.44521 15.7813 6.91943 16.932 8.6749 16.9695C7.30146 18.0453 5.58115 18.6781 3.71318 18.6781C3.37803 18.6781 3.06865 18.6664 2.74756 18.6289C4.51943 19.7656 6.62178 20.4219 8.88584 20.4219C16.2358 20.4219 20.2577 14.3328 20.2577 9.04766C20.2577 8.87422 20.2577 8.70078 20.246 8.52735C21.0241 7.95781 21.7061 7.25235 22.2499 6.46016Z" fill="#000D83"/>
</svg>