<svg width="50" height="50" viewBox="0 0 50 50" fill="none" xmlns="http://www.w3.org/2000/svg">
<path d="M38.2354 25.1311C30.5148 25.6554 23.7136 26.1797 15.5883 26.1797" stroke="#000D83" stroke-width="2" stroke-linecap="round"/>
<path d="M23.2367 19.3639C20.4852 22.759 17.6472 25.6555 13.1311 26.3209C18.1619 27.2283 22.2796 27.2283 24.3384 32.9956" stroke="#000D83" stroke-width="2" stroke-linecap="round" stroke-linejoin="round"/>
<path d="M27.4074 3.11443L27.4074 3.1144C27.2857 3.05784 27.0926 3.0084 26.8707 2.96391C26.6413 2.91791 26.3575 2.87284 26.0396 2.83098C25.4034 2.74724 24.6209 2.67513 23.8439 2.6346L23.8308 2.88426L23.8439 2.6346C23.4862 2.61595 23.1775 2.59824 22.914 2.58099C23.0406 2.56722 23.1761 2.55352 23.3194 2.54006C24.0164 2.47456 24.8697 2.41696 25.7099 2.38316C28.0594 2.28892 29.2647 2.37678 30.9855 2.76188C43.9986 5.67401 51.7485 20.5438 46.8048 33.1434C44.3 39.5273 38.9983 44.7236 32.7785 46.9015L32.8482 47.1006L32.7785 46.9015C24.5347 49.7882 15.903 47.9384 9.67252 41.9533C4.88393 37.3536 2.45302 31.7678 2.45302 25.3817C2.45302 19.6616 4.43864 14.5034 8.28461 10.2345L8.09887 10.0671L8.28461 10.2345C8.74348 9.7251 9.3507 9.14032 9.99575 8.56759C8.34054 10.3203 6.9476 12.4122 5.83502 14.8134C5.26477 16.0441 4.75833 17.4103 4.39906 18.6286C4.04256 19.8375 3.82192 20.9304 3.84331 21.6022C3.84331 21.6022 3.84331 21.6022 3.84331 21.6023L4.09318 21.5943C4.09685 21.7106 4.12973 21.7024 4.18427 21.5914C4.18427 21.5914 4.18428 21.5914 4.18428 21.5914C4.20094 21.5575 4.21961 21.514 4.24009 21.4615L27.4074 3.11443ZM27.4074 3.11443C27.5693 3.18976 27.6975 3.24958 27.7827 3.29341C27.8233 3.31433 27.8656 3.33732 27.8986 3.36049C27.9121 3.36992 27.9439 3.39272 27.9713 3.42788C27.9849 3.44542 28.0118 3.48396 28.0226 3.54039C28.0356 3.60831 28.0214 3.68453 27.9725 3.74668C27.9317 3.79861 27.8822 3.82081 27.8581 3.8298C27.8313 3.83977 27.8078 3.84375 27.7933 3.84562C27.7643 3.84938 27.7369 3.84888 27.7181 3.84804C27.6783 3.84626 27.6297 3.84042 27.578 3.83303C27.4725 3.81797 27.3203 3.79143 27.1252 3.7572L27.1252 3.75719C22.7395 2.98653 18.9579 3.41033 15.9875 4.97496L15.9875 4.97497C15.4355 5.26561 14.9092 5.51694 14.5047 5.68778C14.3032 5.77286 14.127 5.84012 13.9906 5.88207C13.9233 5.90278 13.8582 5.91971 13.8009 5.92834C13.7725 5.93261 13.7385 5.93605 13.7031 5.93453C13.6825 5.93365 13.6463 5.93068 13.6056 5.91601C13.5838 5.92086 13.5488 5.93165 13.4984 5.9526C13.4938 5.95455 13.489 5.95657 13.4842 5.95864L27.4074 3.11443ZM48.4312 18.9837L48.1907 19.0519L48.4312 18.9837C48.8373 20.4158 49.0506 22.6333 49.0717 24.8235C49.0929 27.0132 48.9223 29.2136 48.5428 30.6109C47.1666 35.6781 43.9401 40.6658 39.9597 43.8738C28.015 53.5007 10.2494 49.2666 3.72342 35.2467C0.405243 28.1182 0.840717 20.2424 4.9284 13.394C8.54827 7.32914 13.7116 3.84954 21.9042 1.91262L21.9618 2.15591L21.9043 1.91262C23.1183 1.62565 24.9135 1.49784 26.6964 1.51641C28.4794 1.53498 30.2792 1.70026 31.5024 2.01232L31.4407 2.25434L31.5024 2.01233C39.487 4.04955 46.0703 10.6577 48.4312 18.9837ZM13.622 5.91309C13.6247 5.91311 13.6263 5.91294 13.6264 5.91284C13.6265 5.91274 13.6251 5.91273 13.622 5.91309Z" fill="#BDBDBD" stroke="#BDBDBD" stroke-width="0.5"/>
</svg>