<svg width="232" height="70" viewBox="0 0 232 70" fill="none" xmlns="http://www.w3.org/2000/svg">
<path d="M3.05679 34.8856L3.48444 35.7255L4.01216 34.9446C4.06061 34.8729 4.10966 34.8002 4.15931 34.7267C5.82319 32.2627 8.16106 28.8005 11.0556 26.6208C17.7447 21.5835 27.6632 16.7881 39.6319 12.6119C63.5502 4.26622 95.7678 0.946868 127.017 0.579009C142.614 0.395404 161.247 1.26929 178.479 3.92631C195.731 6.58645 211.499 11.0227 221.429 17.9151C225.496 20.7376 228.261 23.4918 229.838 26.1763C231.426 28.8776 231.817 31.5263 231.098 34.0682C230.386 36.5812 228.61 38.9131 226.002 41.0678C223.388 43.2272 219.901 45.2403 215.703 47.0986C207.34 50.8005 192.813 53.9251 176.545 56.3505C160.296 58.7731 142.372 60.4899 127.254 61.396C97.004 63.209 64.8547 61.7812 40.5325 56.2219C28.3755 53.4432 18.1467 49.6266 11.0854 44.6446C8.20509 42.6125 5.8364 40.3724 4.0808 37.9208L3.50176 37.1122L3.11685 38.0292C2.33605 39.8894 2.10843 41.7165 2.45227 43.4985C2.91415 45.8922 4.42592 48.3113 7.22448 50.6906C10.0204 53.0676 14.0648 55.3735 19.5174 57.5515C30.3362 61.873 46.6341 65.6658 69.558 68.5464L69.4725 69.3783C46.5443 66.4959 30.203 62.6974 19.3252 58.3524C13.8429 56.1626 9.7318 53.8275 6.86128 51.387C3.9932 48.9486 2.32767 46.3735 1.81046 43.6931C1.35874 41.352 1.7966 39.0066 2.9694 36.7037L3.10589 36.4357L2.95609 36.1749C1.26421 33.2294 0.413161 29.9872 0.575051 26.4237L1.23385 26.4833C1.10105 29.475 1.72822 32.2763 3.05679 34.8856ZM4.10923 36.112L3.9244 36.4131L4.11863 36.7081C5.84105 39.3248 8.29652 41.7209 11.4008 43.9111C18.3666 48.8256 28.5117 52.6228 40.6451 55.3961C64.9036 60.9408 97.0014 62.3697 127.224 60.5583C142.342 59.6522 160.227 57.9365 176.413 55.5272C192.58 53.1208 207.114 50.0139 215.492 46.3057C219.664 44.459 223.096 42.4725 225.646 40.3651C228.203 38.253 229.836 36.0511 230.476 33.7909C231.107 31.5598 230.792 29.1958 229.309 26.6722C227.816 24.1319 225.149 21.4497 221.118 18.6515C211.189 11.76 195.423 7.37041 178.311 4.74228C161.178 2.11095 142.613 1.23406 127.023 1.41759C95.8978 1.78398 63.7128 5.07803 39.8012 13.4214C27.855 17.5897 18.0017 22.3614 11.3875 27.3423C8.0412 29.8623 5.58688 33.7052 4.10923 36.112Z" fill="#C4C4C4" stroke="#BDBDBD" stroke-width="1.11111"/>
</svg>