<svg width="85" height="85" viewBox="0 0 85 85" fill="none" xmlns="http://www.w3.org/2000/svg">
<path d="M20 42.7231C33.125 43.6144 44.687 44.5057 58.5 44.5057" stroke="#000D83" stroke-width="2" stroke-linecap="round"/>
<path d="M45.4979 32.9187C50.1754 38.6904 55 43.6144 62.6774 44.7456C54.125 46.2883 47.125 46.2883 43.625 56.0926" stroke="#000D83" stroke-width="2" stroke-linecap="round" stroke-linejoin="round"/>
<mask id="path-3-outside-1_1017_1370" maskUnits="userSpaceOnUse" x="1" y="2" width="82" height="82" fill="black">
<rect fill="white" x="1" y="2" width="82" height="82"/>
<path fill-rule="evenodd" clip-rule="evenodd" d="M31.5509 3.83286C18.1331 7.25635 7.05068 18.3705 3.07572 32.3883C1.72577 37.1493 1.62773 47.2899 2.88735 51.9271C5.20414 60.4577 10.6403 68.8589 17.3351 74.2547C37.4223 90.444 67.305 83.3281 78.2848 59.7402C83.8653 47.7515 83.1349 34.5112 76.2567 22.9878C70.1733 12.7954 61.5044 6.9371 47.6649 3.66515C43.6346 2.71249 35.6148 2.79611 31.5509 3.83286ZM44.4875 4.90334C48.2441 4.70744 48.9654 4.56792 47.8919 4.24543C47.1429 4.02043 44.1811 3.74231 41.3101 3.6268C37.2902 3.46556 35.2026 3.61571 32.2317 4.28055C9.84817 9.28965 -3.46069 34.8439 5.03619 56.4992C9.33751 67.4617 18.4404 76.3887 29.136 80.1337C43.2996 85.0934 58.1422 81.9143 68.8511 71.6272C77.0715 63.731 81.2548 54.1258 81.2548 43.149C81.2548 33.3192 77.84 24.4491 71.2319 17.1143C68.4071 13.9786 62.385 9.2453 61.7382 9.65187C61.5534 9.7683 59.8803 9.06142 58.0192 8.0815C52.8636 5.36581 46.3331 4.64738 38.8135 5.96873C37.4763 6.20343 37.4722 6.19835 38.5866 5.67997C39.2107 5.38983 41.8661 5.04009 44.4875 4.90334ZM65.0391 13.1114C71.1633 18.9073 74.8627 25.2502 76.9172 33.4763C77.5159 35.8742 78.022 37.3295 78.0415 36.7104C78.1096 34.5736 76.6153 29.5063 74.6948 25.3616C72.4297 20.4731 69.4793 16.3552 65.901 13.0892C61.8399 9.38205 61.1186 9.40054 65.0391 13.1114Z"/>
</mask>
<path fill-rule="evenodd" clip-rule="evenodd" d="M31.5509 3.83286C18.1331 7.25635 7.05068 18.3705 3.07572 32.3883C1.72577 37.1493 1.62773 47.2899 2.88735 51.9271C5.20414 60.4577 10.6403 68.8589 17.3351 74.2547C37.4223 90.444 67.305 83.3281 78.2848 59.7402C83.8653 47.7515 83.1349 34.5112 76.2567 22.9878C70.1733 12.7954 61.5044 6.9371 47.6649 3.66515C43.6346 2.71249 35.6148 2.79611 31.5509 3.83286ZM44.4875 4.90334C48.2441 4.70744 48.9654 4.56792 47.8919 4.24543C47.1429 4.02043 44.1811 3.74231 41.3101 3.6268C37.2902 3.46556 35.2026 3.61571 32.2317 4.28055C9.84817 9.28965 -3.46069 34.8439 5.03619 56.4992C9.33751 67.4617 18.4404 76.3887 29.136 80.1337C43.2996 85.0934 58.1422 81.9143 68.8511 71.6272C77.0715 63.731 81.2548 54.1258 81.2548 43.149C81.2548 33.3192 77.84 24.4491 71.2319 17.1143C68.4071 13.9786 62.385 9.2453 61.7382 9.65187C61.5534 9.7683 59.8803 9.06142 58.0192 8.0815C52.8636 5.36581 46.3331 4.64738 38.8135 5.96873C37.4763 6.20343 37.4722 6.19835 38.5866 5.67997C39.2107 5.38983 41.8661 5.04009 44.4875 4.90334ZM65.0391 13.1114C71.1633 18.9073 74.8627 25.2502 76.9172 33.4763C77.5159 35.8742 78.022 37.3295 78.0415 36.7104C78.1096 34.5736 76.6153 29.5063 74.6948 25.3616C72.4297 20.4731 69.4793 16.3552 65.901 13.0892C61.8399 9.38205 61.1186 9.40054 65.0391 13.1114Z" fill="#BDBDBD"/>
<path d="M31.5509 3.83286L31.4273 3.34838L31.4272 3.34838L31.5509 3.83286ZM3.07572 32.3883L2.59469 32.2519L2.59469 32.2519L3.07572 32.3883ZM2.88735 51.9271L3.36987 51.7961L3.36986 51.7961L2.88735 51.9271ZM17.3351 74.2547L17.0213 74.644L17.0213 74.644L17.3351 74.2547ZM78.2848 59.7402L78.7381 59.9512L78.7381 59.9512L78.2848 59.7402ZM76.2567 22.9878L75.8274 23.244L75.8274 23.244L76.2567 22.9878ZM47.6649 3.66515L47.78 3.17856L47.7799 3.17856L47.6649 3.66515ZM47.8919 4.24543L47.748 4.72429L47.748 4.72429L47.8919 4.24543ZM44.4875 4.90334L44.4615 4.40401L44.4615 4.40401L44.4875 4.90334ZM38.5866 5.67997L38.3758 5.22657L38.3757 5.22662L38.5866 5.67997ZM38.8135 5.96873L38.9 6.4612L38.9001 6.46118L38.8135 5.96873ZM58.0192 8.0815L57.7862 8.52388L57.7863 8.52392L58.0192 8.0815ZM61.7382 9.65187L61.4721 9.22855L61.4716 9.22886L61.7382 9.65187ZM71.2319 17.1143L70.8604 17.4489L70.8604 17.4489L71.2319 17.1143ZM68.8511 71.6272L68.5047 71.2666L68.5047 71.2666L68.8511 71.6272ZM29.136 80.1337L29.3013 79.6618L29.3013 79.6618L29.136 80.1337ZM5.03619 56.4992L5.50164 56.3166L5.50164 56.3166L5.03619 56.4992ZM32.2317 4.28055L32.1225 3.79261L32.1225 3.79261L32.2317 4.28055ZM41.3101 3.6268L41.3302 3.12721L41.3301 3.1272L41.3101 3.6268ZM65.0391 13.1114L64.6953 13.4745L64.6954 13.4746L65.0391 13.1114ZM76.9172 33.4763L77.4023 33.3552L77.4023 33.3552L76.9172 33.4763ZM78.0415 36.7104L77.5418 36.6945L77.5418 36.6946L78.0415 36.7104ZM74.6948 25.3616L74.2411 25.5718L74.2411 25.5718L74.6948 25.3616ZM65.901 13.0892L65.564 13.4585L65.564 13.4585L65.901 13.0892ZM31.4272 3.34838C17.826 6.81867 6.61514 18.0736 2.59469 32.2519L3.55676 32.5247C7.48622 18.6673 18.4401 7.69403 31.6745 4.31734L31.4272 3.34838ZM2.59469 32.2519C1.90166 34.696 1.53892 38.4735 1.50297 42.1993C1.46702 45.9239 1.7569 49.6729 2.40483 52.0582L3.36986 51.7961C2.75817 49.5442 2.46726 45.9042 2.50292 42.209C2.53857 38.5149 2.89983 34.8415 3.55676 32.5247L2.59469 32.2519ZM2.40482 52.0582C4.74841 60.6874 10.242 69.1801 17.0213 74.644L17.6488 73.8654C11.0385 68.5377 5.65987 60.228 3.36987 51.7961L2.40482 52.0582ZM17.0213 74.644C37.366 91.0407 67.6237 83.8283 78.7381 59.9512L77.8315 59.5292C66.9863 82.8279 37.4786 89.8472 17.6488 73.8654L17.0213 74.644ZM78.7381 59.9512C84.3897 47.8097 83.6476 34.3946 76.6861 22.7315L75.8274 23.244C82.6222 34.6278 83.3409 47.6933 77.8315 59.5292L78.7381 59.9512ZM76.6861 22.7315C70.5198 12.4004 61.723 6.475 47.78 3.17856L47.5499 4.15174C61.2858 7.39921 69.8268 13.1904 75.8274 23.244L76.6861 22.7315ZM47.7799 3.17856C45.7075 2.68868 42.6486 2.47141 39.6153 2.503C36.5816 2.53459 33.5152 2.81573 31.4273 3.34838L31.6745 4.31734C33.6505 3.81324 36.626 3.53419 39.6257 3.50295C42.6258 3.4717 45.592 3.68895 47.5499 4.15174L47.7799 3.17856ZM47.748 4.72429C47.8748 4.76239 47.9543 4.79183 47.9977 4.81193C48.0199 4.82222 48.0172 4.82304 48.0021 4.81199C47.9965 4.80781 47.9222 4.75563 47.877 4.64275C47.8142 4.48605 47.8477 4.32028 47.9311 4.20623C47.9639 4.16138 47.9974 4.13378 48.0168 4.11956C48.0368 4.10485 48.052 4.09712 48.0571 4.09462C48.0642 4.09115 48.0281 4.10736 47.9061 4.13094C47.4326 4.22247 46.354 4.30532 44.4615 4.40401L44.5135 5.40266C46.3776 5.30545 47.538 5.2206 48.0959 5.11277C48.2317 5.08651 48.3781 5.05091 48.4969 4.99271C48.5524 4.96553 48.6569 4.90774 48.7382 4.7967C48.8428 4.65371 48.8803 4.45815 48.8052 4.27071C48.7477 4.12709 48.6447 4.0432 48.5944 4.00623C48.5347 3.96239 48.4716 3.92935 48.4181 3.90458C48.3101 3.85456 48.1773 3.8091 48.0357 3.76657L47.748 4.72429ZM44.4615 4.40401C43.1387 4.47302 41.8064 4.59576 40.7228 4.73841C40.1814 4.80969 39.6972 4.88656 39.305 4.96521C38.9279 5.04083 38.5916 5.12625 38.3758 5.22657L38.7974 6.13338C38.8936 6.08863 39.1234 6.02153 39.5016 5.94569C39.8647 5.87289 40.3253 5.79937 40.8533 5.72986C41.9088 5.59091 43.2149 5.47041 44.5136 5.40266L44.4615 4.40401ZM38.3757 5.22662C38.101 5.35441 37.8815 5.45684 37.735 5.53222C37.6657 5.5679 37.59 5.60895 37.5292 5.65151C37.505 5.66846 37.4433 5.71245 37.3896 5.78143C37.3628 5.81585 37.3093 5.89231 37.2878 6.00463C37.2619 6.13996 37.2902 6.29192 37.3877 6.41581C37.469 6.51927 37.5675 6.56332 37.615 6.58103C37.6677 6.60069 37.7139 6.60844 37.7417 6.61203C37.7973 6.61925 37.8489 6.61819 37.8825 6.61669C37.9541 6.6135 38.0396 6.60312 38.1279 6.5905C38.3087 6.56468 38.5689 6.51931 38.9 6.4612L38.7271 5.47626C38.3896 5.5355 38.1478 5.57751 37.9865 5.60055C37.9038 5.61236 37.8583 5.61677 37.838 5.61768C37.8256 5.61823 37.8411 5.61655 37.8702 5.62033C37.8847 5.62221 37.9201 5.62754 37.9644 5.64407C38.0035 5.65864 38.096 5.69883 38.1738 5.7977C38.2676 5.917 38.2947 6.06364 38.2699 6.19288C38.2496 6.29912 38.1997 6.36875 38.1788 6.39558C38.1543 6.42705 38.132 6.44696 38.1228 6.45492C38.112 6.46417 38.1045 6.46945 38.103 6.47054C38.1004 6.47236 38.1054 6.46868 38.1233 6.45855C38.1399 6.44908 38.1626 6.43682 38.1927 6.42136C38.3171 6.35732 38.515 6.26473 38.7975 6.13332L38.3757 5.22662ZM38.9001 6.46118C46.3445 5.15305 52.7553 5.87387 57.7862 8.52388L58.2523 7.63912C52.972 4.85774 46.3218 4.14172 38.727 5.47627L38.9001 6.46118ZM57.7863 8.52392C58.726 9.01873 59.6227 9.44696 60.3128 9.73842C60.6562 9.88346 60.9585 9.9989 61.1938 10.0713C61.3097 10.107 61.4245 10.137 61.5272 10.1524C61.5781 10.1601 61.6411 10.1666 61.7078 10.1637C61.7632 10.1614 61.8841 10.1509 62.0048 10.0749L61.4716 9.22886C61.5691 9.1674 61.6554 9.16506 61.665 9.16464C61.686 9.16374 61.6923 9.16603 61.6761 9.16359C61.6447 9.15885 61.584 9.14509 61.4879 9.11553C61.2994 9.05752 61.0324 8.95683 60.7019 8.81721C60.044 8.53936 59.1735 8.12419 58.2522 7.63908L57.7863 8.52392ZM62.0043 10.0752C61.8868 10.149 61.7952 10.1204 61.8399 10.1277C61.8659 10.1319 61.9247 10.1475 62.0238 10.1888C62.2189 10.27 62.4916 10.4174 62.833 10.6299C63.5108 11.0519 64.3965 11.6911 65.3593 12.4478C67.2861 13.9623 69.474 15.9099 70.8604 17.4489L71.6033 16.7796C70.165 15.1829 67.9294 13.196 65.9773 11.6616C65.0006 10.8939 64.0829 10.2301 63.3615 9.78092C63.0031 9.55784 62.6771 9.3776 62.4082 9.2656C62.2751 9.21021 62.1355 9.16271 62.0008 9.14075C61.8849 9.12184 61.6704 9.10391 61.4721 9.22855L62.0043 10.0752ZM70.8604 17.4489C77.3862 24.6924 80.7548 33.4434 80.7548 43.149H81.7548C81.7548 33.195 78.2938 24.2058 71.6033 16.7796L70.8604 17.4489ZM80.7548 43.149C80.7548 53.984 76.6312 63.4606 68.5047 71.2666L69.1974 71.9878C77.5118 64.0014 81.7548 54.2677 81.7548 43.149H80.7548ZM68.5047 71.2666C57.9336 81.4214 43.2894 84.5601 29.3013 79.6618L28.9708 80.6057C43.3098 85.6268 58.3509 82.4072 69.1974 71.9878L68.5047 71.2666ZM29.3013 79.6618C18.7491 75.967 9.75216 67.1497 5.50164 56.3166L4.57074 56.6818C8.92286 67.7738 18.1317 76.8104 28.9708 80.6057L29.3013 79.6618ZM5.50164 56.3166C-2.88631 34.9389 10.2648 9.70878 32.3409 4.76848L32.1225 3.79261C9.43153 8.87052 -4.03507 34.7489 4.57074 56.6818L5.50164 56.3166ZM32.3409 4.76848C35.2583 4.11561 37.3005 3.96638 41.29 4.1264L41.3301 3.1272C37.2799 2.96475 35.1469 3.11581 32.1225 3.79261L32.3409 4.76848ZM41.29 4.1264C42.7172 4.18382 44.1665 4.28166 45.35 4.39286C46.5564 4.50622 47.4306 4.62892 47.748 4.72429L48.0357 3.76657C47.6042 3.63694 46.6231 3.50808 45.4435 3.39725C44.2411 3.28426 42.774 3.18529 41.3302 3.12721L41.29 4.1264ZM64.6954 13.4746C70.75 19.2045 74.4006 25.4633 76.4321 33.5975L77.4023 33.3552C75.3249 25.0371 71.5767 18.6101 65.3827 12.7482L64.6954 13.4746ZM76.4321 33.5974C76.7327 34.8016 77.0132 35.7818 77.2243 36.3889C77.3221 36.6704 77.4255 36.9347 77.5294 37.0862C77.5538 37.1218 77.614 37.2063 77.7145 37.2699C77.7698 37.3048 77.8661 37.3517 77.9935 37.353C78.1336 37.3543 78.2546 37.2998 78.3415 37.2238C78.4798 37.1027 78.5128 36.946 78.5209 36.9082C78.535 36.8433 78.5396 36.7789 78.5413 36.7261L77.5418 36.6946C77.541 36.7193 77.5394 36.716 77.5436 36.6967C77.5457 36.6866 77.5519 36.6605 77.567 36.6267C77.5809 36.5957 77.614 36.5316 77.6829 36.4713C77.7613 36.4026 77.873 36.3518 78.003 36.353C78.1203 36.3541 78.2056 36.3972 78.2491 36.4248C78.2935 36.4528 78.321 36.4813 78.3325 36.4939C78.3455 36.5082 78.3527 36.5185 78.3542 36.5207C78.3542 36.5207 78.3342 36.4879 78.2955 36.3965C78.2602 36.313 78.2177 36.2011 78.1688 36.0605C77.9723 35.4953 77.7003 34.5488 77.4023 33.3552L76.4321 33.5974ZM78.5413 36.7263C78.5781 35.5713 78.1997 33.7033 77.5935 31.6475C76.9817 29.5731 76.1195 27.247 75.1485 25.1514L74.2411 25.5718C75.1906 27.6209 76.0358 29.9008 76.6343 31.9304C77.2383 33.9786 77.5731 35.7127 77.5418 36.6945L78.5413 36.7263ZM75.1485 25.1514C72.8586 20.2094 69.8706 16.0354 66.2381 12.7199L65.564 13.4585C69.0879 16.6749 72.0008 20.7367 74.2411 25.5718L75.1485 25.1514ZM66.2381 12.7199C65.2184 11.7891 64.403 11.0872 63.8139 10.6163C63.5204 10.3817 63.2763 10.199 63.0877 10.0729C62.9942 10.0105 62.9051 9.95567 62.8247 9.91468C62.7846 9.89425 62.7381 9.8728 62.6884 9.85569C62.6464 9.84121 62.5641 9.81615 62.4641 9.81871C62.3567 9.82147 62.1484 9.86378 62.0228 10.0732C61.9181 10.2477 61.9493 10.4179 61.9623 10.4752C61.9912 10.6015 62.061 10.7117 62.1016 10.7728C62.201 10.9224 62.3645 11.1201 62.5775 11.3561C63.0106 11.836 63.7116 12.5433 64.6953 13.4745L65.3828 12.7483C64.4063 11.824 63.7272 11.1375 63.3199 10.6861C63.1126 10.4564 62.9908 10.3042 62.9346 10.2195C62.8974 10.1635 62.9219 10.1855 62.9373 10.2526C62.9436 10.2803 62.9759 10.4281 62.8803 10.5875C62.7638 10.7818 62.5724 10.8163 62.4898 10.8184C62.4145 10.8203 62.3647 10.8019 62.3629 10.8012C62.3535 10.798 62.3549 10.7976 62.3705 10.8056C62.4013 10.8213 62.4539 10.8521 62.5321 10.9044C62.6867 11.0077 62.9056 11.1705 63.1895 11.3974C63.7554 11.8498 64.5531 12.5358 65.564 13.4585L66.2381 12.7199Z" fill="#BDBDBD" mask="url(#path-3-outside-1_1017_1370)"/>
</svg>